{"glyphs":{"0":{"ha":965,"x_min":64,"x_max":903,"o":"m 482 -17 q 317 22 393 -17 q 183 131 240 61 q 95 295 126 201 q 64 500 64 389 q 95 706 64 611 q 183 870 126 800 q 317 979 240 940 q 482 1018 393 1018 q 649 979 572 1018 q 782 870 725 940 q 871 706 839 800 q 903 500 903 611 q 871 295 903 389 q 782 131 839 201 q 649 22 725 61 q 482 -17 572 -17 m 482 29 q 572 49 535 29 q 631 121 608 69 q 663 264 653 172 q 674 500 674 356 q 663 737 674 644 q 631 881 653 829 q 572 952 608 932 q 482 972 535 972 q 391 952 428 972 q 333 881 354 932 q 302 737 311 829 q 293 500 293 644 q 302 264 293 356 q 333 121 311 172 q 391 49 354 69 q 482 29 428 29 z "},"1":{"ha":633,"x_min":14,"x_max":619,"o":"m 14 0 l 14 39 l 228 39 l 228 957 l 14 957 l 14 994 l 419 994 l 419 39 l 619 39 l 619 0 l 14 0 z "},"2":{"ha":831,"x_min":47,"x_max":756,"o":"m 47 0 l 47 121 l 357 388 q 470 500 431 450 q 526 598 510 550 q 542 703 542 646 q 490 888 542 821 q 346 954 439 954 q 246 933 292 954 q 172 878 200 911 q 144 811 144 846 q 149 791 144 797 q 163 785 154 785 q 190 793 175 785 q 233 801 206 801 q 296 778 274 801 q 318 714 318 756 q 286 637 318 660 q 211 614 254 614 q 138 636 167 614 q 94 694 108 658 q 81 768 81 729 q 129 905 81 850 q 256 988 178 960 q 418 1017 333 1017 q 539 1001 479 1017 q 648 954 599 986 q 726 872 697 922 q 756 751 756 821 q 742 669 756 711 q 692 580 728 626 q 592 482 657 533 l 194 169 l 194 164 l 632 164 q 683 172 665 164 q 709 212 701 181 q 717 310 717 243 l 756 310 l 756 0 l 47 0 z "},"3":{"ha":801,"x_min":35,"x_max":747,"o":"m 342 -17 q 180 8 249 -17 q 73 76 111 32 q 35 178 35 119 q 63 262 35 228 q 140 296 92 296 q 189 285 165 296 q 227 255 213 275 q 242 201 242 235 q 231 158 242 174 q 206 131 219 142 q 181 113 192 121 q 169 89 169 104 q 197 53 169 67 q 261 35 225 40 q 324 29 297 29 q 471 93 421 29 q 521 276 521 157 q 467 454 521 393 q 285 515 413 515 l 428 549 q 593 506 521 542 q 706 414 665 471 q 747 281 747 357 q 699 136 747 204 q 559 26 650 68 q 342 -17 468 -17 m 185 515 l 185 561 l 428 561 l 428 515 l 185 515 m 346 546 l 258 561 q 431 624 379 561 q 482 797 482 686 q 465 904 482 867 q 416 957 447 942 q 340 972 385 972 q 258 959 293 972 q 222 921 222 946 q 237 894 222 906 q 266 867 251 882 q 281 821 281 851 q 250 760 281 779 q 186 740 219 740 q 117 767 144 740 q 90 836 90 793 q 122 921 90 879 q 217 990 153 963 q 376 1017 281 1017 q 547 986 476 1017 q 656 904 618 956 q 693 790 693 853 q 653 676 693 728 q 537 590 614 624 q 346 546 460 556 z "},"4":{"ha":879,"x_min":24,"x_max":832,"o":"m 296 0 l 296 39 l 439 39 l 439 278 l 24 278 l 24 321 l 510 1017 l 631 1017 l 631 319 l 793 319 l 793 429 l 832 429 l 832 164 l 793 164 l 793 278 l 632 278 l 632 39 l 757 39 l 757 0 l 296 0 m 82 319 l 439 319 l 439 825 l 433 825 l 82 324 l 82 319 z "},"5":{"ha":814,"x_min":43,"x_max":768,"o":"m 351 -17 q 189 8 258 -17 q 81 76 119 32 q 43 175 43 119 q 73 258 43 226 q 150 290 103 290 q 222 267 192 290 q 253 200 253 244 q 242 155 253 171 q 215 129 231 139 q 189 110 200 119 q 178 86 178 100 q 199 54 178 67 q 253 35 221 42 q 319 29 286 29 q 483 94 425 29 q 542 288 542 158 q 476 496 542 431 q 308 561 411 561 q 213 549 263 561 q 140 519 164 538 l 153 581 q 196 594 164 586 q 273 608 228 603 q 369 614 318 614 q 589 574 500 614 q 723 465 678 533 q 768 310 768 396 q 712 139 768 213 q 561 24 656 65 q 351 -17 467 -17 m 140 519 l 117 535 l 163 994 l 215 994 l 169 560 l 140 519 m 201 832 l 167 994 l 585 994 q 648 1004 629 994 q 681 1043 667 1014 l 719 1043 l 669 832 l 201 832 z "},"6":{"ha":858,"x_min":67,"x_max":819,"o":"m 442 -17 q 251 35 336 -17 q 117 182 167 88 q 67 404 67 276 q 119 646 67 532 q 264 849 172 760 q 474 990 356 938 q 721 1046 592 1042 l 721 1003 q 515 936 604 993 q 372 790 426 879 q 301 589 318 700 l 306 588 q 386 635 343 618 q 485 651 429 651 q 653 609 578 651 q 774 494 728 567 q 819 329 819 421 q 788 191 819 254 q 703 81 757 128 q 583 9 650 35 q 442 -17 515 -17 m 438 29 q 533 54 499 29 q 582 142 567 79 q 597 317 597 204 q 583 495 597 433 q 540 580 568 557 q 467 603 511 603 q 363 574 406 603 q 293 501 319 544 q 281 401 283 454 q 279 307 279 349 q 294 137 279 197 q 345 53 310 76 q 438 29 381 29 z "},"7":{"ha":760,"x_min":54,"x_max":743,"o":"m 393 -17 q 305 15 336 -17 q 274 107 274 46 q 283 169 274 136 q 318 255 293 203 q 386 390 343 307 l 615 832 l 214 832 q 167 822 185 832 q 133 780 149 811 q 96 685 118 749 l 54 685 l 132 994 l 743 994 l 743 951 l 550 574 q 485 419 503 483 q 468 303 468 354 q 475 233 468 263 q 490 181 482 204 q 506 137 499 158 q 513 89 513 115 q 478 10 513 36 q 393 -17 444 -17 z "},"8":{"ha":868,"x_min":53,"x_max":815,"o":"m 433 -17 q 221 20 306 -17 q 94 119 136 57 q 53 257 53 181 q 90 376 53 322 q 193 467 128 429 q 342 519 258 504 l 342 525 l 528 525 l 528 519 q 676 465 611 503 q 778 375 742 428 q 815 257 815 322 q 774 119 815 181 q 647 20 732 57 q 433 -17 563 -17 m 433 25 q 560 80 522 25 q 597 261 597 135 q 560 438 597 376 q 433 499 524 499 q 308 438 344 499 q 272 261 272 378 q 309 80 272 135 q 433 25 346 25 m 435 540 q 540 598 510 540 q 569 765 569 656 q 540 924 569 875 q 435 972 510 972 q 331 924 361 972 q 300 765 300 875 q 331 598 300 656 q 435 540 361 540 m 435 515 q 263 547 340 515 q 140 635 186 578 q 94 771 94 693 q 133 894 94 839 q 246 983 171 950 q 435 1017 321 1017 q 624 983 549 1017 q 737 894 700 950 q 774 769 774 838 q 728 635 774 693 q 606 547 682 578 q 435 515 529 515 z "},"9":{"ha":858,"x_min":53,"x_max":806,"o":"m 146 -29 l 146 14 q 353 77 263 25 q 499 215 443 129 q 571 413 556 301 l 567 414 q 487 367 529 383 q 388 350 444 350 q 220 392 296 350 q 99 508 144 435 q 53 672 53 581 q 84 810 53 747 q 168 920 115 874 q 289 992 221 967 q 431 1018 357 1018 q 620 966 535 1018 q 756 819 706 914 q 806 597 806 725 q 751 356 806 468 q 605 159 697 244 q 394 24 513 74 q 146 -29 275 -26 m 406 399 q 510 428 467 399 q 579 500 554 457 q 591 600 589 547 q 593 694 593 653 q 578 865 593 804 q 528 949 563 925 q 435 974 493 974 q 340 948 375 974 q 290 860 306 922 q 275 685 275 797 q 290 506 275 568 q 333 422 304 444 q 406 399 363 399 z "},"A":{"ha":974,"x_min":-21,"x_max":994,"o":"m 675 21 l 419 751 l 414 751 l 406 797 l 486 1063 l 525 1063 l 888 21 l 675 21 m -21 0 l -21 39 l 315 39 l 315 0 l -21 0 m 239 306 l 239 343 l 703 343 l 703 306 l 239 306 m 515 0 l 515 39 l 994 39 l 994 0 l 515 0 m 100 21 l 486 1063 l 525 1063 l 446 832 l 146 21 l 100 21 z "},"Á":{"ha":974,"x_min":-21,"x_max":994,"o":"m 675 21 l 419 751 l 414 751 l 406 797 l 486 1063 l 525 1063 l 888 21 l 675 21 m -21 0 l -21 39 l 315 39 l 315 0 l -21 0 m 239 306 l 239 343 l 703 343 l 703 306 l 239 306 m 515 0 l 515 39 l 994 39 l 994 0 l 515 0 m 100 21 l 486 1063 l 525 1063 l 446 832 l 146 21 l 100 21 m 310 1172 l 526 1311 q 591 1349 569 1339 q 635 1358 613 1358 q 683 1341 667 1358 q 700 1297 700 1324 q 684 1251 700 1272 q 628 1221 668 1229 l 383 1172 l 310 1172 z "},"Ă":{"ha":974,"x_min":-21,"x_max":994,"o":"m 675 21 l 419 751 l 414 751 l 406 797 l 486 1063 l 525 1063 l 888 21 l 675 21 m -21 0 l -21 39 l 315 39 l 315 0 l -21 0 m 239 306 l 239 343 l 703 343 l 703 306 l 239 306 m 515 0 l 515 39 l 994 39 l 994 0 l 515 0 m 100 21 l 486 1063 l 525 1063 l 446 832 l 146 21 l 100 21 m 504 1172 q 337 1223 394 1172 q 279 1358 279 1274 l 333 1358 q 383 1301 336 1318 q 501 1283 429 1283 q 623 1302 575 1283 q 674 1358 671 1321 l 728 1358 q 674 1225 728 1278 q 504 1172 619 1172 z "},"Ắ":{"ha":974,"x_min":-21,"x_max":994,"o":"m 675 21 l 419 751 l 414 751 l 406 797 l 486 1063 l 525 1063 l 888 21 l 675 21 m -21 0 l -21 39 l 315 39 l 315 0 l -21 0 m 239 306 l 239 343 l 703 343 l 703 306 l 239 306 m 515 0 l 515 39 l 994 39 l 994 0 l 515 0 m 100 21 l 486 1063 l 525 1063 l 446 832 l 146 21 l 100 21 m 506 1143 q 357 1194 406 1143 q 308 1329 308 1244 l 363 1329 q 403 1272 365 1289 q 503 1254 440 1254 q 605 1273 565 1254 q 647 1329 644 1292 l 701 1329 q 681 1234 701 1276 q 618 1167 661 1192 q 506 1143 575 1143 m 310 1407 l 526 1546 q 591 1584 569 1574 q 635 1594 613 1594 q 683 1576 667 1594 q 700 1532 700 1558 q 684 1486 700 1507 q 628 1457 668 1465 l 383 1407 l 310 1407 z "},"Ặ":{"ha":974,"x_min":-21,"x_max":994,"o":"m 675 21 l 419 751 l 414 751 l 406 797 l 486 1063 l 525 1063 l 888 21 l 675 21 m -21 0 l -21 39 l 315 39 l 315 0 l -21 0 m 239 306 l 239 343 l 703 343 l 703 306 l 239 306 m 515 0 l 515 39 l 994 39 l 994 0 l 515 0 m 100 21 l 486 1063 l 525 1063 l 446 832 l 146 21 l 100 21 m 486 -340 q 415 -310 446 -340 q 385 -239 385 -281 q 415 -167 385 -197 q 486 -137 446 -137 q 558 -167 528 -137 q 589 -239 589 -197 q 558 -310 589 -281 q 486 -340 528 -340 m 504 1172 q 337 1223 394 1172 q 279 1358 279 1274 l 333 1358 q 383 1301 336 1318 q 501 1283 429 1283 q 623 1302 575 1283 q 674 1358 671 1321 l 728 1358 q 674 1225 728 1278 q 504 1172 619 1172 z "},"Ằ":{"ha":974,"x_min":-21,"x_max":994,"o":"m 675 21 l 419 751 l 414 751 l 406 797 l 486 1063 l 525 1063 l 888 21 l 675 21 m -21 0 l -21 39 l 315 39 l 315 0 l -21 0 m 239 306 l 239 343 l 703 343 l 703 306 l 239 306 m 515 0 l 515 39 l 994 39 l 994 0 l 515 0 m 100 21 l 486 1063 l 525 1063 l 446 832 l 146 21 l 100 21 m 506 1143 q 357 1194 406 1143 q 308 1329 308 1244 l 363 1329 q 403 1272 365 1289 q 503 1254 440 1254 q 605 1273 565 1254 q 647 1329 644 1292 l 701 1329 q 681 1234 701 1276 q 618 1167 661 1192 q 506 1143 575 1143 m 626 1408 l 382 1458 q 326 1488 342 1467 q 310 1533 310 1508 q 326 1578 310 1560 q 375 1596 343 1596 q 419 1585 399 1596 q 483 1547 440 1575 l 700 1408 l 626 1408 z "},"Ẳ":{"ha":974,"x_min":-21,"x_max":994,"o":"m 675 21 l 419 751 l 414 751 l 406 797 l 486 1063 l 525 1063 l 888 21 l 675 21 m -21 0 l -21 39 l 315 39 l 315 0 l -21 0 m 239 306 l 239 343 l 703 343 l 703 306 l 239 306 m 515 0 l 515 39 l 994 39 l 994 0 l 515 0 m 100 21 l 486 1063 l 525 1063 l 446 832 l 146 21 l 100 21 m 506 1143 q 357 1194 406 1143 q 308 1329 308 1244 l 363 1329 q 403 1272 365 1289 q 503 1254 440 1254 q 605 1273 565 1254 q 647 1329 644 1292 l 701 1329 q 681 1234 701 1276 q 618 1167 661 1192 q 506 1143 575 1143 m 482 1333 q 491 1380 482 1361 q 513 1412 500 1399 q 534 1438 525 1425 q 543 1469 543 1451 q 526 1508 543 1496 q 485 1521 510 1521 q 443 1508 458 1521 q 428 1481 428 1496 q 433 1465 428 1468 q 445 1456 439 1461 q 451 1433 451 1450 q 437 1408 451 1417 q 401 1400 422 1400 q 361 1417 378 1400 q 344 1458 344 1433 q 364 1528 344 1503 q 415 1566 383 1554 q 483 1578 447 1578 q 590 1550 553 1578 q 628 1472 628 1522 q 614 1419 628 1438 q 581 1388 600 1400 q 547 1365 563 1376 q 528 1333 532 1354 l 482 1333 z "},"Ẵ":{"ha":974,"x_min":-21,"x_max":994,"o":"m 675 21 l 419 751 l 414 751 l 406 797 l 486 1063 l 525 1063 l 888 21 l 675 21 m -21 0 l -21 39 l 315 39 l 315 0 l -21 0 m 239 306 l 239 343 l 703 343 l 703 306 l 239 306 m 515 0 l 515 39 l 994 39 l 994 0 l 515 0 m 100 21 l 486 1063 l 525 1063 l 446 832 l 146 21 l 100 21 m 504 1143 q 356 1194 404 1143 q 307 1329 307 1244 l 361 1329 q 402 1272 364 1289 q 501 1254 440 1254 q 604 1273 565 1254 q 646 1329 643 1292 l 700 1329 q 680 1234 700 1276 q 617 1167 660 1192 q 504 1143 574 1143 m 246 1388 q 276 1474 253 1432 q 337 1542 300 1515 q 424 1569 374 1569 q 492 1554 461 1569 q 553 1524 524 1539 q 614 1508 582 1508 q 684 1530 661 1508 q 715 1572 707 1551 l 763 1572 q 731 1485 753 1526 q 672 1416 708 1443 q 583 1389 636 1389 q 514 1404 544 1389 q 455 1435 483 1419 q 393 1450 426 1450 q 327 1433 354 1450 q 292 1388 300 1415 l 246 1388 z "},"Â":{"ha":974,"x_min":-21,"x_max":994,"o":"m 675 21 l 419 751 l 414 751 l 406 797 l 486 1063 l 525 1063 l 888 21 l 675 21 m -21 0 l -21 39 l 315 39 l 315 0 l -21 0 m 239 306 l 239 343 l 703 343 l 703 306 l 239 306 m 515 0 l 515 39 l 994 39 l 994 0 l 515 0 m 100 21 l 486 1063 l 525 1063 l 446 832 l 146 21 l 100 21 m 251 1172 l 461 1358 l 547 1358 l 757 1172 l 690 1172 l 504 1243 l 318 1172 l 251 1172 z "},"Ấ":{"ha":974,"x_min":-21,"x_max":994,"o":"m 675 21 l 419 751 l 414 751 l 406 797 l 486 1063 l 525 1063 l 888 21 l 675 21 m -21 0 l -21 39 l 315 39 l 315 0 l -21 0 m 239 306 l 239 343 l 703 343 l 703 306 l 239 306 m 515 0 l 515 39 l 994 39 l 994 0 l 515 0 m 100 21 l 486 1063 l 525 1063 l 446 832 l 146 21 l 100 21 m 279 1150 l 461 1308 l 547 1308 l 729 1150 l 663 1150 l 504 1214 l 346 1150 l 279 1150 m 310 1346 l 526 1485 q 590 1522 568 1513 q 633 1532 611 1532 q 682 1515 665 1532 q 699 1471 699 1497 q 683 1424 699 1446 q 628 1394 668 1403 l 383 1346 l 310 1346 z "},"Ậ":{"ha":974,"x_min":-21,"x_max":994,"o":"m 675 21 l 419 751 l 414 751 l 406 797 l 486 1063 l 525 1063 l 888 21 l 675 21 m -21 0 l -21 39 l 315 39 l 315 0 l -21 0 m 239 306 l 239 343 l 703 343 l 703 306 l 239 306 m 515 0 l 515 39 l 994 39 l 994 0 l 515 0 m 100 21 l 486 1063 l 525 1063 l 446 832 l 146 21 l 100 21 m 486 -340 q 415 -310 446 -340 q 385 -239 385 -281 q 415 -167 385 -197 q 486 -137 446 -137 q 558 -167 528 -137 q 589 -239 589 -197 q 558 -310 589 -281 q 486 -340 528 -340 m 251 1172 l 461 1358 l 547 1358 l 757 1172 l 690 1172 l 504 1243 l 318 1172 l 251 1172 z "},"Ầ":{"ha":974,"x_min":-21,"x_max":994,"o":"m 675 21 l 419 751 l 414 751 l 406 797 l 486 1063 l 525 1063 l 888 21 l 675 21 m -21 0 l -21 39 l 315 39 l 315 0 l -21 0 m 239 306 l 239 343 l 703 343 l 703 306 l 239 306 m 515 0 l 515 39 l 994 39 l 994 0 l 515 0 m 100 21 l 486 1063 l 525 1063 l 446 832 l 146 21 l 100 21 m 279 1150 l 461 1308 l 547 1308 l 729 1150 l 663 1150 l 504 1214 l 346 1150 l 279 1150 m 625 1347 l 381 1396 q 325 1426 340 1404 q 310 1472 310 1447 q 326 1516 310 1499 q 375 1533 343 1533 q 419 1524 397 1533 q 482 1486 440 1514 l 699 1347 l 625 1347 z "},"Ẩ":{"ha":974,"x_min":-21,"x_max":994,"o":"m 675 21 l 419 751 l 414 751 l 406 797 l 486 1063 l 525 1063 l 888 21 l 675 21 m -21 0 l -21 39 l 315 39 l 315 0 l -21 0 m 239 306 l 239 343 l 703 343 l 703 306 l 239 306 m 515 0 l 515 39 l 994 39 l 994 0 l 515 0 m 100 21 l 486 1063 l 525 1063 l 446 832 l 146 21 l 100 21 m 279 1150 l 461 1308 l 547 1308 l 729 1150 l 663 1150 l 504 1214 l 346 1150 l 279 1150 m 678 1307 q 687 1353 678 1335 q 708 1383 696 1371 q 730 1406 721 1396 q 739 1429 739 1417 q 722 1481 739 1467 q 679 1494 706 1494 q 638 1482 654 1494 q 622 1454 622 1469 q 628 1438 622 1442 q 640 1429 635 1435 q 646 1407 646 1424 q 631 1382 646 1390 q 597 1374 617 1374 q 556 1390 572 1374 q 539 1432 539 1407 q 558 1502 539 1476 q 610 1540 578 1528 q 678 1551 642 1551 q 785 1522 747 1551 q 822 1425 822 1492 q 808 1384 822 1399 q 776 1360 794 1369 q 742 1339 757 1350 q 724 1307 726 1328 l 678 1307 z "},"Ẫ":{"ha":974,"x_min":-21,"x_max":994,"o":"m 675 21 l 419 751 l 414 751 l 406 797 l 486 1063 l 525 1063 l 888 21 l 675 21 m -21 0 l -21 39 l 315 39 l 315 0 l -21 0 m 239 306 l 239 343 l 703 343 l 703 306 l 239 306 m 515 0 l 515 39 l 994 39 l 994 0 l 515 0 m 100 21 l 486 1063 l 525 1063 l 446 832 l 146 21 l 100 21 m 279 1146 l 461 1304 l 547 1304 l 729 1146 l 663 1146 l 504 1210 l 346 1146 l 279 1146 m 246 1382 q 276 1468 253 1426 q 337 1537 300 1510 q 424 1564 374 1564 q 492 1549 461 1564 q 553 1518 524 1533 q 614 1503 582 1503 q 684 1524 661 1503 q 715 1567 707 1546 l 763 1567 q 731 1479 753 1521 q 672 1410 708 1438 q 583 1383 636 1383 q 514 1399 544 1383 q 455 1429 483 1414 q 393 1444 426 1444 q 327 1427 354 1444 q 292 1382 300 1410 l 246 1382 z "},"Ȁ":{"ha":974,"x_min":-21,"x_max":994,"o":"m 675 21 l 419 751 l 414 751 l 406 797 l 486 1063 l 525 1063 l 888 21 l 675 21 m -21 0 l -21 39 l 315 39 l 315 0 l -21 0 m 239 306 l 239 343 l 703 343 l 703 306 l 239 306 m 515 0 l 515 39 l 994 39 l 994 0 l 515 0 m 100 21 l 486 1063 l 525 1063 l 446 832 l 146 21 l 100 21 m 751 1172 l 535 1221 q 478 1251 494 1231 q 463 1297 463 1272 q 479 1341 463 1324 q 528 1358 496 1358 q 571 1348 551 1358 q 631 1308 590 1338 l 825 1172 l 751 1172 m 474 1172 l 257 1221 q 201 1251 217 1231 q 185 1297 185 1272 q 201 1341 185 1324 q 250 1358 218 1358 q 293 1348 274 1358 q 353 1308 313 1338 l 547 1172 l 474 1172 z "},"Ä":{"ha":974,"x_min":-21,"x_max":994,"o":"m 675 21 l 419 751 l 414 751 l 406 797 l 486 1063 l 525 1063 l 888 21 l 675 21 m -21 0 l -21 39 l 315 39 l 315 0 l -21 0 m 239 306 l 239 343 l 703 343 l 703 306 l 239 306 m 515 0 l 515 39 l 994 39 l 994 0 l 515 0 m 100 21 l 486 1063 l 525 1063 l 446 832 l 146 21 l 100 21 m 646 1153 q 583 1179 610 1153 q 556 1243 556 1206 q 583 1306 556 1279 q 646 1333 610 1333 q 710 1306 683 1333 q 738 1243 738 1279 q 710 1179 738 1206 q 646 1153 683 1153 m 363 1153 q 299 1179 325 1153 q 272 1243 272 1206 q 299 1306 272 1279 q 363 1333 325 1333 q 426 1306 399 1333 q 453 1243 453 1279 q 426 1179 453 1206 q 363 1153 399 1153 z "},"Ạ":{"ha":974,"x_min":-21,"x_max":994,"o":"m 675 21 l 419 751 l 414 751 l 406 797 l 486 1063 l 525 1063 l 888 21 l 675 21 m -21 0 l -21 39 l 315 39 l 315 0 l -21 0 m 239 306 l 239 343 l 703 343 l 703 306 l 239 306 m 515 0 l 515 39 l 994 39 l 994 0 l 515 0 m 100 21 l 486 1063 l 525 1063 l 446 832 l 146 21 l 100 21 m 486 -340 q 415 -310 446 -340 q 385 -239 385 -281 q 415 -167 385 -197 q 486 -137 446 -137 q 558 -167 528 -137 q 589 -239 589 -197 q 558 -310 589 -281 q 486 -340 528 -340 z "},"À":{"ha":974,"x_min":-21,"x_max":994,"o":"m 675 21 l 419 751 l 414 751 l 406 797 l 486 1063 l 525 1063 l 888 21 l 675 21 m -21 0 l -21 39 l 315 39 l 315 0 l -21 0 m 239 306 l 239 343 l 703 343 l 703 306 l 239 306 m 515 0 l 515 39 l 994 39 l 994 0 l 515 0 m 100 21 l 486 1063 l 525 1063 l 446 832 l 146 21 l 100 21 m 626 1172 l 382 1221 q 326 1251 342 1229 q 310 1297 310 1272 q 326 1341 310 1324 q 375 1358 343 1358 q 419 1349 399 1358 q 483 1311 440 1339 l 700 1172 l 626 1172 z "},"Ả":{"ha":974,"x_min":-21,"x_max":994,"o":"m 675 21 l 419 751 l 414 751 l 406 797 l 486 1063 l 525 1063 l 888 21 l 675 21 m -21 0 l -21 39 l 315 39 l 315 0 l -21 0 m 239 306 l 239 343 l 703 343 l 703 306 l 239 306 m 515 0 l 515 39 l 994 39 l 994 0 l 515 0 m 100 21 l 486 1063 l 525 1063 l 446 832 l 146 21 l 100 21 m 501 1135 q 510 1180 501 1163 q 532 1210 519 1197 q 553 1237 544 1224 q 563 1268 563 1250 q 546 1308 563 1296 q 503 1321 529 1321 q 462 1309 478 1321 q 446 1282 446 1297 q 452 1265 446 1269 q 464 1256 458 1261 q 469 1235 469 1250 q 455 1210 469 1218 q 421 1201 440 1201 q 379 1217 396 1201 q 363 1260 363 1233 q 383 1329 363 1303 q 434 1367 403 1356 q 501 1379 465 1379 q 608 1351 571 1379 q 646 1271 646 1324 q 632 1218 646 1236 q 599 1189 618 1200 q 565 1166 581 1178 q 547 1135 550 1154 l 501 1135 z "},"Ȃ":{"ha":974,"x_min":-21,"x_max":994,"o":"m 675 21 l 419 751 l 414 751 l 406 797 l 486 1063 l 525 1063 l 888 21 l 675 21 m -21 0 l -21 39 l 315 39 l 315 0 l -21 0 m 239 306 l 239 343 l 703 343 l 703 306 l 239 306 m 515 0 l 515 39 l 994 39 l 994 0 l 515 0 m 100 21 l 486 1063 l 525 1063 l 446 832 l 146 21 l 100 21 m 279 1172 q 337 1308 279 1257 q 504 1358 394 1358 q 674 1306 619 1358 q 728 1172 728 1253 l 674 1172 q 623 1228 671 1210 q 501 1247 575 1247 q 383 1230 429 1247 q 333 1172 336 1213 l 279 1172 z "},"Ā":{"ha":974,"x_min":-21,"x_max":994,"o":"m 675 21 l 419 751 l 414 751 l 406 797 l 486 1063 l 525 1063 l 888 21 l 675 21 m -21 0 l -21 39 l 315 39 l 315 0 l -21 0 m 239 306 l 239 343 l 703 343 l 703 306 l 239 306 m 515 0 l 515 39 l 994 39 l 994 0 l 515 0 m 100 21 l 486 1063 l 525 1063 l 446 832 l 146 21 l 100 21 m 281 1182 l 281 1288 l 739 1288 l 739 1182 l 281 1182 z "},"Ą":{"ha":974,"x_min":-21,"x_max":994,"o":"m 675 21 l 419 751 l 414 751 l 406 797 l 486 1063 l 525 1063 l 888 21 l 675 21 m -21 0 l -21 39 l 315 39 l 315 0 l -21 0 m 239 306 l 239 343 l 703 343 l 703 306 l 239 306 m 515 0 l 515 39 l 994 39 l 994 0 l 515 0 m 100 21 l 486 1063 l 525 1063 l 446 832 l 146 21 l 100 21 m 722 -314 q 632 -282 667 -314 q 597 -199 597 -250 q 617 -128 597 -162 q 680 -53 636 -93 q 799 38 724 -12 l 856 38 q 747 -77 785 -19 q 708 -185 708 -135 q 765 -249 708 -249 q 805 -240 785 -249 q 851 -211 825 -231 l 857 -211 l 857 -254 q 799 -297 835 -281 q 722 -314 763 -314 z "},"Å":{"ha":974,"x_min":-21,"x_max":994,"o":"m 675 21 l 419 751 l 414 751 l 406 797 l 486 1063 l 525 1063 l 888 21 l 675 21 m -21 0 l -21 39 l 315 39 l 315 0 l -21 0 m 239 306 l 239 343 l 703 343 l 703 306 l 239 306 m 515 0 l 515 39 l 994 39 l 994 0 l 515 0 m 100 21 l 486 1063 l 525 1063 l 446 832 l 146 21 l 100 21 m 503 1143 q 421 1178 456 1143 q 386 1261 386 1213 q 421 1344 386 1310 q 504 1378 456 1378 q 587 1344 551 1378 q 622 1261 622 1311 q 588 1178 622 1213 q 503 1143 553 1143 m 504 1203 q 544 1221 528 1203 q 561 1261 561 1239 q 544 1301 561 1285 q 504 1318 526 1318 q 463 1301 481 1318 q 446 1261 446 1285 q 463 1221 446 1239 q 504 1203 481 1203 z "},"Ǻ":{"ha":974,"x_min":-21,"x_max":994,"o":"m 675 21 l 419 751 l 414 751 l 406 797 l 486 1063 l 525 1063 l 888 21 l 675 21 m -21 0 l -21 39 l 315 39 l 315 0 l -21 0 m 239 306 l 239 343 l 703 343 l 703 306 l 239 306 m 515 0 l 515 39 l 994 39 l 994 0 l 515 0 m 100 21 l 486 1063 l 525 1063 l 446 832 l 146 21 l 100 21 m 503 1143 q 421 1178 456 1143 q 386 1261 386 1213 q 421 1344 386 1310 q 504 1378 456 1378 q 587 1344 551 1378 q 622 1261 622 1311 q 588 1178 622 1213 q 503 1143 553 1143 m 504 1203 q 544 1221 528 1203 q 561 1261 561 1239 q 544 1301 561 1285 q 504 1318 526 1318 q 463 1301 481 1318 q 446 1261 446 1285 q 463 1221 446 1239 q 504 1203 481 1203 m 310 1468 l 526 1607 q 591 1644 569 1635 q 635 1654 613 1654 q 683 1637 667 1654 q 700 1593 700 1619 q 684 1547 700 1568 q 628 1517 668 1525 l 383 1468 l 310 1468 z "},"Ã":{"ha":974,"x_min":-21,"x_max":994,"o":"m 675 21 l 419 751 l 414 751 l 406 797 l 486 1063 l 525 1063 l 888 21 l 675 21 m -21 0 l -21 39 l 315 39 l 315 0 l -21 0 m 239 306 l 239 343 l 703 343 l 703 306 l 239 306 m 515 0 l 515 39 l 994 39 l 994 0 l 515 0 m 100 21 l 486 1063 l 525 1063 l 446 832 l 146 21 l 100 21 m 246 1172 q 276 1258 253 1217 q 337 1327 300 1300 q 424 1354 374 1354 q 492 1339 461 1354 q 553 1308 524 1324 q 614 1293 582 1293 q 684 1315 661 1293 q 715 1356 707 1336 l 763 1356 q 731 1269 753 1311 q 672 1200 708 1226 q 583 1174 636 1174 q 514 1189 544 1174 q 455 1219 483 1204 q 393 1235 426 1235 q 327 1217 354 1235 q 292 1172 300 1199 l 246 1172 z "},"Æ":{"ha":1513,"x_min":14,"x_max":1463,"o":"m 14 0 l 14 39 l 146 39 l 633 1010 l 503 1010 l 503 1047 l 1432 1047 l 1432 767 l 1379 767 q 1351 887 1378 832 q 1275 976 1324 942 q 1157 1010 1226 1010 l 931 1010 l 931 538 q 1068 557 1018 539 q 1140 616 1118 575 q 1163 724 1161 657 l 1214 724 l 1214 300 l 1163 300 q 1139 415 1161 372 q 1067 479 1117 458 q 931 500 1018 500 l 931 39 l 1178 39 q 1302 80 1251 39 q 1381 188 1353 121 q 1411 333 1410 254 l 1463 333 l 1463 0 l 579 0 l 579 39 l 728 39 l 728 325 l 344 325 l 200 39 l 353 39 l 353 0 l 14 0 m 364 364 l 728 364 l 728 1010 l 690 1010 l 364 364 z "},"Ǽ":{"ha":1513,"x_min":14,"x_max":1463,"o":"m 14 0 l 14 39 l 146 39 l 633 1010 l 503 1010 l 503 1047 l 1432 1047 l 1432 767 l 1379 767 q 1351 887 1378 832 q 1275 976 1324 942 q 1157 1010 1226 1010 l 931 1010 l 931 538 q 1068 557 1018 539 q 1140 616 1118 575 q 1163 724 1161 657 l 1214 724 l 1214 300 l 1163 300 q 1139 415 1161 372 q 1067 479 1117 458 q 931 500 1018 500 l 931 39 l 1178 39 q 1302 80 1251 39 q 1381 188 1353 121 q 1411 333 1410 254 l 1463 333 l 1463 0 l 579 0 l 579 39 l 728 39 l 728 325 l 344 325 l 200 39 l 353 39 l 353 0 l 14 0 m 364 364 l 728 364 l 728 1010 l 690 1010 l 364 364 m 757 1172 l 974 1311 q 1038 1349 1017 1339 q 1082 1358 1060 1358 q 1131 1341 1114 1358 q 1147 1297 1147 1324 q 1131 1251 1147 1272 q 1075 1221 1115 1229 l 831 1172 l 757 1172 z "},"B":{"ha":1010,"x_min":14,"x_max":938,"o":"m 14 0 l 14 39 l 506 39 q 614 58 569 39 q 683 133 658 78 q 707 289 707 188 q 685 430 707 379 q 613 501 664 481 q 474 521 561 521 l 432 565 q 693 535 579 565 q 872 442 807 506 q 938 276 938 379 q 888 127 938 189 q 753 33 839 65 q 561 0 668 0 l 14 0 m 160 21 l 160 1047 l 363 1047 l 363 21 l 160 21 m 303 521 l 303 565 l 506 565 q 605 583 567 565 q 661 649 643 601 q 679 786 679 696 q 661 928 679 881 q 604 993 643 976 q 506 1010 565 1010 l 14 1010 l 14 1047 l 561 1047 q 732 1017 656 1047 q 853 928 808 986 q 899 790 899 871 q 847 645 899 706 q 708 553 796 585 q 506 521 619 521 l 303 521 z "},"C":{"ha":971,"x_min":67,"x_max":906,"o":"m 560 -17 q 364 26 454 -17 q 208 144 274 69 q 104 317 142 219 q 67 521 67 414 q 104 725 67 628 q 208 898 142 822 q 366 1018 275 974 q 564 1063 457 1063 q 688 1042 633 1063 q 797 978 743 1021 l 854 1047 l 889 1047 l 889 731 l 851 731 q 801 875 836 810 q 708 978 767 940 q 561 1017 650 1017 q 460 997 506 1017 q 381 922 414 976 q 328 769 347 868 q 310 513 310 669 q 326 271 310 365 q 375 123 343 176 q 453 49 407 69 q 560 28 500 28 q 717 65 656 28 q 815 163 779 101 q 867 299 851 225 l 906 299 l 906 0 l 867 0 l 813 64 q 691 3 756 22 q 560 -17 626 -17 z "},"Ć":{"ha":971,"x_min":67,"x_max":906,"o":"m 560 -17 q 364 26 454 -17 q 208 144 274 69 q 104 317 142 219 q 67 521 67 414 q 104 725 67 628 q 208 898 142 822 q 366 1018 275 974 q 564 1063 457 1063 q 688 1042 633 1063 q 797 978 743 1021 l 854 1047 l 889 1047 l 889 731 l 851 731 q 801 875 836 810 q 708 978 767 940 q 561 1017 650 1017 q 460 997 506 1017 q 381 922 414 976 q 328 769 347 868 q 310 513 310 669 q 326 271 310 365 q 375 123 343 176 q 453 49 407 69 q 560 28 500 28 q 717 65 656 28 q 815 163 779 101 q 867 299 851 225 l 906 299 l 906 0 l 867 0 l 813 64 q 691 3 756 22 q 560 -17 626 -17 m 365 1172 l 582 1311 q 647 1349 625 1339 q 690 1358 668 1358 q 739 1341 722 1358 q 756 1297 756 1324 q 740 1251 756 1272 q 683 1221 724 1229 l 439 1172 l 365 1172 z "},"Č":{"ha":971,"x_min":67,"x_max":906,"o":"m 560 -17 q 364 26 454 -17 q 208 144 274 69 q 104 317 142 219 q 67 521 67 414 q 104 725 67 628 q 208 898 142 822 q 366 1018 275 974 q 564 1063 457 1063 q 688 1042 633 1063 q 797 978 743 1021 l 854 1047 l 889 1047 l 889 731 l 851 731 q 801 875 836 810 q 708 978 767 940 q 561 1017 650 1017 q 460 997 506 1017 q 381 922 414 976 q 328 769 347 868 q 310 513 310 669 q 326 271 310 365 q 375 123 343 176 q 453 49 407 69 q 560 28 500 28 q 717 65 656 28 q 815 163 779 101 q 867 299 851 225 l 906 299 l 906 0 l 867 0 l 813 64 q 691 3 756 22 q 560 -17 626 -17 m 518 1172 l 308 1358 l 375 1358 l 561 1286 l 747 1358 l 814 1358 l 604 1172 l 518 1172 z "},"Ç":{"ha":971,"x_min":67,"x_max":906,"o":"m 560 -17 q 364 26 454 -17 q 208 144 274 69 q 104 317 142 219 q 67 521 67 414 q 104 725 67 628 q 208 898 142 822 q 366 1018 275 974 q 564 1063 457 1063 q 688 1042 633 1063 q 797 978 743 1021 l 854 1047 l 889 1047 l 889 731 l 851 731 q 801 875 836 810 q 708 978 767 940 q 561 1017 650 1017 q 460 997 506 1017 q 381 922 414 976 q 328 769 347 868 q 310 513 310 669 q 326 271 310 365 q 375 123 343 176 q 453 49 407 69 q 560 28 500 28 q 717 65 656 28 q 815 163 779 101 q 867 299 851 225 l 906 299 l 906 0 l 867 0 l 813 64 q 691 3 756 22 q 560 -17 626 -17 m 518 -321 q 447 -312 476 -321 q 407 -297 418 -304 l 422 -257 q 456 -267 433 -262 q 500 -272 479 -272 q 561 -256 539 -272 q 583 -206 583 -239 q 476 -133 583 -135 l 526 13 l 579 13 l 546 -93 l 572 -93 q 673 -119 635 -93 q 711 -193 711 -144 q 658 -287 711 -253 q 518 -321 604 -321 z "},"Ĉ":{"ha":971,"x_min":67,"x_max":906,"o":"m 560 -17 q 364 26 454 -17 q 208 144 274 69 q 104 317 142 219 q 67 521 67 414 q 104 725 67 628 q 208 898 142 822 q 366 1018 275 974 q 564 1063 457 1063 q 688 1042 633 1063 q 797 978 743 1021 l 854 1047 l 889 1047 l 889 731 l 851 731 q 801 875 836 810 q 708 978 767 940 q 561 1017 650 1017 q 460 997 506 1017 q 381 922 414 976 q 328 769 347 868 q 310 513 310 669 q 326 271 310 365 q 375 123 343 176 q 453 49 407 69 q 560 28 500 28 q 717 65 656 28 q 815 163 779 101 q 867 299 851 225 l 906 299 l 906 0 l 867 0 l 813 64 q 691 3 756 22 q 560 -17 626 -17 m 308 1172 l 518 1358 l 604 1358 l 814 1172 l 747 1172 l 561 1243 l 375 1172 l 308 1172 z "},"Ċ":{"ha":971,"x_min":67,"x_max":906,"o":"m 560 -17 q 364 26 454 -17 q 208 144 274 69 q 104 317 142 219 q 67 521 67 414 q 104 725 67 628 q 208 898 142 822 q 366 1018 275 974 q 564 1063 457 1063 q 688 1042 633 1063 q 797 978 743 1021 l 854 1047 l 889 1047 l 889 731 l 851 731 q 801 875 836 810 q 708 978 767 940 q 561 1017 650 1017 q 460 997 506 1017 q 381 922 414 976 q 328 769 347 868 q 310 513 310 669 q 326 271 310 365 q 375 123 343 176 q 453 49 407 69 q 560 28 500 28 q 717 65 656 28 q 815 163 779 101 q 867 299 851 225 l 906 299 l 906 0 l 867 0 l 813 64 q 691 3 756 22 q 560 -17 626 -17 m 560 1147 q 489 1178 519 1147 q 458 1249 458 1208 q 489 1321 458 1290 q 560 1351 519 1351 q 632 1321 601 1351 q 663 1249 663 1290 q 632 1178 663 1208 q 560 1147 601 1147 z "},"D":{"ha":1094,"x_min":22,"x_max":1043,"o":"m 22 0 l 22 39 l 506 39 q 642 59 586 39 q 733 133 697 79 q 784 281 768 186 q 800 525 800 376 q 784 767 800 672 q 733 915 768 861 q 644 989 699 968 q 511 1010 589 1010 l 22 1010 l 22 1047 l 554 1047 q 745 1005 657 1047 q 901 890 833 963 q 1006 722 968 817 q 1043 526 1043 628 q 1005 328 1043 422 q 899 160 967 233 q 742 43 832 86 q 547 0 651 0 l 22 0 m 164 21 l 164 1047 l 367 1047 l 367 21 l 164 21 z "},"Ǳ":{"ha":1978,"x_min":22,"x_max":1944,"o":"m 22 0 l 22 39 l 506 39 q 642 59 586 39 q 733 133 697 79 q 784 281 768 186 q 800 525 800 376 q 784 767 800 672 q 733 915 768 861 q 644 989 699 968 q 511 1010 589 1010 l 22 1010 l 22 1047 l 554 1047 q 745 1005 657 1047 q 901 890 833 963 q 1006 722 968 817 q 1043 526 1043 628 q 1005 328 1043 422 q 899 160 967 233 q 742 43 832 86 q 547 0 651 0 l 22 0 m 164 21 l 164 1047 l 367 1047 l 367 21 l 164 21 m 1121 10 l 1121 50 l 1699 1004 l 1699 1013 l 1944 1021 l 1944 996 l 1364 46 l 1364 29 l 1121 10 m 1121 0 l 1121 40 l 1639 40 q 1771 82 1717 40 q 1855 192 1825 124 q 1886 340 1885 261 l 1938 340 l 1938 0 l 1121 0 m 1183 763 l 1183 1047 l 1944 1047 l 1944 1010 l 1476 1010 q 1348 976 1401 1010 q 1266 885 1294 942 q 1236 763 1238 829 l 1183 763 z "},"Ǆ":{"ha":1978,"x_min":22,"x_max":1944,"o":"m 22 0 l 22 39 l 506 39 q 642 59 586 39 q 733 133 697 79 q 784 281 768 186 q 800 525 800 376 q 784 767 800 672 q 733 915 768 861 q 644 989 699 968 q 511 1010 589 1010 l 22 1010 l 22 1047 l 554 1047 q 745 1005 657 1047 q 901 890 833 963 q 1006 722 968 817 q 1043 526 1043 628 q 1005 328 1043 422 q 899 160 967 233 q 742 43 832 86 q 547 0 651 0 l 22 0 m 164 21 l 164 1047 l 367 1047 l 367 21 l 164 21 m 1121 10 l 1121 50 l 1699 1004 l 1699 1013 l 1944 1021 l 1944 996 l 1364 46 l 1364 29 l 1121 10 m 1121 0 l 1121 40 l 1639 40 q 1771 82 1717 40 q 1855 192 1825 124 q 1886 340 1885 261 l 1938 340 l 1938 0 l 1121 0 m 1183 763 l 1183 1047 l 1944 1047 l 1944 1010 l 1476 1010 q 1348 976 1401 1010 q 1266 885 1294 942 q 1236 763 1238 829 l 1183 763 m 1493 1172 l 1283 1358 l 1350 1358 l 1536 1286 l 1722 1358 l 1789 1358 l 1579 1172 l 1493 1172 z "},"Ð":{"ha":1094,"x_min":-8,"x_max":1043,"o":"m 22 0 l 22 39 l 506 39 q 642 59 586 39 q 733 133 697 79 q 784 281 768 186 q 800 525 800 376 q 784 767 800 672 q 733 915 768 861 q 644 989 699 968 q 511 1010 589 1010 l 22 1010 l 22 1047 l 554 1047 q 745 1005 657 1047 q 901 890 833 963 q 1006 722 968 817 q 1043 526 1043 628 q 1005 328 1043 422 q 899 160 967 233 q 742 43 832 86 q 547 0 651 0 l 22 0 m 164 21 l 164 1047 l 367 1047 l 367 21 l 164 21 m -8 518 l -8 575 l 519 575 l 519 518 l -8 518 z "},"Ď":{"ha":1094,"x_min":22,"x_max":1043,"o":"m 22 0 l 22 39 l 506 39 q 642 59 586 39 q 733 133 697 79 q 784 281 768 186 q 800 525 800 376 q 784 767 800 672 q 733 915 768 861 q 644 989 699 968 q 511 1010 589 1010 l 22 1010 l 22 1047 l 554 1047 q 745 1005 657 1047 q 901 890 833 963 q 1006 722 968 817 q 1043 526 1043 628 q 1005 328 1043 422 q 899 160 967 233 q 742 43 832 86 q 547 0 651 0 l 22 0 m 164 21 l 164 1047 l 367 1047 l 367 21 l 164 21 m 504 1172 l 294 1358 l 361 1358 l 547 1286 l 733 1358 l 800 1358 l 590 1172 l 504 1172 z "},"Đ":{"ha":1094,"x_min":-8,"x_max":1043,"o":"m 22 0 l 22 39 l 506 39 q 642 59 586 39 q 733 133 697 79 q 784 281 768 186 q 800 525 800 376 q 784 767 800 672 q 733 915 768 861 q 644 989 699 968 q 511 1010 589 1010 l 22 1010 l 22 1047 l 554 1047 q 745 1005 657 1047 q 901 890 833 963 q 1006 722 968 817 q 1043 526 1043 628 q 1005 328 1043 422 q 899 160 967 233 q 742 43 832 86 q 547 0 651 0 l 22 0 m 164 21 l 164 1047 l 367 1047 l 367 21 l 164 21 m -8 518 l -8 575 l 519 575 l 519 518 l -8 518 z "},"Ḍ":{"ha":1094,"x_min":22,"x_max":1043,"o":"m 22 0 l 22 39 l 506 39 q 642 59 586 39 q 733 133 697 79 q 784 281 768 186 q 800 525 800 376 q 784 767 800 672 q 733 915 768 861 q 644 989 699 968 q 511 1010 589 1010 l 22 1010 l 22 1047 l 554 1047 q 745 1005 657 1047 q 901 890 833 963 q 1006 722 968 817 q 1043 526 1043 628 q 1005 328 1043 422 q 899 160 967 233 q 742 43 832 86 q 547 0 651 0 l 22 0 m 164 21 l 164 1047 l 367 1047 l 367 21 l 164 21 m 547 -340 q 476 -310 507 -340 q 446 -239 446 -281 q 476 -167 446 -197 q 547 -137 507 -137 q 619 -167 589 -137 q 650 -239 650 -197 q 619 -310 650 -281 q 547 -340 589 -340 z "},"ǲ":{"ha":1758,"x_min":22,"x_max":1699,"o":"m 22 0 l 22 39 l 506 39 q 642 59 586 39 q 733 133 697 79 q 784 281 768 186 q 800 525 800 376 q 784 767 800 672 q 733 915 768 861 q 644 989 699 968 q 511 1010 589 1010 l 22 1010 l 22 1047 l 554 1047 q 745 1005 657 1047 q 901 890 833 963 q 1006 722 968 817 q 1043 526 1043 628 q 1005 328 1043 422 q 899 160 967 233 q 742 43 832 86 q 547 0 651 0 l 22 0 m 164 21 l 164 1047 l 367 1047 l 367 21 l 164 21 m 1149 21 l 1144 49 l 1524 613 l 1678 613 l 1697 576 l 1328 21 l 1149 21 m 1144 0 l 1144 49 l 1156 39 l 1469 39 q 1601 88 1547 39 q 1660 235 1656 136 l 1661 257 l 1700 257 l 1700 0 l 1144 0 m 1182 382 l 1182 625 l 1697 625 l 1697 578 l 1686 588 l 1411 588 q 1309 559 1351 588 q 1244 484 1267 531 q 1219 382 1221 438 l 1182 382 z "},"ǅ":{"ha":1758,"x_min":22,"x_max":1699,"o":"m 22 0 l 22 39 l 506 39 q 642 59 586 39 q 733 133 697 79 q 784 281 768 186 q 800 525 800 376 q 784 767 800 672 q 733 915 768 861 q 644 989 699 968 q 511 1010 589 1010 l 22 1010 l 22 1047 l 554 1047 q 745 1005 657 1047 q 901 890 833 963 q 1006 722 968 817 q 1043 526 1043 628 q 1005 328 1043 422 q 899 160 967 233 q 742 43 832 86 q 547 0 651 0 l 22 0 m 164 21 l 164 1047 l 367 1047 l 367 21 l 164 21 m 1149 21 l 1144 49 l 1524 613 l 1678 613 l 1697 576 l 1328 21 l 1149 21 m 1144 0 l 1144 49 l 1156 39 l 1469 39 q 1601 88 1547 39 q 1660 235 1656 136 l 1661 257 l 1700 257 l 1700 0 l 1144 0 m 1182 382 l 1182 625 l 1697 625 l 1697 578 l 1686 588 l 1411 588 q 1309 559 1351 588 q 1244 484 1267 531 q 1219 382 1221 438 l 1182 382 m 1383 728 l 1188 1006 l 1247 1006 l 1426 872 l 1606 1006 l 1665 1006 l 1469 728 l 1383 728 z "},"E":{"ha":964,"x_min":19,"x_max":903,"o":"m 19 0 l 19 39 l 618 39 q 742 80 692 39 q 822 188 793 121 q 851 333 850 254 l 903 333 l 903 0 l 19 0 m 168 21 l 168 1040 l 371 1040 l 371 21 l 168 21 m 603 300 q 579 416 601 372 q 506 480 557 460 q 365 500 454 500 l 365 538 q 506 556 454 538 q 580 615 558 574 q 603 724 601 656 l 654 724 l 654 300 l 603 300 m 819 767 q 791 887 818 832 q 715 976 764 942 q 597 1010 667 1010 l 19 1010 l 19 1047 l 872 1047 l 872 767 l 819 767 z "},"É":{"ha":964,"x_min":19,"x_max":903,"o":"m 19 0 l 19 39 l 618 39 q 742 80 692 39 q 822 188 793 121 q 851 333 850 254 l 903 333 l 903 0 l 19 0 m 168 21 l 168 1040 l 371 1040 l 371 21 l 168 21 m 603 300 q 579 416 601 372 q 506 480 557 460 q 365 500 454 500 l 365 538 q 506 556 454 538 q 580 615 558 574 q 603 724 601 656 l 654 724 l 654 300 l 603 300 m 819 767 q 791 887 818 832 q 715 976 764 942 q 597 1010 667 1010 l 19 1010 l 19 1047 l 872 1047 l 872 767 l 819 767 m 288 1172 l 504 1311 q 569 1349 547 1339 q 613 1358 590 1358 q 661 1341 644 1358 q 678 1297 678 1324 q 662 1251 678 1272 q 606 1221 646 1229 l 361 1172 l 288 1172 z "},"Ĕ":{"ha":964,"x_min":19,"x_max":903,"o":"m 19 0 l 19 39 l 618 39 q 742 80 692 39 q 822 188 793 121 q 851 333 850 254 l 903 333 l 903 0 l 19 0 m 168 21 l 168 1040 l 371 1040 l 371 21 l 168 21 m 603 300 q 579 416 601 372 q 506 480 557 460 q 365 500 454 500 l 365 538 q 506 556 454 538 q 580 615 558 574 q 603 724 601 656 l 654 724 l 654 300 l 603 300 m 819 767 q 791 887 818 832 q 715 976 764 942 q 597 1010 667 1010 l 19 1010 l 19 1047 l 872 1047 l 872 767 l 819 767 m 482 1172 q 315 1223 372 1172 q 257 1358 257 1274 l 311 1358 q 360 1301 314 1318 q 479 1283 407 1283 q 601 1302 553 1283 q 651 1358 649 1321 l 706 1358 q 651 1225 706 1278 q 482 1172 597 1172 z "},"Ě":{"ha":964,"x_min":19,"x_max":903,"o":"m 19 0 l 19 39 l 618 39 q 742 80 692 39 q 822 188 793 121 q 851 333 850 254 l 903 333 l 903 0 l 19 0 m 168 21 l 168 1040 l 371 1040 l 371 21 l 168 21 m 603 300 q 579 416 601 372 q 506 480 557 460 q 365 500 454 500 l 365 538 q 506 556 454 538 q 580 615 558 574 q 603 724 601 656 l 654 724 l 654 300 l 603 300 m 819 767 q 791 887 818 832 q 715 976 764 942 q 597 1010 667 1010 l 19 1010 l 19 1047 l 872 1047 l 872 767 l 819 767 m 439 1172 l 229 1358 l 296 1358 l 482 1286 l 668 1358 l 735 1358 l 525 1172 l 439 1172 z "},"Ê":{"ha":964,"x_min":19,"x_max":903,"o":"m 19 0 l 19 39 l 618 39 q 742 80 692 39 q 822 188 793 121 q 851 333 850 254 l 903 333 l 903 0 l 19 0 m 168 21 l 168 1040 l 371 1040 l 371 21 l 168 21 m 603 300 q 579 416 601 372 q 506 480 557 460 q 365 500 454 500 l 365 538 q 506 556 454 538 q 580 615 558 574 q 603 724 601 656 l 654 724 l 654 300 l 603 300 m 819 767 q 791 887 818 832 q 715 976 764 942 q 597 1010 667 1010 l 19 1010 l 19 1047 l 872 1047 l 872 767 l 819 767 m 229 1172 l 439 1358 l 525 1358 l 735 1172 l 668 1172 l 482 1243 l 296 1172 l 229 1172 z "},"Ế":{"ha":964,"x_min":19,"x_max":903,"o":"m 19 0 l 19 39 l 618 39 q 742 80 692 39 q 822 188 793 121 q 851 333 850 254 l 903 333 l 903 0 l 19 0 m 168 21 l 168 1040 l 371 1040 l 371 21 l 168 21 m 603 300 q 579 416 601 372 q 506 480 557 460 q 365 500 454 500 l 365 538 q 506 556 454 538 q 580 615 558 574 q 603 724 601 656 l 654 724 l 654 300 l 603 300 m 819 767 q 791 887 818 832 q 715 976 764 942 q 597 1010 667 1010 l 19 1010 l 19 1047 l 872 1047 l 872 767 l 819 767 m 257 1150 l 439 1308 l 525 1308 l 707 1150 l 640 1150 l 482 1214 l 324 1150 l 257 1150 m 288 1346 l 504 1485 q 567 1522 546 1513 q 611 1532 589 1532 q 660 1515 643 1532 q 676 1471 676 1497 q 661 1424 676 1446 q 606 1394 646 1403 l 361 1346 l 288 1346 z "},"Ệ":{"ha":964,"x_min":19,"x_max":903,"o":"m 19 0 l 19 39 l 618 39 q 742 80 692 39 q 822 188 793 121 q 851 333 850 254 l 903 333 l 903 0 l 19 0 m 168 21 l 168 1040 l 371 1040 l 371 21 l 168 21 m 603 300 q 579 416 601 372 q 506 480 557 460 q 365 500 454 500 l 365 538 q 506 556 454 538 q 580 615 558 574 q 603 724 601 656 l 654 724 l 654 300 l 603 300 m 819 767 q 791 887 818 832 q 715 976 764 942 q 597 1010 667 1010 l 19 1010 l 19 1047 l 872 1047 l 872 767 l 819 767 m 482 -340 q 411 -310 442 -340 q 381 -239 381 -281 q 411 -167 381 -197 q 482 -137 442 -137 q 554 -167 524 -137 q 585 -239 585 -197 q 554 -310 585 -281 q 482 -340 524 -340 m 229 1172 l 439 1358 l 525 1358 l 735 1172 l 668 1172 l 482 1243 l 296 1172 l 229 1172 z "},"Ề":{"ha":964,"x_min":19,"x_max":903,"o":"m 19 0 l 19 39 l 618 39 q 742 80 692 39 q 822 188 793 121 q 851 333 850 254 l 903 333 l 903 0 l 19 0 m 168 21 l 168 1040 l 371 1040 l 371 21 l 168 21 m 603 300 q 579 416 601 372 q 506 480 557 460 q 365 500 454 500 l 365 538 q 506 556 454 538 q 580 615 558 574 q 603 724 601 656 l 654 724 l 654 300 l 603 300 m 819 767 q 791 887 818 832 q 715 976 764 942 q 597 1010 667 1010 l 19 1010 l 19 1047 l 872 1047 l 872 767 l 819 767 m 257 1150 l 439 1308 l 525 1308 l 707 1150 l 640 1150 l 482 1214 l 324 1150 l 257 1150 m 603 1347 l 358 1396 q 303 1426 318 1404 q 288 1472 288 1447 q 304 1516 288 1499 q 353 1533 321 1533 q 397 1524 375 1533 q 460 1486 418 1514 l 676 1347 l 603 1347 z "},"Ể":{"ha":964,"x_min":19,"x_max":903,"o":"m 19 0 l 19 39 l 618 39 q 742 80 692 39 q 822 188 793 121 q 851 333 850 254 l 903 333 l 903 0 l 19 0 m 168 21 l 168 1040 l 371 1040 l 371 21 l 168 21 m 603 300 q 579 416 601 372 q 506 480 557 460 q 365 500 454 500 l 365 538 q 506 556 454 538 q 580 615 558 574 q 603 724 601 656 l 654 724 l 654 300 l 603 300 m 819 767 q 791 887 818 832 q 715 976 764 942 q 597 1010 667 1010 l 19 1010 l 19 1047 l 872 1047 l 872 767 l 819 767 m 257 1150 l 439 1308 l 525 1308 l 707 1150 l 640 1150 l 482 1214 l 324 1150 l 257 1150 m 656 1307 q 665 1353 656 1335 q 686 1383 674 1371 q 708 1406 699 1396 q 717 1429 717 1417 q 700 1481 717 1467 q 657 1494 683 1494 q 616 1482 632 1494 q 600 1454 600 1469 q 606 1438 600 1442 q 618 1429 613 1435 q 624 1407 624 1424 q 609 1382 624 1390 q 575 1374 594 1374 q 533 1390 550 1374 q 517 1432 517 1407 q 536 1502 517 1476 q 588 1540 556 1528 q 656 1551 619 1551 q 763 1522 725 1551 q 800 1425 800 1492 q 786 1384 800 1399 q 753 1360 772 1369 q 719 1339 735 1350 q 701 1307 704 1328 l 656 1307 z "},"Ễ":{"ha":964,"x_min":19,"x_max":903,"o":"m 19 0 l 19 39 l 618 39 q 742 80 692 39 q 822 188 793 121 q 851 333 850 254 l 903 333 l 903 0 l 19 0 m 168 21 l 168 1040 l 371 1040 l 371 21 l 168 21 m 603 300 q 579 416 601 372 q 506 480 557 460 q 365 500 454 500 l 365 538 q 506 556 454 538 q 580 615 558 574 q 603 724 601 656 l 654 724 l 654 300 l 603 300 m 819 767 q 791 887 818 832 q 715 976 764 942 q 597 1010 667 1010 l 19 1010 l 19 1047 l 872 1047 l 872 767 l 819 767 m 257 1146 l 439 1304 l 525 1304 l 707 1146 l 640 1146 l 482 1210 l 324 1146 l 257 1146 m 224 1382 q 254 1468 231 1426 q 315 1537 278 1510 q 401 1564 351 1564 q 470 1549 439 1564 q 531 1518 501 1533 q 592 1503 560 1503 q 662 1524 639 1503 q 693 1567 685 1546 l 740 1567 q 708 1479 731 1521 q 650 1410 686 1438 q 561 1383 614 1383 q 492 1399 522 1383 q 433 1429 461 1414 q 371 1444 404 1444 q 305 1427 332 1444 q 269 1382 278 1410 l 224 1382 z "},"Ȅ":{"ha":964,"x_min":19,"x_max":903,"o":"m 19 0 l 19 39 l 618 39 q 742 80 692 39 q 822 188 793 121 q 851 333 850 254 l 903 333 l 903 0 l 19 0 m 168 21 l 168 1040 l 371 1040 l 371 21 l 168 21 m 603 300 q 579 416 601 372 q 506 480 557 460 q 365 500 454 500 l 365 538 q 506 556 454 538 q 580 615 558 574 q 603 724 601 656 l 654 724 l 654 300 l 603 300 m 819 767 q 791 887 818 832 q 715 976 764 942 q 597 1010 667 1010 l 19 1010 l 19 1047 l 872 1047 l 872 767 l 819 767 m 729 1172 l 513 1221 q 456 1251 472 1231 q 440 1297 440 1272 q 457 1341 440 1324 q 506 1358 474 1358 q 549 1348 529 1358 q 608 1308 568 1338 l 803 1172 l 729 1172 m 451 1172 l 235 1221 q 178 1251 194 1231 q 163 1297 163 1272 q 179 1341 163 1324 q 228 1358 196 1358 q 271 1348 251 1358 q 331 1308 290 1338 l 525 1172 l 451 1172 z "},"Ë":{"ha":964,"x_min":19,"x_max":903,"o":"m 19 0 l 19 39 l 618 39 q 742 80 692 39 q 822 188 793 121 q 851 333 850 254 l 903 333 l 903 0 l 19 0 m 168 21 l 168 1040 l 371 1040 l 371 21 l 168 21 m 603 300 q 579 416 601 372 q 506 480 557 460 q 365 500 454 500 l 365 538 q 506 556 454 538 q 580 615 558 574 q 603 724 601 656 l 654 724 l 654 300 l 603 300 m 819 767 q 791 887 818 832 q 715 976 764 942 q 597 1010 667 1010 l 19 1010 l 19 1047 l 872 1047 l 872 767 l 819 767 m 624 1153 q 560 1179 588 1153 q 533 1243 533 1206 q 560 1306 533 1279 q 624 1333 588 1333 q 688 1306 661 1333 q 715 1243 715 1279 q 688 1179 715 1206 q 624 1153 661 1153 m 340 1153 q 276 1179 303 1153 q 250 1243 250 1206 q 276 1306 250 1279 q 340 1333 303 1333 q 403 1306 376 1333 q 431 1243 431 1279 q 403 1179 431 1206 q 340 1153 376 1153 z "},"Ė":{"ha":964,"x_min":19,"x_max":903,"o":"m 19 0 l 19 39 l 618 39 q 742 80 692 39 q 822 188 793 121 q 851 333 850 254 l 903 333 l 903 0 l 19 0 m 168 21 l 168 1040 l 371 1040 l 371 21 l 168 21 m 603 300 q 579 416 601 372 q 506 480 557 460 q 365 500 454 500 l 365 538 q 506 556 454 538 q 580 615 558 574 q 603 724 601 656 l 654 724 l 654 300 l 603 300 m 819 767 q 791 887 818 832 q 715 976 764 942 q 597 1010 667 1010 l 19 1010 l 19 1047 l 872 1047 l 872 767 l 819 767 m 482 1147 q 411 1178 442 1147 q 381 1249 381 1208 q 411 1321 381 1290 q 482 1351 442 1351 q 554 1321 524 1351 q 585 1249 585 1290 q 554 1178 585 1208 q 482 1147 524 1147 z "},"Ẹ":{"ha":964,"x_min":19,"x_max":903,"o":"m 19 0 l 19 39 l 618 39 q 742 80 692 39 q 822 188 793 121 q 851 333 850 254 l 903 333 l 903 0 l 19 0 m 168 21 l 168 1040 l 371 1040 l 371 21 l 168 21 m 603 300 q 579 416 601 372 q 506 480 557 460 q 365 500 454 500 l 365 538 q 506 556 454 538 q 580 615 558 574 q 603 724 601 656 l 654 724 l 654 300 l 603 300 m 819 767 q 791 887 818 832 q 715 976 764 942 q 597 1010 667 1010 l 19 1010 l 19 1047 l 872 1047 l 872 767 l 819 767 m 482 -340 q 411 -310 442 -340 q 381 -239 381 -281 q 411 -167 381 -197 q 482 -137 442 -137 q 554 -167 524 -137 q 585 -239 585 -197 q 554 -310 585 -281 q 482 -340 524 -340 z "},"È":{"ha":964,"x_min":19,"x_max":903,"o":"m 19 0 l 19 39 l 618 39 q 742 80 692 39 q 822 188 793 121 q 851 333 850 254 l 903 333 l 903 0 l 19 0 m 168 21 l 168 1040 l 371 1040 l 371 21 l 168 21 m 603 300 q 579 416 601 372 q 506 480 557 460 q 365 500 454 500 l 365 538 q 506 556 454 538 q 580 615 558 574 q 603 724 601 656 l 654 724 l 654 300 l 603 300 m 819 767 q 791 887 818 832 q 715 976 764 942 q 597 1010 667 1010 l 19 1010 l 19 1047 l 872 1047 l 872 767 l 819 767 m 604 1172 l 360 1221 q 303 1251 319 1229 q 288 1297 288 1272 q 304 1341 288 1324 q 353 1358 321 1358 q 397 1349 376 1358 q 461 1311 418 1339 l 678 1172 l 604 1172 z "},"Ẻ":{"ha":964,"x_min":19,"x_max":903,"o":"m 19 0 l 19 39 l 618 39 q 742 80 692 39 q 822 188 793 121 q 851 333 850 254 l 903 333 l 903 0 l 19 0 m 168 21 l 168 1040 l 371 1040 l 371 21 l 168 21 m 603 300 q 579 416 601 372 q 506 480 557 460 q 365 500 454 500 l 365 538 q 506 556 454 538 q 580 615 558 574 q 603 724 601 656 l 654 724 l 654 300 l 603 300 m 819 767 q 791 887 818 832 q 715 976 764 942 q 597 1010 667 1010 l 19 1010 l 19 1047 l 872 1047 l 872 767 l 819 767 m 479 1135 q 488 1180 479 1163 q 510 1210 497 1197 q 531 1237 522 1224 q 540 1268 540 1250 q 524 1308 540 1296 q 481 1321 507 1321 q 440 1309 456 1321 q 424 1282 424 1297 q 430 1265 424 1269 q 442 1256 436 1261 q 447 1235 447 1250 q 433 1210 447 1218 q 399 1201 418 1201 q 357 1217 374 1201 q 340 1260 340 1233 q 360 1329 340 1303 q 412 1367 381 1356 q 479 1379 443 1379 q 586 1351 549 1379 q 624 1271 624 1324 q 610 1218 624 1236 q 577 1189 596 1200 q 543 1166 558 1178 q 525 1135 528 1154 l 479 1135 z "},"Ȇ":{"ha":964,"x_min":19,"x_max":903,"o":"m 19 0 l 19 39 l 618 39 q 742 80 692 39 q 822 188 793 121 q 851 333 850 254 l 903 333 l 903 0 l 19 0 m 168 21 l 168 1040 l 371 1040 l 371 21 l 168 21 m 603 300 q 579 416 601 372 q 506 480 557 460 q 365 500 454 500 l 365 538 q 506 556 454 538 q 580 615 558 574 q 603 724 601 656 l 654 724 l 654 300 l 603 300 m 819 767 q 791 887 818 832 q 715 976 764 942 q 597 1010 667 1010 l 19 1010 l 19 1047 l 872 1047 l 872 767 l 819 767 m 257 1172 q 315 1308 257 1257 q 482 1358 372 1358 q 651 1306 597 1358 q 706 1172 706 1253 l 651 1172 q 601 1228 649 1210 q 479 1247 553 1247 q 360 1230 407 1247 q 311 1172 314 1213 l 257 1172 z "},"Ē":{"ha":964,"x_min":19,"x_max":903,"o":"m 19 0 l 19 39 l 618 39 q 742 80 692 39 q 822 188 793 121 q 851 333 850 254 l 903 333 l 903 0 l 19 0 m 168 21 l 168 1040 l 371 1040 l 371 21 l 168 21 m 603 300 q 579 416 601 372 q 506 480 557 460 q 365 500 454 500 l 365 538 q 506 556 454 538 q 580 615 558 574 q 603 724 601 656 l 654 724 l 654 300 l 603 300 m 819 767 q 791 887 818 832 q 715 976 764 942 q 597 1010 667 1010 l 19 1010 l 19 1047 l 872 1047 l 872 767 l 819 767 m 258 1182 l 258 1288 l 717 1288 l 717 1182 l 258 1182 z "},"Ę":{"ha":964,"x_min":19,"x_max":903,"o":"m 19 0 l 19 39 l 618 39 q 742 80 692 39 q 822 188 793 121 q 851 333 850 254 l 903 333 l 903 0 l 19 0 m 168 21 l 168 1040 l 371 1040 l 371 21 l 168 21 m 603 300 q 579 416 601 372 q 506 480 557 460 q 365 500 454 500 l 365 538 q 506 556 454 538 q 580 615 558 574 q 603 724 601 656 l 654 724 l 654 300 l 603 300 m 819 767 q 791 887 818 832 q 715 976 764 942 q 597 1010 667 1010 l 19 1010 l 19 1047 l 872 1047 l 872 767 l 819 767 m 732 -337 q 642 -306 676 -337 q 607 -222 607 -274 q 626 -151 607 -186 q 690 -76 646 -117 q 808 14 733 -36 l 865 14 q 756 -101 794 -43 q 718 -208 718 -158 q 775 -272 718 -272 q 815 -263 794 -272 q 861 -235 835 -254 l 867 -235 l 867 -278 q 808 -321 844 -304 q 732 -337 772 -337 z "},"Ẽ":{"ha":964,"x_min":19,"x_max":903,"o":"m 19 0 l 19 39 l 618 39 q 742 80 692 39 q 822 188 793 121 q 851 333 850 254 l 903 333 l 903 0 l 19 0 m 168 21 l 168 1040 l 371 1040 l 371 21 l 168 21 m 603 300 q 579 416 601 372 q 506 480 557 460 q 365 500 454 500 l 365 538 q 506 556 454 538 q 580 615 558 574 q 603 724 601 656 l 654 724 l 654 300 l 603 300 m 819 767 q 791 887 818 832 q 715 976 764 942 q 597 1010 667 1010 l 19 1010 l 19 1047 l 872 1047 l 872 767 l 819 767 m 224 1172 q 254 1258 231 1217 q 315 1327 278 1300 q 401 1354 351 1354 q 470 1339 439 1354 q 531 1308 501 1324 q 592 1293 560 1293 q 662 1315 639 1293 q 693 1356 685 1336 l 740 1356 q 708 1269 731 1311 q 650 1200 686 1226 q 561 1174 614 1174 q 492 1189 522 1174 q 433 1219 461 1204 q 371 1235 404 1235 q 305 1217 332 1235 q 269 1172 278 1199 l 224 1172 z "},"Ə":{"ha":1075,"x_min":64,"x_max":1026,"o":"m 529 -18 q 353 15 438 -18 q 205 111 269 49 q 102 263 140 174 q 64 463 64 351 l 64 481 l 833 481 l 833 429 l 304 429 l 304 254 q 361 83 304 139 q 533 26 418 26 q 646 48 599 26 q 724 123 693 69 q 770 273 756 176 q 785 519 785 369 q 760 813 785 704 q 681 968 736 921 q 533 1015 626 1015 q 364 977 443 1015 q 226 872 285 939 q 136 713 167 804 l 85 713 q 183 896 115 818 q 340 1017 250 974 q 529 1061 431 1061 q 724 1017 633 1061 q 883 899 814 974 q 989 727 951 824 q 1026 525 1026 631 q 991 328 1026 425 q 890 153 956 232 q 734 28 825 75 q 529 -18 643 -18 z "},"F":{"ha":944,"x_min":22,"x_max":881,"o":"m 829 728 q 801 867 828 804 q 725 970 774 931 q 606 1010 676 1010 l 22 1010 l 22 1047 l 881 1047 l 881 728 l 829 728 m 22 0 l 22 39 l 538 39 l 538 0 l 22 0 m 169 21 l 169 1047 l 372 1047 l 372 21 l 169 21 m 604 300 q 581 416 603 372 q 508 479 558 460 q 368 499 457 499 l 368 538 q 508 556 457 538 q 582 615 560 574 q 604 724 604 656 l 657 724 l 657 300 l 604 300 z "},"G":{"ha":1061,"x_min":67,"x_max":1043,"o":"m 540 -17 q 349 26 436 -17 q 199 142 263 68 q 101 312 136 217 q 67 513 67 407 q 105 724 67 624 q 211 899 143 824 q 372 1019 279 975 q 571 1063 464 1063 q 691 1042 638 1063 q 800 978 744 1022 l 857 1047 l 896 1047 l 896 726 l 857 726 q 811 868 844 801 q 719 976 778 935 q 565 1017 660 1017 q 463 996 510 1017 q 382 920 417 975 q 328 764 347 865 q 310 503 310 663 q 325 269 310 361 q 369 124 340 176 q 441 51 399 72 q 538 31 483 31 q 672 75 625 31 q 719 199 719 119 l 719 393 l 949 393 l 949 299 q 878 133 938 204 q 729 23 818 63 q 540 -17 640 -17 m 567 374 l 567 413 l 1043 413 l 1043 374 l 567 374 z "},"Ǵ":{"ha":1061,"x_min":67,"x_max":1043,"o":"m 540 -17 q 349 26 436 -17 q 199 142 263 68 q 101 312 136 217 q 67 513 67 407 q 105 724 67 624 q 211 899 143 824 q 372 1019 279 975 q 571 1063 464 1063 q 691 1042 638 1063 q 800 978 744 1022 l 857 1047 l 896 1047 l 896 726 l 857 726 q 811 868 844 801 q 719 976 778 935 q 565 1017 660 1017 q 463 996 510 1017 q 382 920 417 975 q 328 764 347 865 q 310 503 310 663 q 325 269 310 361 q 369 124 340 176 q 441 51 399 72 q 538 31 483 31 q 672 75 625 31 q 719 199 719 119 l 719 393 l 949 393 l 949 299 q 878 133 938 204 q 729 23 818 63 q 540 -17 640 -17 m 567 374 l 567 413 l 1043 413 l 1043 374 l 567 374 m 336 1172 l 553 1311 q 617 1349 596 1339 q 661 1358 639 1358 q 710 1341 693 1358 q 726 1297 726 1324 q 710 1251 726 1272 q 654 1221 694 1229 l 410 1172 l 336 1172 z "},"Ğ":{"ha":1061,"x_min":67,"x_max":1043,"o":"m 540 -17 q 349 26 436 -17 q 199 142 263 68 q 101 312 136 217 q 67 513 67 407 q 105 724 67 624 q 211 899 143 824 q 372 1019 279 975 q 571 1063 464 1063 q 691 1042 638 1063 q 800 978 744 1022 l 857 1047 l 896 1047 l 896 726 l 857 726 q 811 868 844 801 q 719 976 778 935 q 565 1017 660 1017 q 463 996 510 1017 q 382 920 417 975 q 328 764 347 865 q 310 503 310 663 q 325 269 310 361 q 369 124 340 176 q 441 51 399 72 q 538 31 483 31 q 672 75 625 31 q 719 199 719 119 l 719 393 l 949 393 l 949 299 q 878 133 938 204 q 729 23 818 63 q 540 -17 640 -17 m 567 374 l 567 413 l 1043 413 l 1043 374 l 567 374 m 531 1172 q 363 1223 421 1172 q 306 1358 306 1274 l 360 1358 q 409 1301 363 1318 q 528 1283 456 1283 q 649 1302 601 1283 q 700 1358 697 1321 l 754 1358 q 700 1225 754 1278 q 531 1172 646 1172 z "},"Ĝ":{"ha":1061,"x_min":67,"x_max":1043,"o":"m 540 -17 q 349 26 436 -17 q 199 142 263 68 q 101 312 136 217 q 67 513 67 407 q 105 724 67 624 q 211 899 143 824 q 372 1019 279 975 q 571 1063 464 1063 q 691 1042 638 1063 q 800 978 744 1022 l 857 1047 l 896 1047 l 896 726 l 857 726 q 811 868 844 801 q 719 976 778 935 q 565 1017 660 1017 q 463 996 510 1017 q 382 920 417 975 q 328 764 347 865 q 310 503 310 663 q 325 269 310 361 q 369 124 340 176 q 441 51 399 72 q 538 31 483 31 q 672 75 625 31 q 719 199 719 119 l 719 393 l 949 393 l 949 299 q 878 133 938 204 q 729 23 818 63 q 540 -17 640 -17 m 567 374 l 567 413 l 1043 413 l 1043 374 l 567 374 m 278 1172 l 488 1358 l 574 1358 l 783 1172 l 717 1172 l 531 1243 l 344 1172 l 278 1172 z "},"Ģ":{"ha":1061,"x_min":67,"x_max":1043,"o":"m 540 -17 q 349 26 436 -17 q 199 142 263 68 q 101 312 136 217 q 67 513 67 407 q 105 724 67 624 q 211 899 143 824 q 372 1019 279 975 q 571 1063 464 1063 q 691 1042 638 1063 q 800 978 744 1022 l 857 1047 l 896 1047 l 896 726 l 857 726 q 811 868 844 801 q 719 976 778 935 q 565 1017 660 1017 q 463 996 510 1017 q 382 920 417 975 q 328 764 347 865 q 310 503 310 663 q 325 269 310 361 q 369 124 340 176 q 441 51 399 72 q 538 31 483 31 q 672 75 625 31 q 719 199 719 119 l 719 393 l 949 393 l 949 299 q 878 133 938 204 q 729 23 818 63 q 540 -17 640 -17 m 567 374 l 567 413 l 1043 413 l 1043 374 l 567 374 m 483 -432 l 456 -401 q 559 -328 528 -362 q 590 -256 590 -294 q 586 -237 590 -242 q 576 -232 582 -232 q 560 -242 569 -232 q 535 -263 550 -253 q 494 -274 519 -274 q 442 -251 463 -274 q 421 -193 421 -228 q 449 -128 421 -153 q 521 -103 476 -103 q 610 -142 578 -103 q 642 -240 642 -182 q 601 -348 642 -303 q 483 -432 561 -393 z "},"Ġ":{"ha":1061,"x_min":67,"x_max":1043,"o":"m 540 -17 q 349 26 436 -17 q 199 142 263 68 q 101 312 136 217 q 67 513 67 407 q 105 724 67 624 q 211 899 143 824 q 372 1019 279 975 q 571 1063 464 1063 q 691 1042 638 1063 q 800 978 744 1022 l 857 1047 l 896 1047 l 896 726 l 857 726 q 811 868 844 801 q 719 976 778 935 q 565 1017 660 1017 q 463 996 510 1017 q 382 920 417 975 q 328 764 347 865 q 310 503 310 663 q 325 269 310 361 q 369 124 340 176 q 441 51 399 72 q 538 31 483 31 q 672 75 625 31 q 719 199 719 119 l 719 393 l 949 393 l 949 299 q 878 133 938 204 q 729 23 818 63 q 540 -17 640 -17 m 567 374 l 567 413 l 1043 413 l 1043 374 l 567 374 m 531 1147 q 460 1178 490 1147 q 429 1249 429 1208 q 460 1321 429 1290 q 531 1351 490 1351 q 603 1321 572 1351 q 633 1249 633 1290 q 603 1178 633 1208 q 531 1147 572 1147 z "},"H":{"ha":1131,"x_min":24,"x_max":1111,"o":"m 24 0 l 24 39 l 165 39 l 165 1010 l 24 1010 l 24 1047 l 513 1047 l 513 1010 l 368 1010 l 368 558 l 765 558 l 765 1010 l 621 1010 l 621 1047 l 1111 1047 l 1111 1010 l 968 1010 l 968 39 l 1111 39 l 1111 0 l 621 0 l 621 39 l 765 39 l 765 521 l 368 521 l 368 39 l 513 39 l 513 0 l 24 0 z "},"Ħ":{"ha":1131,"x_min":24,"x_max":1111,"o":"m 28 757 l 28 803 l 1096 803 l 1096 757 l 28 757 m 24 0 l 24 39 l 165 39 l 165 1010 l 24 1010 l 24 1047 l 513 1047 l 513 1010 l 368 1010 l 368 558 l 765 558 l 765 1010 l 621 1010 l 621 1047 l 1111 1047 l 1111 1010 l 968 1010 l 968 39 l 1111 39 l 1111 0 l 621 0 l 621 39 l 765 39 l 765 521 l 368 521 l 368 39 l 513 39 l 513 0 l 24 0 z "},"Ĥ":{"ha":1131,"x_min":24,"x_max":1111,"o":"m 24 0 l 24 39 l 165 39 l 165 1010 l 24 1010 l 24 1047 l 513 1047 l 513 1010 l 368 1010 l 368 558 l 765 558 l 765 1010 l 621 1010 l 621 1047 l 1111 1047 l 1111 1010 l 968 1010 l 968 39 l 1111 39 l 1111 0 l 621 0 l 621 39 l 765 39 l 765 521 l 368 521 l 368 39 l 513 39 l 513 0 l 24 0 m 313 1172 l 522 1358 l 608 1358 l 818 1172 l 751 1172 l 565 1243 l 379 1172 l 313 1172 z "},"Ḥ":{"ha":1131,"x_min":24,"x_max":1111,"o":"m 24 0 l 24 39 l 165 39 l 165 1010 l 24 1010 l 24 1047 l 513 1047 l 513 1010 l 368 1010 l 368 558 l 765 558 l 765 1010 l 621 1010 l 621 1047 l 1111 1047 l 1111 1010 l 968 1010 l 968 39 l 1111 39 l 1111 0 l 621 0 l 621 39 l 765 39 l 765 521 l 368 521 l 368 39 l 513 39 l 513 0 l 24 0 m 565 -340 q 494 -310 525 -340 q 464 -239 464 -281 q 494 -167 464 -197 q 565 -137 525 -137 q 638 -167 607 -137 q 668 -239 668 -197 q 638 -310 668 -281 q 565 -340 607 -340 z "},"I":{"ha":532,"x_min":24,"x_max":513,"o":"m 165 21 l 165 1047 l 368 1047 l 368 21 l 165 21 m 24 0 l 24 39 l 513 39 l 513 0 l 24 0 m 24 1010 l 24 1047 l 513 1047 l 513 1010 l 24 1010 z "},"Ĳ":{"ha":1119,"x_min":24,"x_max":1067,"o":"m 165 21 l 165 1047 l 368 1047 l 368 21 l 165 21 m 24 0 l 24 39 l 513 39 l 513 0 l 24 0 m 24 1010 l 24 1047 l 513 1047 l 513 1010 l 24 1010 m 619 -146 q 481 -105 531 -146 q 432 -3 432 -64 q 463 81 432 50 q 535 113 493 113 q 603 87 574 113 q 632 19 632 61 q 619 -31 632 -11 q 607 -69 607 -51 q 618 -90 607 -83 q 643 -96 629 -96 q 685 -78 664 -96 q 720 -17 706 -61 q 735 106 735 26 l 735 1047 l 938 1047 l 938 182 q 912 48 938 108 q 842 -56 886 -12 q 741 -123 799 -100 q 619 -146 683 -146 m 578 1010 l 578 1047 l 1068 1047 l 1068 1010 l 578 1010 z "},"Í":{"ha":532,"x_min":24,"x_max":513,"o":"m 165 21 l 165 1047 l 368 1047 l 368 21 l 165 21 m 24 0 l 24 39 l 513 39 l 513 0 l 24 0 m 24 1010 l 24 1047 l 513 1047 l 513 1010 l 24 1010 m 71 1172 l 288 1311 q 352 1349 331 1339 q 396 1358 374 1358 q 444 1341 428 1358 q 461 1297 461 1324 q 445 1251 461 1272 q 389 1221 429 1229 l 144 1172 l 71 1172 z "},"Ĭ":{"ha":532,"x_min":24,"x_max":513,"o":"m 165 21 l 165 1047 l 368 1047 l 368 21 l 165 21 m 24 0 l 24 39 l 513 39 l 513 0 l 24 0 m 24 1010 l 24 1047 l 513 1047 l 513 1010 l 24 1010 m 267 1172 q 99 1223 157 1172 q 42 1358 42 1274 l 96 1358 q 145 1301 99 1318 q 264 1283 192 1283 q 385 1302 338 1283 q 436 1358 433 1321 l 490 1358 q 436 1225 490 1278 q 267 1172 382 1172 z "},"Î":{"ha":532,"x_min":14,"x_max":519,"o":"m 165 21 l 165 1047 l 368 1047 l 368 21 l 165 21 m 24 0 l 24 39 l 513 39 l 513 0 l 24 0 m 24 1010 l 24 1047 l 513 1047 l 513 1010 l 24 1010 m 14 1172 l 224 1358 l 310 1358 l 519 1172 l 453 1172 l 267 1243 l 81 1172 l 14 1172 z "},"Ȉ":{"ha":532,"x_min":-54,"x_max":586,"o":"m 165 21 l 165 1047 l 368 1047 l 368 21 l 165 21 m 24 0 l 24 39 l 513 39 l 513 0 l 24 0 m 24 1010 l 24 1047 l 513 1047 l 513 1010 l 24 1010 m 513 1172 l 296 1221 q 240 1251 256 1231 q 224 1297 224 1272 q 240 1341 224 1324 q 289 1358 257 1358 q 332 1348 313 1358 q 392 1308 351 1338 l 586 1172 l 513 1172 m 235 1172 l 18 1221 q -38 1251 -22 1231 q -54 1297 -54 1272 q -37 1341 -54 1324 q 11 1358 -21 1358 q 54 1348 35 1358 q 114 1308 74 1338 l 308 1172 l 235 1172 z "},"Ï":{"ha":532,"x_min":24,"x_max":513,"o":"m 165 21 l 165 1047 l 368 1047 l 368 21 l 165 21 m 24 0 l 24 39 l 513 39 l 513 0 l 24 0 m 24 1010 l 24 1047 l 513 1047 l 513 1010 l 24 1010 m 408 1153 q 345 1179 372 1153 q 318 1243 318 1206 q 345 1306 318 1279 q 408 1333 372 1333 q 473 1306 446 1333 q 500 1243 500 1279 q 473 1179 500 1206 q 408 1153 446 1153 m 125 1153 q 61 1179 88 1153 q 35 1243 35 1206 q 61 1306 35 1279 q 125 1333 88 1333 q 188 1306 161 1333 q 215 1243 215 1279 q 188 1179 215 1206 q 125 1153 161 1153 z "},"İ":{"ha":532,"x_min":24,"x_max":513,"o":"m 165 21 l 165 1047 l 368 1047 l 368 21 l 165 21 m 24 0 l 24 39 l 513 39 l 513 0 l 24 0 m 24 1010 l 24 1047 l 513 1047 l 513 1010 l 24 1010 m 265 1147 q 194 1178 225 1147 q 164 1249 164 1208 q 194 1321 164 1290 q 265 1351 225 1351 q 338 1321 307 1351 q 368 1249 368 1290 q 338 1178 368 1208 q 265 1147 307 1147 z "},"Ị":{"ha":532,"x_min":24,"x_max":513,"o":"m 165 21 l 165 1047 l 368 1047 l 368 21 l 165 21 m 24 0 l 24 39 l 513 39 l 513 0 l 24 0 m 24 1010 l 24 1047 l 513 1047 l 513 1010 l 24 1010 m 265 -340 q 194 -310 225 -340 q 164 -239 164 -281 q 194 -167 164 -197 q 265 -137 225 -137 q 338 -167 307 -137 q 368 -239 368 -197 q 338 -310 368 -281 q 265 -340 307 -340 z "},"Ì":{"ha":532,"x_min":24,"x_max":513,"o":"m 165 21 l 165 1047 l 368 1047 l 368 21 l 165 21 m 24 0 l 24 39 l 513 39 l 513 0 l 24 0 m 24 1010 l 24 1047 l 513 1047 l 513 1010 l 24 1010 m 388 1172 l 143 1221 q 87 1251 103 1229 q 71 1297 71 1272 q 88 1341 71 1324 q 136 1358 104 1358 q 181 1349 160 1358 q 244 1311 201 1339 l 461 1172 l 388 1172 z "},"Ỉ":{"ha":532,"x_min":24,"x_max":513,"o":"m 165 21 l 165 1047 l 368 1047 l 368 21 l 165 21 m 24 0 l 24 39 l 513 39 l 513 0 l 24 0 m 24 1010 l 24 1047 l 513 1047 l 513 1010 l 24 1010 m 263 1135 q 272 1180 263 1163 q 293 1210 281 1197 q 315 1237 306 1224 q 324 1268 324 1250 q 307 1308 324 1296 q 264 1321 290 1321 q 223 1309 239 1321 q 207 1282 207 1297 q 213 1265 207 1269 q 225 1256 219 1261 q 231 1235 231 1250 q 216 1210 231 1218 q 182 1201 201 1201 q 140 1217 157 1201 q 124 1260 124 1233 q 144 1329 124 1303 q 195 1367 164 1356 q 263 1379 226 1379 q 369 1351 332 1379 q 407 1271 407 1324 q 393 1218 407 1236 q 360 1189 379 1200 q 326 1166 342 1178 q 308 1135 311 1154 l 263 1135 z "},"Ȋ":{"ha":532,"x_min":24,"x_max":513,"o":"m 165 21 l 165 1047 l 368 1047 l 368 21 l 165 21 m 24 0 l 24 39 l 513 39 l 513 0 l 24 0 m 24 1010 l 24 1047 l 513 1047 l 513 1010 l 24 1010 m 42 1172 q 99 1308 42 1257 q 267 1358 157 1358 q 436 1306 382 1358 q 490 1172 490 1253 l 436 1172 q 385 1228 433 1210 q 264 1247 338 1247 q 145 1230 192 1247 q 96 1172 99 1213 l 42 1172 z "},"Ī":{"ha":532,"x_min":24,"x_max":513,"o":"m 165 21 l 165 1047 l 368 1047 l 368 21 l 165 21 m 24 0 l 24 39 l 513 39 l 513 0 l 24 0 m 24 1010 l 24 1047 l 513 1047 l 513 1010 l 24 1010 m 42 1182 l 42 1288 l 500 1288 l 500 1182 l 42 1182 z "},"Į":{"ha":532,"x_min":24,"x_max":513,"o":"m 165 21 l 165 1047 l 368 1047 l 368 21 l 165 21 m 24 0 l 24 39 l 513 39 l 513 0 l 24 0 m 24 1010 l 24 1047 l 513 1047 l 513 1010 l 24 1010 m 343 -337 q 253 -306 288 -337 q 218 -222 218 -274 q 238 -151 218 -186 q 301 -76 257 -117 q 419 14 344 -36 l 476 14 q 367 -101 406 -43 q 329 -208 329 -158 q 386 -272 329 -272 q 426 -263 406 -272 q 472 -235 446 -254 l 478 -235 l 478 -278 q 419 -321 456 -304 q 343 -337 383 -337 z "},"Ĩ":{"ha":532,"x_min":8,"x_max":525,"o":"m 165 21 l 165 1047 l 368 1047 l 368 21 l 165 21 m 24 0 l 24 39 l 513 39 l 513 0 l 24 0 m 24 1010 l 24 1047 l 513 1047 l 513 1010 l 24 1010 m 8 1172 q 39 1258 15 1217 q 99 1327 63 1300 q 186 1354 136 1354 q 255 1339 224 1354 q 315 1308 286 1324 q 376 1293 344 1293 q 447 1315 424 1293 q 478 1356 469 1336 l 525 1356 q 493 1269 515 1311 q 435 1200 471 1226 q 346 1174 399 1174 q 276 1189 307 1174 q 217 1219 246 1204 q 156 1235 189 1235 q 90 1217 117 1235 q 54 1172 63 1199 l 8 1172 z "},"J":{"ha":588,"x_min":-100,"x_max":536,"o":"m 88 -146 q -51 -105 -1 -146 q -100 -3 -100 -64 q -69 81 -100 50 q 3 113 -39 113 q 71 87 42 113 q 100 19 100 61 q 88 -31 100 -11 q 75 -69 75 -51 q 86 -90 75 -83 q 111 -96 97 -96 q 153 -78 132 -96 q 188 -17 174 -61 q 203 106 203 26 l 203 1047 l 406 1047 l 406 182 q 380 48 406 108 q 310 -56 354 -12 q 209 -123 267 -100 q 88 -146 151 -146 m 46 1010 l 46 1047 l 536 1047 l 536 1010 l 46 1010 z "},"Ĵ":{"ha":588,"x_min":-100,"x_max":547,"o":"m 88 -146 q -51 -105 -1 -146 q -100 -3 -100 -64 q -69 81 -100 50 q 3 113 -39 113 q 71 87 42 113 q 100 19 100 61 q 88 -31 100 -11 q 75 -69 75 -51 q 86 -90 75 -83 q 111 -96 97 -96 q 153 -78 132 -96 q 188 -17 174 -61 q 203 106 203 26 l 203 1047 l 406 1047 l 406 182 q 380 48 406 108 q 310 -56 354 -12 q 209 -123 267 -100 q 88 -146 151 -146 m 46 1010 l 46 1047 l 536 1047 l 536 1010 l 46 1010 m 42 1172 l 251 1358 l 338 1358 l 547 1172 l 481 1172 l 294 1243 l 108 1172 l 42 1172 z "},"K":{"ha":1069,"x_min":24,"x_max":1118,"o":"m 24 0 l 24 39 l 165 39 l 165 1010 l 24 1010 l 24 1047 l 506 1047 l 506 1010 l 368 1010 l 368 39 l 506 39 l 506 0 l 24 0 m 608 0 l 608 39 l 1118 39 l 1118 0 l 608 0 m 774 21 l 393 535 l 546 674 l 1028 21 l 774 21 m 336 433 l 336 504 l 821 1022 l 883 1022 l 336 433 m 639 1010 l 639 1047 l 1032 1047 l 1032 1010 l 639 1010 z "},"Ķ":{"ha":1069,"x_min":24,"x_max":1118,"o":"m 24 0 l 24 39 l 165 39 l 165 1010 l 24 1010 l 24 1047 l 506 1047 l 506 1010 l 368 1010 l 368 39 l 506 39 l 506 0 l 24 0 m 608 0 l 608 39 l 1118 39 l 1118 0 l 608 0 m 774 21 l 393 535 l 546 674 l 1028 21 l 774 21 m 336 433 l 336 504 l 821 1022 l 883 1022 l 336 433 m 639 1010 l 639 1047 l 1032 1047 l 1032 1010 l 639 1010 m 488 -432 l 460 -401 q 563 -328 532 -362 q 594 -256 594 -294 q 590 -237 594 -242 q 581 -232 586 -232 q 564 -242 574 -232 q 539 -263 554 -253 q 499 -274 524 -274 q 446 -251 467 -274 q 425 -193 425 -228 q 453 -128 425 -153 q 525 -103 481 -103 q 614 -142 582 -103 q 646 -240 646 -182 q 606 -348 646 -303 q 488 -432 565 -393 z "},"L":{"ha":933,"x_min":24,"x_max":896,"o":"m 24 0 l 24 39 l 611 39 q 735 80 685 39 q 815 188 786 121 q 844 333 843 254 l 896 333 l 896 0 l 24 0 m 171 21 l 171 1047 l 374 1047 l 374 21 l 171 21 m 24 1010 l 24 1047 l 540 1047 l 540 1010 l 24 1010 z "},"Ǉ":{"ha":1633,"x_min":24,"x_max":1581,"o":"m 24 0 l 24 39 l 611 39 q 735 80 685 39 q 815 188 786 121 q 844 333 843 254 l 896 333 l 896 0 l 24 0 m 171 21 l 171 1047 l 374 1047 l 374 21 l 171 21 m 24 1010 l 24 1047 l 540 1047 l 540 1010 l 24 1010 m 1133 -146 q 995 -105 1044 -146 q 946 -3 946 -64 q 976 81 946 50 q 1049 113 1007 113 q 1117 87 1088 113 q 1146 19 1146 61 q 1133 -31 1146 -11 q 1121 -69 1121 -51 q 1132 -90 1121 -83 q 1157 -96 1143 -96 q 1199 -78 1178 -96 q 1234 -17 1219 -61 q 1249 106 1249 26 l 1249 1047 l 1451 1047 l 1451 182 q 1426 48 1451 108 q 1356 -56 1400 -12 q 1255 -123 1313 -100 q 1133 -146 1197 -146 m 1092 1010 l 1092 1047 l 1582 1047 l 1582 1010 l 1092 1010 z "},"Ĺ":{"ha":933,"x_min":24,"x_max":896,"o":"m 24 0 l 24 39 l 611 39 q 735 80 685 39 q 815 188 786 121 q 844 333 843 254 l 896 333 l 896 0 l 24 0 m 171 21 l 171 1047 l 374 1047 l 374 21 l 171 21 m 24 1010 l 24 1047 l 540 1047 l 540 1010 l 24 1010 m 68 1172 l 285 1311 q 349 1349 328 1339 q 393 1358 371 1358 q 442 1341 425 1358 q 458 1297 458 1324 q 442 1251 458 1272 q 386 1221 426 1229 l 142 1172 l 68 1172 z "},"Ľ":{"ha":933,"x_min":24,"x_max":897,"o":"m 24 0 l 24 39 l 611 39 q 735 80 685 39 q 815 188 786 121 q 844 333 843 254 l 896 333 l 896 0 l 24 0 m 171 21 l 171 1047 l 374 1047 l 374 21 l 171 21 m 24 1010 l 24 1047 l 540 1047 l 540 1010 l 24 1010 m 746 672 l 718 703 q 810 791 779 746 q 842 883 842 836 q 838 905 842 900 q 832 910 835 910 q 815 900 825 910 q 791 880 806 890 q 751 869 776 869 q 695 895 714 869 q 676 950 676 921 q 706 1019 676 990 q 781 1049 735 1049 q 867 1005 836 1049 q 897 900 897 961 q 855 772 897 828 q 746 672 813 715 z "},"Ļ":{"ha":933,"x_min":24,"x_max":896,"o":"m 24 0 l 24 39 l 611 39 q 735 80 685 39 q 815 188 786 121 q 844 333 843 254 l 896 333 l 896 0 l 24 0 m 171 21 l 171 1047 l 374 1047 l 374 21 l 171 21 m 24 1010 l 24 1047 l 540 1047 l 540 1010 l 24 1010 m 419 -432 l 392 -401 q 495 -328 464 -362 q 526 -256 526 -294 q 522 -237 526 -242 q 513 -232 518 -232 q 496 -242 506 -232 q 471 -263 486 -253 q 431 -274 456 -274 q 378 -251 399 -274 q 357 -193 357 -228 q 385 -128 357 -153 q 457 -103 413 -103 q 546 -142 514 -103 q 578 -240 578 -182 q 538 -348 578 -303 q 419 -432 497 -393 z "},"Ŀ":{"ha":933,"x_min":24,"x_max":896,"o":"m 24 0 l 24 39 l 611 39 q 735 80 685 39 q 815 188 786 121 q 844 333 843 254 l 896 333 l 896 0 l 24 0 m 171 21 l 171 1047 l 374 1047 l 374 21 l 171 21 m 24 1010 l 24 1047 l 540 1047 l 540 1010 l 24 1010 m 607 394 q 528 427 561 394 q 496 506 496 460 q 528 584 496 551 q 607 617 561 617 q 685 584 653 617 q 718 506 718 551 q 685 427 718 460 q 607 394 653 394 z "},"ǈ":{"ha":1383,"x_min":24,"x_max":1263,"o":"m 24 0 l 24 39 l 611 39 q 735 80 685 39 q 815 188 786 121 q 844 333 843 254 l 896 333 l 896 0 l 24 0 m 171 21 l 171 1047 l 374 1047 l 374 21 l 171 21 m 24 1010 l 24 1047 l 540 1047 l 540 1010 l 24 1010 m 996 -450 l 996 -450 q 890 -416 931 -450 q 849 -333 849 -382 q 874 -272 849 -296 q 935 -247 899 -247 q 989 -265 965 -247 q 1013 -318 1013 -283 q 1007 -350 1013 -337 q 1001 -375 1001 -362 q 1009 -394 1001 -387 q 1028 -401 1017 -401 q 1066 -374 1049 -401 q 1083 -265 1083 -346 l 1083 588 l 961 588 l 961 625 l 1256 625 l 1256 -57 q 1222 -269 1256 -181 q 1129 -403 1188 -357 q 996 -450 1071 -450 m 1161 808 q 1090 839 1121 808 q 1060 910 1060 869 q 1090 982 1060 951 q 1161 1013 1121 1013 q 1233 982 1203 1013 q 1264 910 1264 951 q 1233 839 1264 869 q 1161 808 1203 808 z "},"Ł":{"ha":933,"x_min":24,"x_max":896,"o":"m 39 329 l 39 385 l 576 699 l 576 643 l 39 329 m 24 0 l 24 39 l 611 39 q 735 80 685 39 q 815 188 786 121 q 844 333 843 254 l 896 333 l 896 0 l 24 0 m 171 21 l 171 1047 l 374 1047 l 374 21 l 171 21 m 24 1010 l 24 1047 l 540 1047 l 540 1010 l 24 1010 z "},"M":{"ha":1258,"x_min":22,"x_max":1239,"o":"m 536 -12 l 239 938 l 233 938 l 233 39 l 386 39 l 386 0 l 22 0 l 22 39 l 175 39 l 175 1010 l 22 1010 l 22 1047 l 431 1047 l 639 365 l 644 365 l 856 1047 l 1239 1047 l 1239 1010 l 1090 1010 l 1090 39 l 1239 39 l 1239 0 l 738 0 l 738 39 l 888 39 l 888 938 l 882 938 l 589 -12 l 536 -12 z "},"N":{"ha":1067,"x_min":24,"x_max":1049,"o":"m 857 -17 l 239 919 l 233 919 l 233 39 l 386 39 l 386 0 l 24 0 l 24 39 l 176 39 l 176 1010 l 24 1010 l 24 1047 l 414 1047 l 846 401 l 851 401 l 851 1010 l 713 1010 l 713 1047 l 1049 1047 l 1049 1010 l 910 1010 l 910 -17 l 857 -17 z "},"Ǌ":{"ha":1654,"x_min":24,"x_max":1601,"o":"m 857 -17 l 239 919 l 233 919 l 233 39 l 386 39 l 386 0 l 24 0 l 24 39 l 176 39 l 176 1010 l 24 1010 l 24 1047 l 414 1047 l 846 401 l 851 401 l 851 1010 l 713 1010 l 713 1047 l 1049 1047 l 1049 1010 l 910 1010 l 910 -17 l 857 -17 m 1154 -146 q 1016 -105 1065 -146 q 967 -3 967 -64 q 997 81 967 50 q 1069 113 1028 113 q 1138 87 1108 113 q 1167 19 1167 61 q 1154 -31 1167 -11 q 1142 -69 1142 -51 q 1153 -90 1142 -83 q 1178 -96 1164 -96 q 1219 -78 1199 -96 q 1255 -17 1240 -61 q 1269 106 1269 26 l 1269 1047 l 1472 1047 l 1472 182 q 1447 48 1472 108 q 1377 -56 1421 -12 q 1276 -123 1333 -100 q 1154 -146 1218 -146 m 1113 1010 l 1113 1047 l 1603 1047 l 1603 1010 l 1113 1010 z "},"Ń":{"ha":1067,"x_min":24,"x_max":1049,"o":"m 857 -17 l 239 919 l 233 919 l 233 39 l 386 39 l 386 0 l 24 0 l 24 39 l 176 39 l 176 1010 l 24 1010 l 24 1047 l 414 1047 l 846 401 l 851 401 l 851 1010 l 713 1010 l 713 1047 l 1049 1047 l 1049 1010 l 910 1010 l 910 -17 l 857 -17 m 339 1172 l 556 1311 q 620 1349 599 1339 q 664 1358 642 1358 q 713 1341 696 1358 q 729 1297 729 1324 q 713 1251 729 1272 q 657 1221 697 1229 l 413 1172 l 339 1172 z "},"Ň":{"ha":1067,"x_min":24,"x_max":1049,"o":"m 857 -17 l 239 919 l 233 919 l 233 39 l 386 39 l 386 0 l 24 0 l 24 39 l 176 39 l 176 1010 l 24 1010 l 24 1047 l 414 1047 l 846 401 l 851 401 l 851 1010 l 713 1010 l 713 1047 l 1049 1047 l 1049 1010 l 910 1010 l 910 -17 l 857 -17 m 490 1172 l 281 1358 l 347 1358 l 533 1286 l 719 1358 l 786 1358 l 576 1172 l 490 1172 z "},"Ņ":{"ha":1067,"x_min":24,"x_max":1049,"o":"m 857 -17 l 239 919 l 233 919 l 233 39 l 386 39 l 386 0 l 24 0 l 24 39 l 176 39 l 176 1010 l 24 1010 l 24 1047 l 414 1047 l 846 401 l 851 401 l 851 1010 l 713 1010 l 713 1047 l 1049 1047 l 1049 1010 l 910 1010 l 910 -17 l 857 -17 m 486 -432 l 458 -401 q 562 -328 531 -362 q 593 -256 593 -294 q 589 -237 593 -242 q 579 -232 585 -232 q 563 -242 572 -232 q 538 -263 553 -253 q 497 -274 522 -274 q 444 -251 465 -274 q 424 -193 424 -228 q 451 -128 424 -153 q 524 -103 479 -103 q 613 -142 581 -103 q 644 -240 644 -182 q 604 -348 644 -303 q 486 -432 564 -393 z "},"Ṅ":{"ha":1067,"x_min":24,"x_max":1049,"o":"m 857 -17 l 239 919 l 233 919 l 233 39 l 386 39 l 386 0 l 24 0 l 24 39 l 176 39 l 176 1010 l 24 1010 l 24 1047 l 414 1047 l 846 401 l 851 401 l 851 1010 l 713 1010 l 713 1047 l 1049 1047 l 1049 1010 l 910 1010 l 910 -17 l 857 -17 m 533 1147 q 463 1178 493 1147 q 432 1249 432 1208 q 463 1321 432 1290 q 533 1351 493 1351 q 606 1321 575 1351 q 636 1249 636 1290 q 606 1178 636 1208 q 533 1147 575 1147 z "},"ǋ":{"ha":1517,"x_min":24,"x_max":1396,"o":"m 857 -17 l 239 919 l 233 919 l 233 39 l 386 39 l 386 0 l 24 0 l 24 39 l 176 39 l 176 1010 l 24 1010 l 24 1047 l 414 1047 l 846 401 l 851 401 l 851 1010 l 713 1010 l 713 1047 l 1049 1047 l 1049 1010 l 910 1010 l 910 -17 l 857 -17 m 1129 -450 l 1129 -450 q 1023 -416 1064 -450 q 982 -333 982 -382 q 1007 -272 982 -296 q 1068 -247 1032 -247 q 1122 -265 1099 -247 q 1146 -318 1146 -283 q 1140 -350 1146 -337 q 1135 -375 1135 -362 q 1142 -394 1135 -387 q 1161 -401 1150 -401 q 1199 -374 1182 -401 q 1217 -265 1217 -346 l 1217 588 l 1094 588 l 1094 625 l 1389 625 l 1389 -57 q 1355 -269 1389 -181 q 1263 -403 1321 -357 q 1129 -450 1204 -450 m 1294 808 q 1224 839 1254 808 q 1193 910 1193 869 q 1224 982 1193 951 q 1294 1013 1254 1013 q 1367 982 1336 1013 q 1397 910 1397 951 q 1367 839 1397 869 q 1294 808 1336 808 z "},"Ñ":{"ha":1067,"x_min":24,"x_max":1049,"o":"m 857 -17 l 239 919 l 233 919 l 233 39 l 386 39 l 386 0 l 24 0 l 24 39 l 176 39 l 176 1010 l 24 1010 l 24 1047 l 414 1047 l 846 401 l 851 401 l 851 1010 l 713 1010 l 713 1047 l 1049 1047 l 1049 1010 l 910 1010 l 910 -17 l 857 -17 m 275 1172 q 306 1258 282 1217 q 366 1327 329 1300 q 453 1354 403 1354 q 522 1339 490 1354 q 582 1308 553 1324 q 643 1293 611 1293 q 713 1315 690 1293 q 744 1356 736 1336 l 792 1356 q 760 1269 782 1311 q 701 1200 738 1226 q 613 1174 665 1174 q 543 1189 574 1174 q 484 1219 513 1204 q 422 1235 456 1235 q 356 1217 383 1235 q 321 1172 329 1199 l 275 1172 z "},"Ŋ":{"ha":1065,"x_min":25,"x_max":1050,"o":"m 729 -226 l 729 -226 q 599 -186 646 -226 q 551 -83 551 -146 q 582 -1 551 -32 q 654 31 613 31 q 722 5 693 31 q 751 -61 751 -21 q 739 -109 751 -92 q 726 -144 726 -126 q 737 -165 726 -158 q 761 -171 747 -171 q 803 -153 782 -171 q 839 -92 824 -136 q 854 32 854 -49 l 854 79 l 240 919 l 235 919 l 235 39 l 388 39 l 388 0 l 25 0 l 25 39 l 178 39 l 178 1010 l 25 1010 l 25 1047 l 415 1047 l 849 492 l 854 492 l 854 1010 l 714 1010 l 714 1047 l 1050 1047 l 1050 1010 l 911 1010 l 911 67 q 899 -74 911 -18 q 863 -165 886 -131 q 806 -212 840 -199 q 729 -226 772 -226 z "},"O":{"ha":1115,"x_min":58,"x_max":1057,"o":"m 557 -17 q 361 27 451 -17 q 203 147 271 71 q 97 319 135 222 q 58 525 58 417 q 97 729 58 632 q 203 901 135 826 q 361 1019 271 976 q 557 1063 451 1063 q 753 1019 663 1063 q 913 901 844 976 q 1019 729 981 826 q 1057 525 1057 632 q 1019 319 1057 417 q 913 147 981 222 q 753 27 844 71 q 557 -17 663 -17 m 557 28 q 676 50 626 28 q 756 127 725 72 q 800 278 786 182 q 814 524 814 375 q 800 768 814 672 q 756 919 786 864 q 676 995 725 974 q 557 1017 626 1017 q 438 995 486 1017 q 359 919 389 974 q 315 769 329 865 q 301 525 301 672 q 315 278 301 375 q 360 126 329 181 q 438 49 390 71 q 557 28 486 28 z "},"Ó":{"ha":1115,"x_min":58,"x_max":1057,"o":"m 557 -17 q 361 27 451 -17 q 203 147 271 71 q 97 319 135 222 q 58 525 58 417 q 97 729 58 632 q 203 901 135 826 q 361 1019 271 976 q 557 1063 451 1063 q 753 1019 663 1063 q 913 901 844 976 q 1019 729 981 826 q 1057 525 1057 632 q 1019 319 1057 417 q 913 147 981 222 q 753 27 844 71 q 557 -17 663 -17 m 557 28 q 676 50 626 28 q 756 127 725 72 q 800 278 786 182 q 814 524 814 375 q 800 768 814 672 q 756 919 786 864 q 676 995 725 974 q 557 1017 626 1017 q 438 995 486 1017 q 359 919 389 974 q 315 769 329 865 q 301 525 301 672 q 315 278 301 375 q 360 126 329 181 q 438 49 390 71 q 557 28 486 28 m 363 1172 l 579 1311 q 644 1349 622 1339 q 688 1358 665 1358 q 736 1341 719 1358 q 753 1297 753 1324 q 737 1251 753 1272 q 681 1221 721 1229 l 436 1172 l 363 1172 z "},"Ŏ":{"ha":1115,"x_min":58,"x_max":1057,"o":"m 557 -17 q 361 27 451 -17 q 203 147 271 71 q 97 319 135 222 q 58 525 58 417 q 97 729 58 632 q 203 901 135 826 q 361 1019 271 976 q 557 1063 451 1063 q 753 1019 663 1063 q 913 901 844 976 q 1019 729 981 826 q 1057 525 1057 632 q 1019 319 1057 417 q 913 147 981 222 q 753 27 844 71 q 557 -17 663 -17 m 557 28 q 676 50 626 28 q 756 127 725 72 q 800 278 786 182 q 814 524 814 375 q 800 768 814 672 q 756 919 786 864 q 676 995 725 974 q 557 1017 626 1017 q 438 995 486 1017 q 359 919 389 974 q 315 769 329 865 q 301 525 301 672 q 315 278 301 375 q 360 126 329 181 q 438 49 390 71 q 557 28 486 28 m 558 1172 q 391 1223 449 1172 q 333 1358 333 1274 l 388 1358 q 437 1301 390 1318 q 556 1283 483 1283 q 677 1302 629 1283 q 728 1358 725 1321 l 782 1358 q 728 1225 782 1278 q 558 1172 674 1172 z "},"Ô":{"ha":1115,"x_min":58,"x_max":1057,"o":"m 557 -17 q 361 27 451 -17 q 203 147 271 71 q 97 319 135 222 q 58 525 58 417 q 97 729 58 632 q 203 901 135 826 q 361 1019 271 976 q 557 1063 451 1063 q 753 1019 663 1063 q 913 901 844 976 q 1019 729 981 826 q 1057 525 1057 632 q 1019 319 1057 417 q 913 147 981 222 q 753 27 844 71 q 557 -17 663 -17 m 557 28 q 676 50 626 28 q 756 127 725 72 q 800 278 786 182 q 814 524 814 375 q 800 768 814 672 q 756 919 786 864 q 676 995 725 974 q 557 1017 626 1017 q 438 995 486 1017 q 359 919 389 974 q 315 769 329 865 q 301 525 301 672 q 315 278 301 375 q 360 126 329 181 q 438 49 390 71 q 557 28 486 28 m 306 1172 l 515 1358 l 601 1358 l 811 1172 l 744 1172 l 558 1243 l 372 1172 l 306 1172 z "},"Ố":{"ha":1115,"x_min":58,"x_max":1057,"o":"m 557 -17 q 361 27 451 -17 q 203 147 271 71 q 97 319 135 222 q 58 525 58 417 q 97 729 58 632 q 203 901 135 826 q 361 1019 271 976 q 557 1063 451 1063 q 753 1019 663 1063 q 913 901 844 976 q 1019 729 981 826 q 1057 525 1057 632 q 1019 319 1057 417 q 913 147 981 222 q 753 27 844 71 q 557 -17 663 -17 m 557 28 q 676 50 626 28 q 756 127 725 72 q 800 278 786 182 q 814 524 814 375 q 800 768 814 672 q 756 919 786 864 q 676 995 725 974 q 557 1017 626 1017 q 438 995 486 1017 q 359 919 389 974 q 315 769 329 865 q 301 525 301 672 q 315 278 301 375 q 360 126 329 181 q 438 49 390 71 q 557 28 486 28 m 333 1150 l 515 1308 l 601 1308 l 783 1150 l 717 1150 l 558 1214 l 400 1150 l 333 1150 m 364 1346 l 581 1485 q 644 1522 622 1513 q 688 1532 665 1532 q 736 1515 719 1532 q 753 1471 753 1497 q 738 1424 753 1446 q 682 1394 722 1403 l 438 1346 l 364 1346 z "},"Ộ":{"ha":1115,"x_min":58,"x_max":1057,"o":"m 557 -17 q 361 27 451 -17 q 203 147 271 71 q 97 319 135 222 q 58 525 58 417 q 97 729 58 632 q 203 901 135 826 q 361 1019 271 976 q 557 1063 451 1063 q 753 1019 663 1063 q 913 901 844 976 q 1019 729 981 826 q 1057 525 1057 632 q 1019 319 1057 417 q 913 147 981 222 q 753 27 844 71 q 557 -17 663 -17 m 557 28 q 676 50 626 28 q 756 127 725 72 q 800 278 786 182 q 814 524 814 375 q 800 768 814 672 q 756 919 786 864 q 676 995 725 974 q 557 1017 626 1017 q 438 995 486 1017 q 359 919 389 974 q 315 769 329 865 q 301 525 301 672 q 315 278 301 375 q 360 126 329 181 q 438 49 390 71 q 557 28 486 28 m 557 -340 q 486 -310 517 -340 q 456 -239 456 -281 q 486 -167 456 -197 q 557 -137 517 -137 q 629 -167 599 -137 q 660 -239 660 -197 q 629 -310 660 -281 q 557 -340 599 -340 m 306 1172 l 515 1358 l 601 1358 l 811 1172 l 744 1172 l 558 1243 l 372 1172 l 306 1172 z "},"Ồ":{"ha":1115,"x_min":58,"x_max":1057,"o":"m 557 -17 q 361 27 451 -17 q 203 147 271 71 q 97 319 135 222 q 58 525 58 417 q 97 729 58 632 q 203 901 135 826 q 361 1019 271 976 q 557 1063 451 1063 q 753 1019 663 1063 q 913 901 844 976 q 1019 729 981 826 q 1057 525 1057 632 q 1019 319 1057 417 q 913 147 981 222 q 753 27 844 71 q 557 -17 663 -17 m 557 28 q 676 50 626 28 q 756 127 725 72 q 800 278 786 182 q 814 524 814 375 q 800 768 814 672 q 756 919 786 864 q 676 995 725 974 q 557 1017 626 1017 q 438 995 486 1017 q 359 919 389 974 q 315 769 329 865 q 301 525 301 672 q 315 278 301 375 q 360 126 329 181 q 438 49 390 71 q 557 28 486 28 m 333 1150 l 515 1308 l 601 1308 l 783 1150 l 717 1150 l 558 1214 l 400 1150 l 333 1150 m 679 1347 l 435 1396 q 379 1426 394 1404 q 364 1472 364 1447 q 381 1516 364 1499 q 429 1533 397 1533 q 473 1524 451 1533 q 536 1486 494 1514 l 753 1347 l 679 1347 z "},"Ổ":{"ha":1115,"x_min":58,"x_max":1057,"o":"m 557 -17 q 361 27 451 -17 q 203 147 271 71 q 97 319 135 222 q 58 525 58 417 q 97 729 58 632 q 203 901 135 826 q 361 1019 271 976 q 557 1063 451 1063 q 753 1019 663 1063 q 913 901 844 976 q 1019 729 981 826 q 1057 525 1057 632 q 1019 319 1057 417 q 913 147 981 222 q 753 27 844 71 q 557 -17 663 -17 m 557 28 q 676 50 626 28 q 756 127 725 72 q 800 278 786 182 q 814 524 814 375 q 800 768 814 672 q 756 919 786 864 q 676 995 725 974 q 557 1017 626 1017 q 438 995 486 1017 q 359 919 389 974 q 315 769 329 865 q 301 525 301 672 q 315 278 301 375 q 360 126 329 181 q 438 49 390 71 q 557 28 486 28 m 333 1150 l 515 1308 l 601 1308 l 783 1150 l 717 1150 l 558 1214 l 400 1150 l 333 1150 m 732 1307 q 741 1353 732 1335 q 763 1383 750 1371 q 784 1406 775 1396 q 793 1429 793 1417 q 776 1481 793 1467 q 733 1494 760 1494 q 692 1482 708 1494 q 676 1454 676 1469 q 683 1438 676 1442 q 694 1429 689 1435 q 700 1407 700 1424 q 685 1382 700 1390 q 651 1374 671 1374 q 610 1390 626 1374 q 593 1432 593 1407 q 613 1502 593 1476 q 664 1540 632 1528 q 732 1551 696 1551 q 839 1522 801 1551 q 876 1425 876 1492 q 863 1384 876 1399 q 830 1360 849 1369 q 796 1339 811 1350 q 778 1307 781 1328 l 732 1307 z "},"Ỗ":{"ha":1115,"x_min":58,"x_max":1057,"o":"m 557 -17 q 361 27 451 -17 q 203 147 271 71 q 97 319 135 222 q 58 525 58 417 q 97 729 58 632 q 203 901 135 826 q 361 1019 271 976 q 557 1063 451 1063 q 753 1019 663 1063 q 913 901 844 976 q 1019 729 981 826 q 1057 525 1057 632 q 1019 319 1057 417 q 913 147 981 222 q 753 27 844 71 q 557 -17 663 -17 m 557 28 q 676 50 626 28 q 756 127 725 72 q 800 278 786 182 q 814 524 814 375 q 800 768 814 672 q 756 919 786 864 q 676 995 725 974 q 557 1017 626 1017 q 438 995 486 1017 q 359 919 389 974 q 315 769 329 865 q 301 525 301 672 q 315 278 301 375 q 360 126 329 181 q 438 49 390 71 q 557 28 486 28 m 333 1146 l 515 1304 l 601 1304 l 783 1146 l 717 1146 l 558 1210 l 400 1146 l 333 1146 m 300 1382 q 331 1468 307 1426 q 391 1537 354 1510 q 478 1564 428 1564 q 547 1549 515 1564 q 607 1518 578 1533 q 668 1503 636 1503 q 738 1524 715 1503 q 769 1567 761 1546 l 817 1567 q 785 1479 807 1521 q 726 1410 763 1438 q 638 1383 690 1383 q 568 1399 599 1383 q 509 1429 538 1414 q 447 1444 481 1444 q 381 1427 408 1444 q 346 1382 354 1410 l 300 1382 z "},"Ȍ":{"ha":1115,"x_min":58,"x_max":1057,"o":"m 557 -17 q 361 27 451 -17 q 203 147 271 71 q 97 319 135 222 q 58 525 58 417 q 97 729 58 632 q 203 901 135 826 q 361 1019 271 976 q 557 1063 451 1063 q 753 1019 663 1063 q 913 901 844 976 q 1019 729 981 826 q 1057 525 1057 632 q 1019 319 1057 417 q 913 147 981 222 q 753 27 844 71 q 557 -17 663 -17 m 557 28 q 676 50 626 28 q 756 127 725 72 q 800 278 786 182 q 814 524 814 375 q 800 768 814 672 q 756 919 786 864 q 676 995 725 974 q 557 1017 626 1017 q 438 995 486 1017 q 359 919 389 974 q 315 769 329 865 q 301 525 301 672 q 315 278 301 375 q 360 126 329 181 q 438 49 390 71 q 557 28 486 28 m 804 1172 l 588 1221 q 531 1251 547 1231 q 515 1297 515 1272 q 532 1341 515 1324 q 581 1358 549 1358 q 624 1348 604 1358 q 683 1308 643 1338 l 878 1172 l 804 1172 m 526 1172 l 310 1221 q 253 1251 269 1231 q 238 1297 238 1272 q 254 1341 238 1324 q 303 1358 271 1358 q 346 1348 326 1358 q 406 1308 365 1338 l 600 1172 l 526 1172 z "},"Ö":{"ha":1115,"x_min":58,"x_max":1057,"o":"m 557 -17 q 361 27 451 -17 q 203 147 271 71 q 97 319 135 222 q 58 525 58 417 q 97 729 58 632 q 203 901 135 826 q 361 1019 271 976 q 557 1063 451 1063 q 753 1019 663 1063 q 913 901 844 976 q 1019 729 981 826 q 1057 525 1057 632 q 1019 319 1057 417 q 913 147 981 222 q 753 27 844 71 q 557 -17 663 -17 m 557 28 q 676 50 626 28 q 756 127 725 72 q 800 278 786 182 q 814 524 814 375 q 800 768 814 672 q 756 919 786 864 q 676 995 725 974 q 557 1017 626 1017 q 438 995 486 1017 q 359 919 389 974 q 315 769 329 865 q 301 525 301 672 q 315 278 301 375 q 360 126 329 181 q 438 49 390 71 q 557 28 486 28 m 700 1153 q 637 1179 664 1153 q 610 1243 610 1206 q 637 1306 610 1279 q 700 1333 664 1333 q 765 1306 738 1333 q 792 1243 792 1279 q 765 1179 792 1206 q 700 1153 738 1153 m 417 1153 q 353 1179 379 1153 q 326 1243 326 1206 q 353 1306 326 1279 q 417 1333 379 1333 q 480 1306 453 1333 q 507 1243 507 1279 q 480 1179 507 1206 q 417 1153 453 1153 z "},"Ọ":{"ha":1115,"x_min":58,"x_max":1057,"o":"m 557 -17 q 361 27 451 -17 q 203 147 271 71 q 97 319 135 222 q 58 525 58 417 q 97 729 58 632 q 203 901 135 826 q 361 1019 271 976 q 557 1063 451 1063 q 753 1019 663 1063 q 913 901 844 976 q 1019 729 981 826 q 1057 525 1057 632 q 1019 319 1057 417 q 913 147 981 222 q 753 27 844 71 q 557 -17 663 -17 m 557 28 q 676 50 626 28 q 756 127 725 72 q 800 278 786 182 q 814 524 814 375 q 800 768 814 672 q 756 919 786 864 q 676 995 725 974 q 557 1017 626 1017 q 438 995 486 1017 q 359 919 389 974 q 315 769 329 865 q 301 525 301 672 q 315 278 301 375 q 360 126 329 181 q 438 49 390 71 q 557 28 486 28 m 557 -340 q 486 -310 517 -340 q 456 -239 456 -281 q 486 -167 456 -197 q 557 -137 517 -137 q 629 -167 599 -137 q 660 -239 660 -197 q 629 -310 660 -281 q 557 -340 599 -340 z "},"Ò":{"ha":1115,"x_min":58,"x_max":1057,"o":"m 557 -17 q 361 27 451 -17 q 203 147 271 71 q 97 319 135 222 q 58 525 58 417 q 97 729 58 632 q 203 901 135 826 q 361 1019 271 976 q 557 1063 451 1063 q 753 1019 663 1063 q 913 901 844 976 q 1019 729 981 826 q 1057 525 1057 632 q 1019 319 1057 417 q 913 147 981 222 q 753 27 844 71 q 557 -17 663 -17 m 557 28 q 676 50 626 28 q 756 127 725 72 q 800 278 786 182 q 814 524 814 375 q 800 768 814 672 q 756 919 786 864 q 676 995 725 974 q 557 1017 626 1017 q 438 995 486 1017 q 359 919 389 974 q 315 769 329 865 q 301 525 301 672 q 315 278 301 375 q 360 126 329 181 q 438 49 390 71 q 557 28 486 28 m 679 1172 l 435 1221 q 378 1251 394 1229 q 363 1297 363 1272 q 379 1341 363 1324 q 428 1358 396 1358 q 472 1349 451 1358 q 536 1311 493 1339 l 753 1172 l 679 1172 z "},"Ỏ":{"ha":1115,"x_min":58,"x_max":1057,"o":"m 557 -17 q 361 27 451 -17 q 203 147 271 71 q 97 319 135 222 q 58 525 58 417 q 97 729 58 632 q 203 901 135 826 q 361 1019 271 976 q 557 1063 451 1063 q 753 1019 663 1063 q 913 901 844 976 q 1019 729 981 826 q 1057 525 1057 632 q 1019 319 1057 417 q 913 147 981 222 q 753 27 844 71 q 557 -17 663 -17 m 557 28 q 676 50 626 28 q 756 127 725 72 q 800 278 786 182 q 814 524 814 375 q 800 768 814 672 q 756 919 786 864 q 676 995 725 974 q 557 1017 626 1017 q 438 995 486 1017 q 359 919 389 974 q 315 769 329 865 q 301 525 301 672 q 315 278 301 375 q 360 126 329 181 q 438 49 390 71 q 557 28 486 28 m 554 1135 q 563 1180 554 1163 q 585 1210 572 1197 q 606 1237 597 1224 q 615 1268 615 1250 q 599 1308 615 1296 q 556 1321 582 1321 q 515 1309 531 1321 q 499 1282 499 1297 q 505 1265 499 1269 q 517 1256 511 1261 q 522 1235 522 1250 q 508 1210 522 1218 q 474 1201 493 1201 q 432 1217 449 1201 q 415 1260 415 1233 q 435 1329 415 1303 q 487 1367 456 1356 q 554 1379 518 1379 q 661 1351 624 1379 q 699 1271 699 1324 q 685 1218 699 1236 q 652 1189 671 1200 q 618 1166 633 1178 q 600 1135 603 1154 l 554 1135 z "},"Ơ":{"ha":1115,"x_min":58,"x_max":1057,"o":"m 557 -17 q 361 27 451 -17 q 203 147 271 71 q 97 319 135 222 q 58 525 58 417 q 97 729 58 632 q 203 901 135 826 q 361 1019 271 976 q 557 1063 451 1063 q 753 1019 663 1063 q 913 901 844 976 q 1019 729 981 826 q 1057 525 1057 632 q 1019 319 1057 417 q 913 147 981 222 q 753 27 844 71 q 557 -17 663 -17 m 557 28 q 676 50 626 28 q 756 127 725 72 q 800 278 786 182 q 814 524 814 375 q 800 768 814 672 q 756 919 786 864 q 676 995 725 974 q 557 1017 626 1017 q 438 995 486 1017 q 359 919 389 974 q 315 769 329 865 q 301 525 301 672 q 315 278 301 375 q 360 126 329 181 q 438 49 390 71 q 557 28 486 28 m 661 1007 l 658 1050 q 754 1076 732 1050 q 779 1160 776 1103 l 876 1160 q 858 1063 876 1097 q 794 1017 840 1029 q 661 1007 747 1006 z "},"Ớ":{"ha":1115,"x_min":58,"x_max":1057,"o":"m 557 -17 q 361 27 451 -17 q 203 147 271 71 q 97 319 135 222 q 58 525 58 417 q 97 729 58 632 q 203 901 135 826 q 361 1019 271 976 q 557 1063 451 1063 q 753 1019 663 1063 q 913 901 844 976 q 1019 729 981 826 q 1057 525 1057 632 q 1019 319 1057 417 q 913 147 981 222 q 753 27 844 71 q 557 -17 663 -17 m 557 28 q 676 50 626 28 q 756 127 725 72 q 800 278 786 182 q 814 524 814 375 q 800 768 814 672 q 756 919 786 864 q 676 995 725 974 q 557 1017 626 1017 q 438 995 486 1017 q 359 919 389 974 q 315 769 329 865 q 301 525 301 672 q 315 278 301 375 q 360 126 329 181 q 438 49 390 71 q 557 28 486 28 m 661 1007 l 658 1050 q 754 1076 732 1050 q 779 1160 776 1103 l 876 1160 q 858 1063 876 1097 q 794 1017 840 1029 q 661 1007 747 1006 m 363 1172 l 579 1311 q 644 1349 622 1339 q 688 1358 665 1358 q 736 1341 719 1358 q 753 1297 753 1324 q 737 1251 753 1272 q 681 1221 721 1229 l 436 1172 l 363 1172 z "},"Ợ":{"ha":1115,"x_min":58,"x_max":1057,"o":"m 557 -17 q 361 27 451 -17 q 203 147 271 71 q 97 319 135 222 q 58 525 58 417 q 97 729 58 632 q 203 901 135 826 q 361 1019 271 976 q 557 1063 451 1063 q 753 1019 663 1063 q 913 901 844 976 q 1019 729 981 826 q 1057 525 1057 632 q 1019 319 1057 417 q 913 147 981 222 q 753 27 844 71 q 557 -17 663 -17 m 557 28 q 676 50 626 28 q 756 127 725 72 q 800 278 786 182 q 814 524 814 375 q 800 768 814 672 q 756 919 786 864 q 676 995 725 974 q 557 1017 626 1017 q 438 995 486 1017 q 359 919 389 974 q 315 769 329 865 q 301 525 301 672 q 315 278 301 375 q 360 126 329 181 q 438 49 390 71 q 557 28 486 28 m 661 1007 l 658 1050 q 754 1076 732 1050 q 779 1160 776 1103 l 876 1160 q 858 1063 876 1097 q 794 1017 840 1029 q 661 1007 747 1006 m 557 -340 q 486 -310 517 -340 q 456 -239 456 -281 q 486 -167 456 -197 q 557 -137 517 -137 q 629 -167 599 -137 q 660 -239 660 -197 q 629 -310 660 -281 q 557 -340 599 -340 z "},"Ờ":{"ha":1115,"x_min":58,"x_max":1057,"o":"m 557 -17 q 361 27 451 -17 q 203 147 271 71 q 97 319 135 222 q 58 525 58 417 q 97 729 58 632 q 203 901 135 826 q 361 1019 271 976 q 557 1063 451 1063 q 753 1019 663 1063 q 913 901 844 976 q 1019 729 981 826 q 1057 525 1057 632 q 1019 319 1057 417 q 913 147 981 222 q 753 27 844 71 q 557 -17 663 -17 m 557 28 q 676 50 626 28 q 756 127 725 72 q 800 278 786 182 q 814 524 814 375 q 800 768 814 672 q 756 919 786 864 q 676 995 725 974 q 557 1017 626 1017 q 438 995 486 1017 q 359 919 389 974 q 315 769 329 865 q 301 525 301 672 q 315 278 301 375 q 360 126 329 181 q 438 49 390 71 q 557 28 486 28 m 661 1007 l 658 1050 q 754 1076 732 1050 q 779 1160 776 1103 l 876 1160 q 858 1063 876 1097 q 794 1017 840 1029 q 661 1007 747 1006 m 679 1172 l 435 1221 q 378 1251 394 1229 q 363 1297 363 1272 q 379 1341 363 1324 q 428 1358 396 1358 q 472 1349 451 1358 q 536 1311 493 1339 l 753 1172 l 679 1172 z "},"Ở":{"ha":1115,"x_min":58,"x_max":1057,"o":"m 557 -17 q 361 27 451 -17 q 203 147 271 71 q 97 319 135 222 q 58 525 58 417 q 97 729 58 632 q 203 901 135 826 q 361 1019 271 976 q 557 1063 451 1063 q 753 1019 663 1063 q 913 901 844 976 q 1019 729 981 826 q 1057 525 1057 632 q 1019 319 1057 417 q 913 147 981 222 q 753 27 844 71 q 557 -17 663 -17 m 557 28 q 676 50 626 28 q 756 127 725 72 q 800 278 786 182 q 814 524 814 375 q 800 768 814 672 q 756 919 786 864 q 676 995 725 974 q 557 1017 626 1017 q 438 995 486 1017 q 359 919 389 974 q 315 769 329 865 q 301 525 301 672 q 315 278 301 375 q 360 126 329 181 q 438 49 390 71 q 557 28 486 28 m 661 1007 l 658 1050 q 754 1076 732 1050 q 779 1160 776 1103 l 876 1160 q 858 1063 876 1097 q 794 1017 840 1029 q 661 1007 747 1006 m 554 1135 q 563 1180 554 1163 q 585 1210 572 1197 q 606 1237 597 1224 q 615 1268 615 1250 q 599 1308 615 1296 q 556 1321 582 1321 q 515 1309 531 1321 q 499 1282 499 1297 q 505 1265 499 1269 q 517 1256 511 1261 q 522 1235 522 1250 q 508 1210 522 1218 q 474 1201 493 1201 q 432 1217 449 1201 q 415 1260 415 1233 q 435 1329 415 1303 q 487 1367 456 1356 q 554 1379 518 1379 q 661 1351 624 1379 q 699 1271 699 1324 q 685 1218 699 1236 q 652 1189 671 1200 q 618 1166 633 1178 q 600 1135 603 1154 l 554 1135 z "},"Ỡ":{"ha":1115,"x_min":58,"x_max":1057,"o":"m 557 -17 q 361 27 451 -17 q 203 147 271 71 q 97 319 135 222 q 58 525 58 417 q 97 729 58 632 q 203 901 135 826 q 361 1019 271 976 q 557 1063 451 1063 q 753 1019 663 1063 q 913 901 844 976 q 1019 729 981 826 q 1057 525 1057 632 q 1019 319 1057 417 q 913 147 981 222 q 753 27 844 71 q 557 -17 663 -17 m 557 28 q 676 50 626 28 q 756 127 725 72 q 800 278 786 182 q 814 524 814 375 q 800 768 814 672 q 756 919 786 864 q 676 995 725 974 q 557 1017 626 1017 q 438 995 486 1017 q 359 919 389 974 q 315 769 329 865 q 301 525 301 672 q 315 278 301 375 q 360 126 329 181 q 438 49 390 71 q 557 28 486 28 m 661 1007 l 658 1050 q 754 1076 732 1050 q 779 1160 776 1103 l 876 1160 q 858 1063 876 1097 q 794 1017 840 1029 q 661 1007 747 1006 m 300 1172 q 331 1258 307 1217 q 391 1327 354 1300 q 478 1354 428 1354 q 547 1339 515 1354 q 607 1308 578 1324 q 668 1293 636 1293 q 738 1315 715 1293 q 769 1356 761 1336 l 817 1356 q 785 1269 807 1311 q 726 1200 763 1226 q 638 1174 690 1174 q 568 1189 599 1174 q 509 1219 538 1204 q 447 1235 481 1235 q 381 1217 408 1235 q 346 1172 354 1199 l 300 1172 z "},"Ő":{"ha":1115,"x_min":58,"x_max":1057,"o":"m 557 -17 q 361 27 451 -17 q 203 147 271 71 q 97 319 135 222 q 58 525 58 417 q 97 729 58 632 q 203 901 135 826 q 361 1019 271 976 q 557 1063 451 1063 q 753 1019 663 1063 q 913 901 844 976 q 1019 729 981 826 q 1057 525 1057 632 q 1019 319 1057 417 q 913 147 981 222 q 753 27 844 71 q 557 -17 663 -17 m 557 28 q 676 50 626 28 q 756 127 725 72 q 800 278 786 182 q 814 524 814 375 q 800 768 814 672 q 756 919 786 864 q 676 995 725 974 q 557 1017 626 1017 q 438 995 486 1017 q 359 919 389 974 q 315 769 329 865 q 301 525 301 672 q 315 278 301 375 q 360 126 329 181 q 438 49 390 71 q 557 28 486 28 m 515 1172 l 710 1308 q 770 1348 750 1338 q 813 1358 790 1358 q 861 1341 844 1358 q 878 1297 878 1324 q 862 1251 878 1272 q 806 1221 846 1231 l 589 1172 l 515 1172 m 238 1172 l 432 1308 q 492 1348 472 1338 q 535 1358 513 1358 q 583 1341 567 1358 q 600 1297 600 1324 q 584 1251 600 1272 q 528 1221 568 1231 l 311 1172 l 238 1172 z "},"Ȏ":{"ha":1115,"x_min":58,"x_max":1057,"o":"m 557 -17 q 361 27 451 -17 q 203 147 271 71 q 97 319 135 222 q 58 525 58 417 q 97 729 58 632 q 203 901 135 826 q 361 1019 271 976 q 557 1063 451 1063 q 753 1019 663 1063 q 913 901 844 976 q 1019 729 981 826 q 1057 525 1057 632 q 1019 319 1057 417 q 913 147 981 222 q 753 27 844 71 q 557 -17 663 -17 m 557 28 q 676 50 626 28 q 756 127 725 72 q 800 278 786 182 q 814 524 814 375 q 800 768 814 672 q 756 919 786 864 q 676 995 725 974 q 557 1017 626 1017 q 438 995 486 1017 q 359 919 389 974 q 315 769 329 865 q 301 525 301 672 q 315 278 301 375 q 360 126 329 181 q 438 49 390 71 q 557 28 486 28 m 333 1172 q 391 1308 333 1257 q 558 1358 449 1358 q 728 1306 674 1358 q 782 1172 782 1253 l 728 1172 q 677 1228 725 1210 q 556 1247 629 1247 q 437 1230 483 1247 q 388 1172 390 1213 l 333 1172 z "},"Ō":{"ha":1115,"x_min":58,"x_max":1057,"o":"m 557 -17 q 361 27 451 -17 q 203 147 271 71 q 97 319 135 222 q 58 525 58 417 q 97 729 58 632 q 203 901 135 826 q 361 1019 271 976 q 557 1063 451 1063 q 753 1019 663 1063 q 913 901 844 976 q 1019 729 981 826 q 1057 525 1057 632 q 1019 319 1057 417 q 913 147 981 222 q 753 27 844 71 q 557 -17 663 -17 m 557 28 q 676 50 626 28 q 756 127 725 72 q 800 278 786 182 q 814 524 814 375 q 800 768 814 672 q 756 919 786 864 q 676 995 725 974 q 557 1017 626 1017 q 438 995 486 1017 q 359 919 389 974 q 315 769 329 865 q 301 525 301 672 q 315 278 301 375 q 360 126 329 181 q 438 49 390 71 q 557 28 486 28 m 333 1182 l 333 1288 l 792 1288 l 792 1182 l 333 1182 z "},"Ǫ":{"ha":1115,"x_min":58,"x_max":1057,"o":"m 557 -17 q 361 27 451 -17 q 203 147 271 71 q 97 319 135 222 q 58 525 58 417 q 97 729 58 632 q 203 901 135 826 q 361 1019 271 976 q 557 1063 451 1063 q 753 1019 663 1063 q 913 901 844 976 q 1019 729 981 826 q 1057 525 1057 632 q 1019 319 1057 417 q 913 147 981 222 q 753 27 844 71 q 557 -17 663 -17 m 557 28 q 676 50 626 28 q 756 127 725 72 q 800 278 786 182 q 814 524 814 375 q 800 768 814 672 q 756 919 786 864 q 676 995 725 974 q 557 1017 626 1017 q 438 995 486 1017 q 359 919 389 974 q 315 769 329 865 q 301 525 301 672 q 315 278 301 375 q 360 126 329 181 q 438 49 390 71 q 557 28 486 28 m 586 -337 q 496 -306 531 -337 q 461 -222 461 -274 q 481 -151 461 -186 q 544 -76 500 -117 q 663 14 588 -36 l 719 14 q 610 -101 649 -43 q 572 -208 572 -158 q 629 -272 572 -272 q 669 -263 649 -272 q 715 -235 689 -254 l 721 -235 l 721 -278 q 663 -321 699 -304 q 586 -337 626 -337 z "},"Ø":{"ha":1094,"x_min":49,"x_max":1046,"o":"m 547 -18 q 351 26 442 -18 q 193 147 261 71 q 87 321 125 224 q 49 526 49 418 q 87 728 49 632 q 193 899 125 825 q 351 1017 261 974 q 547 1060 442 1060 q 742 1017 651 1060 q 901 899 833 974 q 1008 728 969 825 q 1046 526 1046 632 q 1008 321 1046 418 q 901 147 969 224 q 742 26 833 71 q 547 -18 651 -18 m 131 -74 l 901 1117 l 968 1117 l 197 -74 l 131 -74 m 546 28 q 666 49 617 28 q 745 126 715 71 q 789 277 775 181 q 803 524 803 374 q 789 769 803 674 q 745 918 775 864 q 666 994 715 972 q 546 1015 617 1015 q 426 994 475 1015 q 349 919 378 972 q 306 770 319 865 q 292 526 292 675 q 306 276 292 374 q 349 125 319 179 q 428 49 379 71 q 546 28 476 28 z "},"Ǿ":{"ha":1094,"x_min":49,"x_max":1046,"o":"m 547 -18 q 351 26 442 -18 q 193 147 261 71 q 87 321 125 224 q 49 526 49 418 q 87 728 49 632 q 193 899 125 825 q 351 1017 261 974 q 547 1060 442 1060 q 742 1017 651 1060 q 901 899 833 974 q 1008 728 969 825 q 1046 526 1046 632 q 1008 321 1046 418 q 901 147 969 224 q 742 26 833 71 q 547 -18 651 -18 m 131 -74 l 901 1117 l 968 1117 l 197 -74 l 131 -74 m 546 28 q 666 49 617 28 q 745 126 715 71 q 789 277 775 181 q 803 524 803 374 q 789 769 803 674 q 745 918 775 864 q 666 994 715 972 q 546 1015 617 1015 q 426 994 475 1015 q 349 919 378 972 q 306 770 319 865 q 292 526 292 675 q 306 276 292 374 q 349 125 319 179 q 428 49 379 71 q 546 28 476 28 m 353 1172 l 569 1311 q 634 1349 613 1339 q 678 1358 656 1358 q 726 1341 710 1358 q 743 1297 743 1324 q 727 1251 743 1272 q 671 1221 711 1229 l 426 1172 l 353 1172 z "},"Õ":{"ha":1115,"x_min":58,"x_max":1057,"o":"m 557 -17 q 361 27 451 -17 q 203 147 271 71 q 97 319 135 222 q 58 525 58 417 q 97 729 58 632 q 203 901 135 826 q 361 1019 271 976 q 557 1063 451 1063 q 753 1019 663 1063 q 913 901 844 976 q 1019 729 981 826 q 1057 525 1057 632 q 1019 319 1057 417 q 913 147 981 222 q 753 27 844 71 q 557 -17 663 -17 m 557 28 q 676 50 626 28 q 756 127 725 72 q 800 278 786 182 q 814 524 814 375 q 800 768 814 672 q 756 919 786 864 q 676 995 725 974 q 557 1017 626 1017 q 438 995 486 1017 q 359 919 389 974 q 315 769 329 865 q 301 525 301 672 q 315 278 301 375 q 360 126 329 181 q 438 49 390 71 q 557 28 486 28 m 300 1172 q 331 1258 307 1217 q 391 1327 354 1300 q 478 1354 428 1354 q 547 1339 515 1354 q 607 1308 578 1324 q 668 1293 636 1293 q 738 1315 715 1293 q 769 1356 761 1336 l 817 1356 q 785 1269 807 1311 q 726 1200 763 1226 q 638 1174 690 1174 q 568 1189 599 1174 q 509 1219 538 1204 q 447 1235 481 1235 q 381 1217 408 1235 q 346 1172 354 1199 l 300 1172 z "},"Œ":{"ha":1578,"x_min":49,"x_max":1528,"o":"m 547 0 q 352 43 443 0 q 193 160 261 86 q 87 328 125 233 q 49 526 49 422 q 87 724 49 629 q 193 891 125 818 q 351 1006 261 964 q 547 1047 442 1047 l 1497 1047 l 1497 767 l 1444 767 q 1416 887 1443 832 q 1340 976 1389 942 q 1222 1010 1292 1010 l 996 1010 l 996 538 q 1133 557 1083 539 q 1205 616 1183 575 q 1228 724 1226 657 l 1279 724 l 1279 300 l 1228 300 q 1204 415 1226 372 q 1133 479 1182 458 q 996 500 1083 500 l 996 39 l 1243 39 q 1367 80 1317 39 q 1447 188 1418 121 q 1476 333 1475 254 l 1528 333 l 1528 0 l 547 0 m 546 46 q 658 66 611 46 q 733 138 704 86 q 776 282 763 190 q 789 517 789 374 q 776 759 789 664 q 733 907 763 854 q 658 981 704 960 q 546 1003 611 1003 q 426 982 475 1003 q 349 909 378 961 q 306 765 319 857 q 292 526 292 672 q 306 286 292 381 q 349 140 319 192 q 428 67 379 88 q 546 46 476 46 z "},"P":{"ha":961,"x_min":22,"x_max":936,"o":"m 342 475 l 342 517 l 457 517 q 594 537 542 517 q 672 613 647 557 q 696 774 696 668 q 676 923 696 872 q 617 992 657 974 q 519 1010 578 1010 l 22 1010 l 22 1047 l 582 1047 q 762 1011 682 1047 q 889 912 842 975 q 936 767 936 849 q 878 615 936 681 q 714 512 821 549 q 457 475 607 475 l 342 475 m 22 0 l 22 39 l 539 39 l 539 0 l 22 0 m 164 21 l 164 1047 l 367 1047 l 367 21 l 164 21 z "},"Þ":{"ha":958,"x_min":26,"x_max":940,"o":"m 26 0 l 26 39 l 168 39 l 168 1008 l 26 1008 l 26 1047 l 543 1047 l 543 1008 l 371 1008 l 371 822 l 586 822 q 766 786 686 822 q 893 687 846 750 q 940 542 940 624 q 883 390 940 456 q 718 287 825 324 q 461 250 611 250 l 371 250 l 371 39 l 543 39 l 543 0 l 26 0 m 371 292 l 461 292 q 599 312 546 292 q 676 388 651 332 q 700 549 700 443 q 681 698 700 647 q 622 767 661 749 q 524 785 582 785 l 371 785 l 371 292 z "},"Q":{"ha":1115,"x_min":60,"x_max":1057,"o":"m 557 -17 q 363 27 453 -17 q 204 147 272 71 q 98 319 136 222 q 60 525 60 417 q 98 729 60 632 q 204 901 136 826 q 363 1019 272 976 q 557 1063 453 1063 q 753 1019 663 1063 q 913 901 844 976 q 1019 729 981 826 q 1057 525 1057 632 q 1019 319 1057 417 q 913 147 981 222 q 753 27 844 71 q 557 -17 663 -17 m 972 -342 q 656 -309 774 -342 q 485 -199 538 -276 q 433 10 433 -122 l 685 10 q 682 -31 683 -10 q 681 -67 681 -51 q 715 -210 681 -161 q 814 -278 749 -260 q 972 -296 879 -296 l 972 -342 m 557 28 q 676 50 628 28 q 756 127 725 72 q 800 278 786 182 q 814 524 814 375 q 800 769 814 672 q 756 919 786 865 q 676 995 725 974 q 556 1017 626 1017 q 438 995 486 1017 q 359 919 389 974 q 316 769 329 865 q 303 525 303 672 q 316 278 303 375 q 360 126 329 181 q 439 50 390 72 q 557 28 488 28 z "},"R":{"ha":994,"x_min":24,"x_max":1018,"o":"m 343 542 l 343 583 l 458 583 q 580 601 533 583 q 648 666 626 618 q 669 806 669 714 q 651 935 669 892 q 597 994 633 979 q 507 1010 561 1010 l 24 1010 l 24 1047 l 569 1047 q 741 1019 664 1047 q 864 938 818 990 q 910 808 910 885 q 856 666 910 726 q 701 574 801 606 q 458 542 600 542 l 343 542 m 24 0 l 24 39 l 540 39 l 540 0 l 24 0 m 165 21 l 165 1047 l 368 1047 l 368 21 l 165 21 m 883 0 q 760 26 815 0 q 672 101 704 53 q 636 213 639 149 l 631 343 q 574 493 626 444 q 443 542 522 542 l 549 553 l 621 553 l 621 547 q 739 493 682 533 q 833 396 796 453 q 869 272 869 339 l 869 206 q 890 75 869 110 q 965 40 911 40 l 1018 40 l 1018 0 l 883 0 z "},"Ŕ":{"ha":994,"x_min":24,"x_max":1018,"o":"m 343 542 l 343 583 l 458 583 q 580 601 533 583 q 648 666 626 618 q 669 806 669 714 q 651 935 669 892 q 597 994 633 979 q 507 1010 561 1010 l 24 1010 l 24 1047 l 569 1047 q 741 1019 664 1047 q 864 938 818 990 q 910 808 910 885 q 856 666 910 726 q 701 574 801 606 q 458 542 600 542 l 343 542 m 24 0 l 24 39 l 540 39 l 540 0 l 24 0 m 165 21 l 165 1047 l 368 1047 l 368 21 l 165 21 m 883 0 q 760 26 815 0 q 672 101 704 53 q 636 213 639 149 l 631 343 q 574 493 626 444 q 443 542 522 542 l 549 553 l 621 553 l 621 547 q 739 493 682 533 q 833 396 796 453 q 869 272 869 339 l 869 206 q 890 75 869 110 q 965 40 911 40 l 1018 40 l 1018 0 l 883 0 m 303 1172 l 519 1311 q 584 1349 563 1339 q 628 1358 606 1358 q 676 1341 660 1358 q 693 1297 693 1324 q 677 1251 693 1272 q 621 1221 661 1229 l 376 1172 l 303 1172 z "},"Ř":{"ha":994,"x_min":24,"x_max":1018,"o":"m 343 542 l 343 583 l 458 583 q 580 601 533 583 q 648 666 626 618 q 669 806 669 714 q 651 935 669 892 q 597 994 633 979 q 507 1010 561 1010 l 24 1010 l 24 1047 l 569 1047 q 741 1019 664 1047 q 864 938 818 990 q 910 808 910 885 q 856 666 910 726 q 701 574 801 606 q 458 542 600 542 l 343 542 m 24 0 l 24 39 l 540 39 l 540 0 l 24 0 m 165 21 l 165 1047 l 368 1047 l 368 21 l 165 21 m 883 0 q 760 26 815 0 q 672 101 704 53 q 636 213 639 149 l 631 343 q 574 493 626 444 q 443 542 522 542 l 549 553 l 621 553 l 621 547 q 739 493 682 533 q 833 396 796 453 q 869 272 869 339 l 869 206 q 890 75 869 110 q 965 40 911 40 l 1018 40 l 1018 0 l 883 0 m 454 1172 l 244 1358 l 311 1358 l 497 1286 l 683 1358 l 750 1358 l 540 1172 l 454 1172 z "},"Ŗ":{"ha":994,"x_min":24,"x_max":1018,"o":"m 343 542 l 343 583 l 458 583 q 580 601 533 583 q 648 666 626 618 q 669 806 669 714 q 651 935 669 892 q 597 994 633 979 q 507 1010 561 1010 l 24 1010 l 24 1047 l 569 1047 q 741 1019 664 1047 q 864 938 818 990 q 910 808 910 885 q 856 666 910 726 q 701 574 801 606 q 458 542 600 542 l 343 542 m 24 0 l 24 39 l 540 39 l 540 0 l 24 0 m 165 21 l 165 1047 l 368 1047 l 368 21 l 165 21 m 883 0 q 760 26 815 0 q 672 101 704 53 q 636 213 639 149 l 631 343 q 574 493 626 444 q 443 542 522 542 l 549 553 l 621 553 l 621 547 q 739 493 682 533 q 833 396 796 453 q 869 272 869 339 l 869 206 q 890 75 869 110 q 965 40 911 40 l 1018 40 l 1018 0 l 883 0 m 450 -432 l 422 -401 q 526 -328 494 -362 q 557 -256 557 -294 q 553 -237 557 -242 q 543 -232 549 -232 q 526 -242 536 -232 q 501 -263 517 -253 q 461 -274 486 -274 q 408 -251 429 -274 q 388 -193 388 -228 q 415 -128 388 -153 q 488 -103 443 -103 q 576 -142 544 -103 q 608 -240 608 -182 q 568 -348 608 -303 q 450 -432 528 -393 z "},"Ȑ":{"ha":994,"x_min":24,"x_max":1018,"o":"m 343 542 l 343 583 l 458 583 q 580 601 533 583 q 648 666 626 618 q 669 806 669 714 q 651 935 669 892 q 597 994 633 979 q 507 1010 561 1010 l 24 1010 l 24 1047 l 569 1047 q 741 1019 664 1047 q 864 938 818 990 q 910 808 910 885 q 856 666 910 726 q 701 574 801 606 q 458 542 600 542 l 343 542 m 24 0 l 24 39 l 540 39 l 540 0 l 24 0 m 165 21 l 165 1047 l 368 1047 l 368 21 l 165 21 m 883 0 q 760 26 815 0 q 672 101 704 53 q 636 213 639 149 l 631 343 q 574 493 626 444 q 443 542 522 542 l 549 553 l 621 553 l 621 547 q 739 493 682 533 q 833 396 796 453 q 869 272 869 339 l 869 206 q 890 75 869 110 q 965 40 911 40 l 1018 40 l 1018 0 l 883 0 m 744 1172 l 528 1221 q 472 1251 488 1231 q 456 1297 456 1272 q 472 1341 456 1324 q 521 1358 489 1358 q 564 1348 544 1358 q 624 1308 583 1338 l 818 1172 l 744 1172 m 467 1172 l 250 1221 q 194 1251 210 1231 q 178 1297 178 1272 q 194 1341 178 1324 q 243 1358 211 1358 q 286 1348 267 1358 q 346 1308 306 1338 l 540 1172 l 467 1172 z "},"Ṛ":{"ha":994,"x_min":24,"x_max":1018,"o":"m 343 542 l 343 583 l 458 583 q 580 601 533 583 q 648 666 626 618 q 669 806 669 714 q 651 935 669 892 q 597 994 633 979 q 507 1010 561 1010 l 24 1010 l 24 1047 l 569 1047 q 741 1019 664 1047 q 864 938 818 990 q 910 808 910 885 q 856 666 910 726 q 701 574 801 606 q 458 542 600 542 l 343 542 m 24 0 l 24 39 l 540 39 l 540 0 l 24 0 m 165 21 l 165 1047 l 368 1047 l 368 21 l 165 21 m 883 0 q 760 26 815 0 q 672 101 704 53 q 636 213 639 149 l 631 343 q 574 493 626 444 q 443 542 522 542 l 549 553 l 621 553 l 621 547 q 739 493 682 533 q 833 396 796 453 q 869 272 869 339 l 869 206 q 890 75 869 110 q 965 40 911 40 l 1018 40 l 1018 0 l 883 0 m 497 -340 q 426 -310 457 -340 q 396 -239 396 -281 q 426 -167 396 -197 q 497 -137 457 -137 q 569 -167 539 -137 q 600 -239 600 -197 q 569 -310 600 -281 q 497 -340 539 -340 z "},"Ȓ":{"ha":994,"x_min":24,"x_max":1018,"o":"m 343 542 l 343 583 l 458 583 q 580 601 533 583 q 648 666 626 618 q 669 806 669 714 q 651 935 669 892 q 597 994 633 979 q 507 1010 561 1010 l 24 1010 l 24 1047 l 569 1047 q 741 1019 664 1047 q 864 938 818 990 q 910 808 910 885 q 856 666 910 726 q 701 574 801 606 q 458 542 600 542 l 343 542 m 24 0 l 24 39 l 540 39 l 540 0 l 24 0 m 165 21 l 165 1047 l 368 1047 l 368 21 l 165 21 m 883 0 q 760 26 815 0 q 672 101 704 53 q 636 213 639 149 l 631 343 q 574 493 626 444 q 443 542 522 542 l 549 553 l 621 553 l 621 547 q 739 493 682 533 q 833 396 796 453 q 869 272 869 339 l 869 206 q 890 75 869 110 q 965 40 911 40 l 1018 40 l 1018 0 l 883 0 m 272 1172 q 330 1308 272 1257 q 497 1358 388 1358 q 667 1306 613 1358 q 721 1172 721 1253 l 667 1172 q 616 1228 664 1210 q 494 1247 568 1247 q 376 1230 422 1247 q 326 1172 329 1213 l 272 1172 z "},"S":{"ha":794,"x_min":63,"x_max":742,"o":"m 404 -17 q 267 6 324 -17 q 158 67 210 28 l 100 0 l 63 0 l 63 292 l 101 292 q 155 165 118 225 q 253 67 192 104 q 407 29 315 29 q 538 56 486 29 q 617 128 590 83 q 643 225 643 174 q 621 308 643 275 q 561 363 599 342 q 476 399 524 385 q 379 425 429 414 q 212 492 281 450 q 108 597 143 533 q 72 750 72 661 q 117 924 72 854 q 236 1028 163 993 q 393 1063 310 1063 q 506 1044 457 1063 q 610 988 556 1025 l 654 1047 l 693 1047 l 693 764 l 656 764 q 551 956 618 896 q 389 1017 485 1017 q 281 996 331 1017 q 203 938 232 975 q 174 851 174 900 q 195 778 174 807 q 253 732 217 750 q 335 701 290 714 q 429 676 381 689 q 601 608 532 651 q 706 497 671 565 q 742 326 742 428 q 654 74 742 165 q 404 -17 567 -17 z "},"Ś":{"ha":794,"x_min":63,"x_max":742,"o":"m 404 -17 q 267 6 324 -17 q 158 67 210 28 l 100 0 l 63 0 l 63 292 l 101 292 q 155 165 118 225 q 253 67 192 104 q 407 29 315 29 q 538 56 486 29 q 617 128 590 83 q 643 225 643 174 q 621 308 643 275 q 561 363 599 342 q 476 399 524 385 q 379 425 429 414 q 212 492 281 450 q 108 597 143 533 q 72 750 72 661 q 117 924 72 854 q 236 1028 163 993 q 393 1063 310 1063 q 506 1044 457 1063 q 610 988 556 1025 l 654 1047 l 693 1047 l 693 764 l 656 764 q 551 956 618 896 q 389 1017 485 1017 q 281 996 331 1017 q 203 938 232 975 q 174 851 174 900 q 195 778 174 807 q 253 732 217 750 q 335 701 290 714 q 429 676 381 689 q 601 608 532 651 q 706 497 671 565 q 742 326 742 428 q 654 74 742 165 q 404 -17 567 -17 m 203 1172 l 419 1311 q 484 1349 463 1339 q 528 1358 506 1358 q 576 1341 560 1358 q 593 1297 593 1324 q 577 1251 593 1272 q 521 1221 561 1229 l 276 1172 l 203 1172 z "},"Š":{"ha":794,"x_min":63,"x_max":742,"o":"m 404 -17 q 267 6 324 -17 q 158 67 210 28 l 100 0 l 63 0 l 63 292 l 101 292 q 155 165 118 225 q 253 67 192 104 q 407 29 315 29 q 538 56 486 29 q 617 128 590 83 q 643 225 643 174 q 621 308 643 275 q 561 363 599 342 q 476 399 524 385 q 379 425 429 414 q 212 492 281 450 q 108 597 143 533 q 72 750 72 661 q 117 924 72 854 q 236 1028 163 993 q 393 1063 310 1063 q 506 1044 457 1063 q 610 988 556 1025 l 654 1047 l 693 1047 l 693 764 l 656 764 q 551 956 618 896 q 389 1017 485 1017 q 281 996 331 1017 q 203 938 232 975 q 174 851 174 900 q 195 778 174 807 q 253 732 217 750 q 335 701 290 714 q 429 676 381 689 q 601 608 532 651 q 706 497 671 565 q 742 326 742 428 q 654 74 742 165 q 404 -17 567 -17 m 354 1172 l 144 1358 l 211 1358 l 397 1286 l 583 1358 l 650 1358 l 440 1172 l 354 1172 z "},"Ş":{"ha":794,"x_min":63,"x_max":742,"o":"m 404 -17 q 267 6 324 -17 q 158 67 210 28 l 100 0 l 63 0 l 63 292 l 101 292 q 155 165 118 225 q 253 67 192 104 q 407 29 315 29 q 538 56 486 29 q 617 128 590 83 q 643 225 643 174 q 621 308 643 275 q 561 363 599 342 q 476 399 524 385 q 379 425 429 414 q 212 492 281 450 q 108 597 143 533 q 72 750 72 661 q 117 924 72 854 q 236 1028 163 993 q 393 1063 310 1063 q 506 1044 457 1063 q 610 988 556 1025 l 654 1047 l 693 1047 l 693 764 l 656 764 q 551 956 618 896 q 389 1017 485 1017 q 281 996 331 1017 q 203 938 232 975 q 174 851 174 900 q 195 778 174 807 q 253 732 217 750 q 335 701 290 714 q 429 676 381 689 q 601 608 532 651 q 706 497 671 565 q 742 326 742 428 q 654 74 742 165 q 404 -17 567 -17 m 357 -319 q 286 -311 315 -319 q 246 -296 257 -303 l 261 -256 q 295 -266 272 -261 q 339 -271 318 -271 q 400 -254 378 -271 q 422 -204 422 -237 q 315 -132 422 -133 l 365 14 l 418 14 l 385 -92 l 411 -92 q 512 -117 474 -92 q 550 -192 550 -143 q 497 -285 550 -251 q 357 -319 443 -319 z "},"Ŝ":{"ha":794,"x_min":63,"x_max":742,"o":"m 404 -17 q 267 6 324 -17 q 158 67 210 28 l 100 0 l 63 0 l 63 292 l 101 292 q 155 165 118 225 q 253 67 192 104 q 407 29 315 29 q 538 56 486 29 q 617 128 590 83 q 643 225 643 174 q 621 308 643 275 q 561 363 599 342 q 476 399 524 385 q 379 425 429 414 q 212 492 281 450 q 108 597 143 533 q 72 750 72 661 q 117 924 72 854 q 236 1028 163 993 q 393 1063 310 1063 q 506 1044 457 1063 q 610 988 556 1025 l 654 1047 l 693 1047 l 693 764 l 656 764 q 551 956 618 896 q 389 1017 485 1017 q 281 996 331 1017 q 203 938 232 975 q 174 851 174 900 q 195 778 174 807 q 253 732 217 750 q 335 701 290 714 q 429 676 381 689 q 601 608 532 651 q 706 497 671 565 q 742 326 742 428 q 654 74 742 165 q 404 -17 567 -17 m 144 1172 l 354 1358 l 440 1358 l 650 1172 l 583 1172 l 397 1243 l 211 1172 l 144 1172 z "},"Ș":{"ha":794,"x_min":63,"x_max":742,"o":"m 404 -17 q 267 6 324 -17 q 158 67 210 28 l 100 0 l 63 0 l 63 292 l 101 292 q 155 165 118 225 q 253 67 192 104 q 407 29 315 29 q 538 56 486 29 q 617 128 590 83 q 643 225 643 174 q 621 308 643 275 q 561 363 599 342 q 476 399 524 385 q 379 425 429 414 q 212 492 281 450 q 108 597 143 533 q 72 750 72 661 q 117 924 72 854 q 236 1028 163 993 q 393 1063 310 1063 q 506 1044 457 1063 q 610 988 556 1025 l 654 1047 l 693 1047 l 693 764 l 656 764 q 551 956 618 896 q 389 1017 485 1017 q 281 996 331 1017 q 203 938 232 975 q 174 851 174 900 q 195 778 174 807 q 253 732 217 750 q 335 701 290 714 q 429 676 381 689 q 601 608 532 651 q 706 497 671 565 q 742 326 742 428 q 654 74 742 165 q 404 -17 567 -17 m 350 -432 l 322 -401 q 426 -328 394 -362 q 457 -256 457 -294 q 453 -237 457 -242 q 443 -232 449 -232 q 426 -242 436 -232 q 401 -263 417 -253 q 361 -274 386 -274 q 308 -251 329 -274 q 288 -193 288 -228 q 315 -128 288 -153 q 388 -103 343 -103 q 476 -142 444 -103 q 508 -240 508 -182 q 468 -348 508 -303 q 350 -432 428 -393 z "},"Ṣ":{"ha":794,"x_min":63,"x_max":742,"o":"m 404 -17 q 267 6 324 -17 q 158 67 210 28 l 100 0 l 63 0 l 63 292 l 101 292 q 155 165 118 225 q 253 67 192 104 q 407 29 315 29 q 538 56 486 29 q 617 128 590 83 q 643 225 643 174 q 621 308 643 275 q 561 363 599 342 q 476 399 524 385 q 379 425 429 414 q 212 492 281 450 q 108 597 143 533 q 72 750 72 661 q 117 924 72 854 q 236 1028 163 993 q 393 1063 310 1063 q 506 1044 457 1063 q 610 988 556 1025 l 654 1047 l 693 1047 l 693 764 l 656 764 q 551 956 618 896 q 389 1017 485 1017 q 281 996 331 1017 q 203 938 232 975 q 174 851 174 900 q 195 778 174 807 q 253 732 217 750 q 335 701 290 714 q 429 676 381 689 q 601 608 532 651 q 706 497 671 565 q 742 326 742 428 q 654 74 742 165 q 404 -17 567 -17 m 397 -340 q 326 -310 357 -340 q 296 -239 296 -281 q 326 -167 296 -197 q 397 -137 357 -137 q 469 -167 439 -137 q 500 -239 500 -197 q 469 -310 500 -281 q 397 -340 439 -340 z "},"T":{"ha":993,"x_min":31,"x_max":963,"o":"m 221 0 l 221 39 l 399 39 l 399 1010 l 311 1010 q 190 965 240 1008 q 112 854 139 922 q 83 707 85 786 l 31 707 l 31 1047 l 963 1047 l 963 707 l 911 707 q 881 856 910 788 q 802 967 853 925 q 678 1010 751 1010 l 601 1010 l 601 39 l 774 39 l 774 0 l 221 0 z "},"Ŧ":{"ha":993,"x_min":31,"x_max":963,"o":"m 233 494 l 233 551 l 761 551 l 761 494 l 233 494 m 221 0 l 221 39 l 399 39 l 399 1010 l 311 1010 q 190 965 240 1008 q 112 854 139 922 q 83 707 85 786 l 31 707 l 31 1047 l 963 1047 l 963 707 l 911 707 q 881 856 910 788 q 802 967 853 925 q 678 1010 751 1010 l 601 1010 l 601 39 l 774 39 l 774 0 l 221 0 z "},"Ť":{"ha":993,"x_min":31,"x_max":963,"o":"m 221 0 l 221 39 l 399 39 l 399 1010 l 311 1010 q 190 965 240 1008 q 112 854 139 922 q 83 707 85 786 l 31 707 l 31 1047 l 963 1047 l 963 707 l 911 707 q 881 856 910 788 q 802 967 853 925 q 678 1010 751 1010 l 601 1010 l 601 39 l 774 39 l 774 0 l 221 0 m 454 1172 l 244 1358 l 311 1358 l 497 1286 l 683 1358 l 750 1358 l 540 1172 l 454 1172 z "},"Ţ":{"ha":993,"x_min":31,"x_max":963,"o":"m 221 0 l 221 39 l 399 39 l 399 1010 l 311 1010 q 190 965 240 1008 q 112 854 139 922 q 83 707 85 786 l 31 707 l 31 1047 l 963 1047 l 963 707 l 911 707 q 881 856 910 788 q 802 967 853 925 q 678 1010 751 1010 l 601 1010 l 601 39 l 774 39 l 774 0 l 221 0 m 456 -319 q 385 -311 414 -319 q 344 -296 356 -303 l 360 -256 q 394 -266 371 -261 q 438 -271 417 -271 q 499 -254 476 -271 q 521 -204 521 -237 q 414 -132 521 -133 l 464 14 l 517 14 l 483 -92 l 510 -92 q 610 -117 572 -92 q 649 -192 649 -143 q 595 -285 649 -251 q 456 -319 542 -319 z "},"Ț":{"ha":993,"x_min":31,"x_max":963,"o":"m 221 0 l 221 39 l 399 39 l 399 1010 l 311 1010 q 190 965 240 1008 q 112 854 139 922 q 83 707 85 786 l 31 707 l 31 1047 l 963 1047 l 963 707 l 911 707 q 881 856 910 788 q 802 967 853 925 q 678 1010 751 1010 l 601 1010 l 601 39 l 774 39 l 774 0 l 221 0 m 449 -432 l 421 -401 q 524 -328 493 -362 q 556 -256 556 -294 q 551 -237 556 -242 q 542 -232 547 -232 q 525 -242 535 -232 q 500 -263 515 -253 q 460 -274 485 -274 q 407 -251 428 -274 q 386 -193 386 -228 q 414 -128 386 -153 q 486 -103 442 -103 q 575 -142 543 -103 q 607 -240 607 -182 q 567 -348 607 -303 q 449 -432 526 -393 z "},"Ṭ":{"ha":993,"x_min":31,"x_max":963,"o":"m 221 0 l 221 39 l 399 39 l 399 1010 l 311 1010 q 190 965 240 1008 q 112 854 139 922 q 83 707 85 786 l 31 707 l 31 1047 l 963 1047 l 963 707 l 911 707 q 881 856 910 788 q 802 967 853 925 q 678 1010 751 1010 l 601 1010 l 601 39 l 774 39 l 774 0 l 221 0 m 496 -340 q 425 -310 456 -340 q 394 -239 394 -281 q 425 -167 394 -197 q 496 -137 456 -137 q 568 -167 538 -137 q 599 -239 599 -197 q 568 -310 599 -281 q 496 -340 538 -340 z "},"U":{"ha":1050,"x_min":15,"x_max":1038,"o":"m 549 -17 q 347 15 433 -17 q 212 110 260 46 q 164 271 164 174 l 164 1010 l 15 1010 l 15 1047 l 506 1047 l 506 1010 l 367 1010 l 367 275 q 428 90 367 146 q 597 35 490 35 q 777 94 711 35 q 843 275 843 154 l 843 1010 l 704 1010 l 704 1047 l 1038 1047 l 1038 1010 l 892 1010 l 892 272 q 806 53 892 122 q 549 -17 721 -17 z "},"Ú":{"ha":1050,"x_min":15,"x_max":1038,"o":"m 549 -17 q 347 15 433 -17 q 212 110 260 46 q 164 271 164 174 l 164 1010 l 15 1010 l 15 1047 l 506 1047 l 506 1010 l 367 1010 l 367 275 q 428 90 367 146 q 597 35 490 35 q 777 94 711 35 q 843 275 843 154 l 843 1010 l 704 1010 l 704 1047 l 1038 1047 l 1038 1010 l 892 1010 l 892 272 q 806 53 892 122 q 549 -17 721 -17 m 354 1172 l 571 1311 q 635 1349 614 1339 q 679 1358 657 1358 q 728 1341 711 1358 q 744 1297 744 1324 q 728 1251 744 1272 q 672 1221 713 1229 l 428 1172 l 354 1172 z "},"Ŭ":{"ha":1050,"x_min":15,"x_max":1038,"o":"m 549 -17 q 347 15 433 -17 q 212 110 260 46 q 164 271 164 174 l 164 1010 l 15 1010 l 15 1047 l 506 1047 l 506 1010 l 367 1010 l 367 275 q 428 90 367 146 q 597 35 490 35 q 777 94 711 35 q 843 275 843 154 l 843 1010 l 704 1010 l 704 1047 l 1038 1047 l 1038 1010 l 892 1010 l 892 272 q 806 53 892 122 q 549 -17 721 -17 m 549 1172 q 381 1223 439 1172 q 324 1358 324 1274 l 378 1358 q 427 1301 381 1318 q 546 1283 474 1283 q 667 1302 619 1283 q 718 1358 715 1321 l 772 1358 q 718 1225 772 1278 q 549 1172 664 1172 z "},"Û":{"ha":1050,"x_min":15,"x_max":1038,"o":"m 549 -17 q 347 15 433 -17 q 212 110 260 46 q 164 271 164 174 l 164 1010 l 15 1010 l 15 1047 l 506 1047 l 506 1010 l 367 1010 l 367 275 q 428 90 367 146 q 597 35 490 35 q 777 94 711 35 q 843 275 843 154 l 843 1010 l 704 1010 l 704 1047 l 1038 1047 l 1038 1010 l 892 1010 l 892 272 q 806 53 892 122 q 549 -17 721 -17 m 296 1172 l 506 1358 l 592 1358 l 801 1172 l 735 1172 l 549 1243 l 363 1172 l 296 1172 z "},"Ȕ":{"ha":1050,"x_min":15,"x_max":1038,"o":"m 549 -17 q 347 15 433 -17 q 212 110 260 46 q 164 271 164 174 l 164 1010 l 15 1010 l 15 1047 l 506 1047 l 506 1010 l 367 1010 l 367 275 q 428 90 367 146 q 597 35 490 35 q 777 94 711 35 q 843 275 843 154 l 843 1010 l 704 1010 l 704 1047 l 1038 1047 l 1038 1010 l 892 1010 l 892 272 q 806 53 892 122 q 549 -17 721 -17 m 796 1172 l 579 1221 q 523 1251 539 1231 q 507 1297 507 1272 q 524 1341 507 1324 q 572 1358 540 1358 q 615 1348 596 1358 q 675 1308 635 1338 l 869 1172 l 796 1172 m 518 1172 l 301 1221 q 245 1251 261 1231 q 229 1297 229 1272 q 246 1341 229 1324 q 294 1358 263 1358 q 338 1348 318 1358 q 397 1308 357 1338 l 592 1172 l 518 1172 z "},"Ü":{"ha":1050,"x_min":15,"x_max":1038,"o":"m 549 -17 q 347 15 433 -17 q 212 110 260 46 q 164 271 164 174 l 164 1010 l 15 1010 l 15 1047 l 506 1047 l 506 1010 l 367 1010 l 367 275 q 428 90 367 146 q 597 35 490 35 q 777 94 711 35 q 843 275 843 154 l 843 1010 l 704 1010 l 704 1047 l 1038 1047 l 1038 1010 l 892 1010 l 892 272 q 806 53 892 122 q 549 -17 721 -17 m 690 1153 q 627 1179 654 1153 q 600 1243 600 1206 q 627 1306 600 1279 q 690 1333 654 1333 q 755 1306 728 1333 q 782 1243 782 1279 q 755 1179 782 1206 q 690 1153 728 1153 m 407 1153 q 343 1179 369 1153 q 317 1243 317 1206 q 343 1306 317 1279 q 407 1333 369 1333 q 470 1306 443 1333 q 497 1243 497 1279 q 470 1179 497 1206 q 407 1153 443 1153 z "},"Ụ":{"ha":1050,"x_min":15,"x_max":1038,"o":"m 549 -17 q 347 15 433 -17 q 212 110 260 46 q 164 271 164 174 l 164 1010 l 15 1010 l 15 1047 l 506 1047 l 506 1010 l 367 1010 l 367 275 q 428 90 367 146 q 597 35 490 35 q 777 94 711 35 q 843 275 843 154 l 843 1010 l 704 1010 l 704 1047 l 1038 1047 l 1038 1010 l 892 1010 l 892 272 q 806 53 892 122 q 549 -17 721 -17 m 525 -340 q 454 -310 485 -340 q 424 -239 424 -281 q 454 -167 424 -197 q 525 -137 485 -137 q 597 -167 567 -137 q 628 -239 628 -197 q 597 -310 628 -281 q 525 -340 567 -340 z "},"Ù":{"ha":1050,"x_min":15,"x_max":1038,"o":"m 549 -17 q 347 15 433 -17 q 212 110 260 46 q 164 271 164 174 l 164 1010 l 15 1010 l 15 1047 l 506 1047 l 506 1010 l 367 1010 l 367 275 q 428 90 367 146 q 597 35 490 35 q 777 94 711 35 q 843 275 843 154 l 843 1010 l 704 1010 l 704 1047 l 1038 1047 l 1038 1010 l 892 1010 l 892 272 q 806 53 892 122 q 549 -17 721 -17 m 671 1172 l 426 1221 q 370 1251 386 1229 q 354 1297 354 1272 q 371 1341 354 1324 q 419 1358 388 1358 q 464 1349 443 1358 q 528 1311 485 1339 l 744 1172 l 671 1172 z "},"Ủ":{"ha":1050,"x_min":15,"x_max":1038,"o":"m 549 -17 q 347 15 433 -17 q 212 110 260 46 q 164 271 164 174 l 164 1010 l 15 1010 l 15 1047 l 506 1047 l 506 1010 l 367 1010 l 367 275 q 428 90 367 146 q 597 35 490 35 q 777 94 711 35 q 843 275 843 154 l 843 1010 l 704 1010 l 704 1047 l 1038 1047 l 1038 1010 l 892 1010 l 892 272 q 806 53 892 122 q 549 -17 721 -17 m 546 1135 q 555 1180 546 1163 q 576 1210 564 1197 q 598 1237 589 1224 q 607 1268 607 1250 q 590 1308 607 1296 q 547 1321 574 1321 q 506 1309 522 1321 q 490 1282 490 1297 q 497 1265 490 1269 q 508 1256 503 1261 q 514 1235 514 1250 q 499 1210 514 1218 q 465 1201 485 1201 q 424 1217 440 1201 q 407 1260 407 1233 q 427 1329 407 1303 q 478 1367 447 1356 q 546 1379 510 1379 q 653 1351 615 1379 q 690 1271 690 1324 q 676 1218 690 1236 q 644 1189 663 1200 q 610 1166 625 1178 q 592 1135 594 1154 l 546 1135 z "},"Ư":{"ha":1050,"x_min":15,"x_max":1074,"o":"m 549 -17 q 347 15 433 -17 q 212 110 260 46 q 164 271 164 174 l 164 1010 l 15 1010 l 15 1047 l 506 1047 l 506 1010 l 367 1010 l 367 275 q 428 90 367 146 q 597 35 490 35 q 777 94 711 35 q 843 275 843 154 l 843 1010 l 704 1010 l 704 1047 l 1038 1047 l 1038 1010 l 892 1010 l 892 272 q 806 53 892 122 q 549 -17 721 -17 m 858 1004 l 856 1047 q 951 1074 929 1047 q 976 1157 974 1100 l 1074 1157 q 1056 1060 1074 1094 q 991 1015 1038 1026 q 858 1004 944 1003 z "},"Ứ":{"ha":1050,"x_min":15,"x_max":1074,"o":"m 549 -17 q 347 15 433 -17 q 212 110 260 46 q 164 271 164 174 l 164 1010 l 15 1010 l 15 1047 l 506 1047 l 506 1010 l 367 1010 l 367 275 q 428 90 367 146 q 597 35 490 35 q 777 94 711 35 q 843 275 843 154 l 843 1010 l 704 1010 l 704 1047 l 1038 1047 l 1038 1010 l 892 1010 l 892 272 q 806 53 892 122 q 549 -17 721 -17 m 858 1004 l 856 1047 q 951 1074 929 1047 q 976 1157 974 1100 l 1074 1157 q 1056 1060 1074 1094 q 991 1015 1038 1026 q 858 1004 944 1003 m 331 1172 l 547 1311 q 612 1349 590 1339 q 656 1358 633 1358 q 704 1341 688 1358 q 721 1297 721 1324 q 705 1251 721 1272 q 649 1221 689 1229 l 404 1172 l 331 1172 z "},"Ự":{"ha":1050,"x_min":15,"x_max":1074,"o":"m 549 -17 q 347 15 433 -17 q 212 110 260 46 q 164 271 164 174 l 164 1010 l 15 1010 l 15 1047 l 506 1047 l 506 1010 l 367 1010 l 367 275 q 428 90 367 146 q 597 35 490 35 q 777 94 711 35 q 843 275 843 154 l 843 1010 l 704 1010 l 704 1047 l 1038 1047 l 1038 1010 l 892 1010 l 892 272 q 806 53 892 122 q 549 -17 721 -17 m 858 1004 l 856 1047 q 951 1074 929 1047 q 976 1157 974 1100 l 1074 1157 q 1056 1060 1074 1094 q 991 1015 1038 1026 q 858 1004 944 1003 m 525 -340 q 454 -310 485 -340 q 424 -239 424 -281 q 454 -167 424 -197 q 525 -137 485 -137 q 597 -167 567 -137 q 628 -239 628 -197 q 597 -310 628 -281 q 525 -340 567 -340 z "},"Ừ":{"ha":1050,"x_min":15,"x_max":1074,"o":"m 549 -17 q 347 15 433 -17 q 212 110 260 46 q 164 271 164 174 l 164 1010 l 15 1010 l 15 1047 l 506 1047 l 506 1010 l 367 1010 l 367 275 q 428 90 367 146 q 597 35 490 35 q 777 94 711 35 q 843 275 843 154 l 843 1010 l 704 1010 l 704 1047 l 1038 1047 l 1038 1010 l 892 1010 l 892 272 q 806 53 892 122 q 549 -17 721 -17 m 858 1004 l 856 1047 q 951 1074 929 1047 q 976 1157 974 1100 l 1074 1157 q 1056 1060 1074 1094 q 991 1015 1038 1026 q 858 1004 944 1003 m 647 1172 l 403 1221 q 347 1251 363 1229 q 331 1297 331 1272 q 347 1341 331 1324 q 396 1358 364 1358 q 440 1349 419 1358 q 504 1311 461 1339 l 721 1172 l 647 1172 z "},"Ử":{"ha":1050,"x_min":15,"x_max":1074,"o":"m 549 -17 q 347 15 433 -17 q 212 110 260 46 q 164 271 164 174 l 164 1010 l 15 1010 l 15 1047 l 506 1047 l 506 1010 l 367 1010 l 367 275 q 428 90 367 146 q 597 35 490 35 q 777 94 711 35 q 843 275 843 154 l 843 1010 l 704 1010 l 704 1047 l 1038 1047 l 1038 1010 l 892 1010 l 892 272 q 806 53 892 122 q 549 -17 721 -17 m 858 1004 l 856 1047 q 951 1074 929 1047 q 976 1157 974 1100 l 1074 1157 q 1056 1060 1074 1094 q 991 1015 1038 1026 q 858 1004 944 1003 m 522 1135 q 531 1180 522 1163 q 553 1210 540 1197 q 574 1237 565 1224 q 583 1268 583 1250 q 567 1308 583 1296 q 524 1321 550 1321 q 483 1309 499 1321 q 467 1282 467 1297 q 473 1265 467 1269 q 485 1256 479 1261 q 490 1235 490 1250 q 476 1210 490 1218 q 442 1201 461 1201 q 400 1217 417 1201 q 383 1260 383 1233 q 403 1329 383 1303 q 455 1367 424 1356 q 522 1379 486 1379 q 629 1351 592 1379 q 667 1271 667 1324 q 653 1218 667 1236 q 620 1189 639 1200 q 586 1166 601 1178 q 568 1135 571 1154 l 522 1135 z "},"Ữ":{"ha":1050,"x_min":15,"x_max":1074,"o":"m 549 -17 q 347 15 433 -17 q 212 110 260 46 q 164 271 164 174 l 164 1010 l 15 1010 l 15 1047 l 506 1047 l 506 1010 l 367 1010 l 367 275 q 428 90 367 146 q 597 35 490 35 q 777 94 711 35 q 843 275 843 154 l 843 1010 l 704 1010 l 704 1047 l 1038 1047 l 1038 1010 l 892 1010 l 892 272 q 806 53 892 122 q 549 -17 721 -17 m 858 1004 l 856 1047 q 951 1074 929 1047 q 976 1157 974 1100 l 1074 1157 q 1056 1060 1074 1094 q 991 1015 1038 1026 q 858 1004 944 1003 m 267 1172 q 297 1258 274 1217 q 358 1327 321 1300 q 444 1354 394 1354 q 513 1339 482 1354 q 574 1308 544 1324 q 635 1293 603 1293 q 705 1315 682 1293 q 736 1356 728 1336 l 783 1356 q 751 1269 774 1311 q 693 1200 729 1226 q 604 1174 657 1174 q 535 1189 565 1174 q 476 1219 504 1204 q 414 1235 447 1235 q 348 1217 375 1235 q 313 1172 321 1199 l 267 1172 z "},"Ű":{"ha":1050,"x_min":15,"x_max":1038,"o":"m 549 -17 q 347 15 433 -17 q 212 110 260 46 q 164 271 164 174 l 164 1010 l 15 1010 l 15 1047 l 506 1047 l 506 1010 l 367 1010 l 367 275 q 428 90 367 146 q 597 35 490 35 q 777 94 711 35 q 843 275 843 154 l 843 1010 l 704 1010 l 704 1047 l 1038 1047 l 1038 1010 l 892 1010 l 892 272 q 806 53 892 122 q 549 -17 721 -17 m 507 1172 l 701 1308 q 762 1348 742 1338 q 804 1358 782 1358 q 853 1341 836 1358 q 869 1297 869 1324 q 853 1251 869 1272 q 797 1221 838 1231 l 581 1172 l 507 1172 m 229 1172 l 424 1308 q 484 1348 464 1338 q 526 1358 504 1358 q 575 1341 558 1358 q 592 1297 592 1324 q 576 1251 592 1272 q 519 1221 560 1231 l 303 1172 l 229 1172 z "},"Ȗ":{"ha":1050,"x_min":15,"x_max":1038,"o":"m 549 -17 q 347 15 433 -17 q 212 110 260 46 q 164 271 164 174 l 164 1010 l 15 1010 l 15 1047 l 506 1047 l 506 1010 l 367 1010 l 367 275 q 428 90 367 146 q 597 35 490 35 q 777 94 711 35 q 843 275 843 154 l 843 1010 l 704 1010 l 704 1047 l 1038 1047 l 1038 1010 l 892 1010 l 892 272 q 806 53 892 122 q 549 -17 721 -17 m 324 1172 q 381 1308 324 1257 q 549 1358 439 1358 q 718 1306 664 1358 q 772 1172 772 1253 l 718 1172 q 667 1228 715 1210 q 546 1247 619 1247 q 427 1230 474 1247 q 378 1172 381 1213 l 324 1172 z "},"Ū":{"ha":1050,"x_min":15,"x_max":1038,"o":"m 549 -17 q 347 15 433 -17 q 212 110 260 46 q 164 271 164 174 l 164 1010 l 15 1010 l 15 1047 l 506 1047 l 506 1010 l 367 1010 l 367 275 q 428 90 367 146 q 597 35 490 35 q 777 94 711 35 q 843 275 843 154 l 843 1010 l 704 1010 l 704 1047 l 1038 1047 l 1038 1010 l 892 1010 l 892 272 q 806 53 892 122 q 549 -17 721 -17 m 325 1182 l 325 1288 l 783 1288 l 783 1182 l 325 1182 z "},"Ų":{"ha":1050,"x_min":15,"x_max":1038,"o":"m 549 -17 q 347 15 433 -17 q 212 110 260 46 q 164 271 164 174 l 164 1010 l 15 1010 l 15 1047 l 506 1047 l 506 1010 l 367 1010 l 367 275 q 428 90 367 146 q 597 35 490 35 q 777 94 711 35 q 843 275 843 154 l 843 1010 l 704 1010 l 704 1047 l 1038 1047 l 1038 1010 l 892 1010 l 892 272 q 806 53 892 122 q 549 -17 721 -17 m 588 -337 q 497 -306 532 -337 q 463 -222 463 -274 q 482 -151 463 -186 q 545 -76 501 -117 q 664 14 589 -36 l 721 14 q 612 -101 650 -43 q 574 -208 574 -158 q 631 -272 574 -272 q 670 -263 650 -272 q 717 -235 690 -254 l 722 -235 l 722 -278 q 664 -321 700 -304 q 588 -337 628 -337 z "},"Ů":{"ha":1050,"x_min":15,"x_max":1038,"o":"m 549 -17 q 347 15 433 -17 q 212 110 260 46 q 164 271 164 174 l 164 1010 l 15 1010 l 15 1047 l 506 1047 l 506 1010 l 367 1010 l 367 275 q 428 90 367 146 q 597 35 490 35 q 777 94 711 35 q 843 275 843 154 l 843 1010 l 704 1010 l 704 1047 l 1038 1047 l 1038 1010 l 892 1010 l 892 272 q 806 53 892 122 q 549 -17 721 -17 m 547 1143 q 465 1178 500 1143 q 431 1261 431 1213 q 465 1344 431 1310 q 549 1378 500 1378 q 631 1344 596 1378 q 667 1261 667 1311 q 632 1178 667 1213 q 547 1143 597 1143 m 549 1203 q 589 1221 572 1203 q 606 1261 606 1239 q 588 1301 606 1285 q 549 1318 571 1318 q 508 1301 525 1318 q 490 1261 490 1285 q 508 1221 490 1239 q 549 1203 525 1203 z "},"Ũ":{"ha":1050,"x_min":15,"x_max":1038,"o":"m 549 -17 q 347 15 433 -17 q 212 110 260 46 q 164 271 164 174 l 164 1010 l 15 1010 l 15 1047 l 506 1047 l 506 1010 l 367 1010 l 367 275 q 428 90 367 146 q 597 35 490 35 q 777 94 711 35 q 843 275 843 154 l 843 1010 l 704 1010 l 704 1047 l 1038 1047 l 1038 1010 l 892 1010 l 892 272 q 806 53 892 122 q 549 -17 721 -17 m 290 1172 q 321 1258 297 1217 q 381 1327 344 1300 q 468 1354 418 1354 q 537 1339 506 1354 q 597 1308 568 1324 q 658 1293 626 1293 q 728 1315 706 1293 q 760 1356 751 1336 l 807 1356 q 775 1269 797 1311 q 717 1200 753 1226 q 628 1174 681 1174 q 558 1189 589 1174 q 499 1219 528 1204 q 438 1235 471 1235 q 372 1217 399 1235 q 336 1172 344 1199 l 290 1172 z "},"V":{"ha":960,"x_min":-21,"x_max":976,"o":"m 461 -14 l 94 1026 l 308 1026 l 563 303 l 568 303 l 579 254 l 500 -14 l 461 -14 m 461 -14 l 538 219 l 824 1026 l 869 1026 l 500 -14 l 461 -14 m -21 1010 l -21 1047 l 450 1047 l 450 1010 l -21 1010 m 654 1010 l 654 1047 l 976 1047 l 976 1010 l 654 1010 z "},"W":{"ha":1338,"x_min":-32,"x_max":1369,"o":"m 446 -14 l 76 1010 l -32 1010 l -32 1047 l 1003 1047 l 1003 1010 l 918 1010 l 807 704 l 951 294 l 957 294 l 1213 1010 l 1071 1010 l 1071 1047 l 1369 1047 l 1369 1010 l 1258 1010 l 893 -14 l 854 -14 l 681 465 l 499 -14 l 446 -14 m 556 278 l 561 278 l 658 528 l 485 1010 l 290 1010 l 556 278 m 785 767 l 871 1010 l 697 1010 l 785 767 z "},"Ẃ":{"ha":1338,"x_min":-32,"x_max":1369,"o":"m 446 -14 l 76 1010 l -32 1010 l -32 1047 l 1003 1047 l 1003 1010 l 918 1010 l 807 704 l 951 294 l 957 294 l 1213 1010 l 1071 1010 l 1071 1047 l 1369 1047 l 1369 1010 l 1258 1010 l 893 -14 l 854 -14 l 681 465 l 499 -14 l 446 -14 m 556 278 l 561 278 l 658 528 l 485 1010 l 290 1010 l 556 278 m 785 767 l 871 1010 l 697 1010 l 785 767 m 475 1172 l 692 1311 q 756 1349 735 1339 q 800 1358 778 1358 q 849 1341 832 1358 q 865 1297 865 1324 q 849 1251 865 1272 q 793 1221 833 1229 l 549 1172 l 475 1172 z "},"Ŵ":{"ha":1338,"x_min":-32,"x_max":1369,"o":"m 446 -14 l 76 1010 l -32 1010 l -32 1047 l 1003 1047 l 1003 1010 l 918 1010 l 807 704 l 951 294 l 957 294 l 1213 1010 l 1071 1010 l 1071 1047 l 1369 1047 l 1369 1010 l 1258 1010 l 893 -14 l 854 -14 l 681 465 l 499 -14 l 446 -14 m 556 278 l 561 278 l 658 528 l 485 1010 l 290 1010 l 556 278 m 785 767 l 871 1010 l 697 1010 l 785 767 m 417 1172 l 626 1358 l 713 1358 l 922 1172 l 856 1172 l 669 1243 l 483 1172 l 417 1172 z "},"Ẅ":{"ha":1338,"x_min":-32,"x_max":1369,"o":"m 446 -14 l 76 1010 l -32 1010 l -32 1047 l 1003 1047 l 1003 1010 l 918 1010 l 807 704 l 951 294 l 957 294 l 1213 1010 l 1071 1010 l 1071 1047 l 1369 1047 l 1369 1010 l 1258 1010 l 893 -14 l 854 -14 l 681 465 l 499 -14 l 446 -14 m 556 278 l 561 278 l 658 528 l 485 1010 l 290 1010 l 556 278 m 785 767 l 871 1010 l 697 1010 l 785 767 m 811 1153 q 748 1179 775 1153 q 721 1243 721 1206 q 748 1306 721 1279 q 811 1333 775 1333 q 876 1306 849 1333 q 903 1243 903 1279 q 876 1179 903 1206 q 811 1153 849 1153 m 528 1153 q 464 1179 490 1153 q 438 1243 438 1206 q 464 1306 438 1279 q 528 1333 490 1333 q 591 1306 564 1333 q 618 1243 618 1279 q 591 1179 618 1206 q 528 1153 564 1153 z "},"Ẁ":{"ha":1338,"x_min":-32,"x_max":1369,"o":"m 446 -14 l 76 1010 l -32 1010 l -32 1047 l 1003 1047 l 1003 1010 l 918 1010 l 807 704 l 951 294 l 957 294 l 1213 1010 l 1071 1010 l 1071 1047 l 1369 1047 l 1369 1010 l 1258 1010 l 893 -14 l 854 -14 l 681 465 l 499 -14 l 446 -14 m 556 278 l 561 278 l 658 528 l 485 1010 l 290 1010 l 556 278 m 785 767 l 871 1010 l 697 1010 l 785 767 m 792 1172 l 547 1221 q 491 1251 507 1229 q 475 1297 475 1272 q 492 1341 475 1324 q 540 1358 508 1358 q 585 1349 564 1358 q 649 1311 606 1339 l 865 1172 l 792 1172 z "},"X":{"ha":968,"x_min":-22,"x_max":993,"o":"m -22 0 l -22 39 l 111 39 l 396 488 l 94 1010 l -15 1010 l -15 1047 l 475 1047 l 475 1010 l 329 1010 l 533 654 l 761 1010 l 604 1010 l 604 1047 l 938 1047 l 938 1010 l 810 1010 l 557 611 l 888 39 l 993 39 l 993 0 l 510 0 l 510 39 l 656 39 l 419 446 l 163 39 l 333 39 l 333 0 l -22 0 z "},"Y":{"ha":989,"x_min":-22,"x_max":1010,"o":"m 246 0 l 246 39 l 408 39 l 408 467 l 88 1010 l -22 1010 l -22 1047 l 464 1047 l 464 1010 l 329 1010 l 590 560 l 596 560 l 832 1010 l 663 1010 l 663 1047 l 1010 1047 l 1010 1010 l 882 1010 l 611 489 l 611 39 l 776 39 l 776 0 l 246 0 z "},"Ý":{"ha":989,"x_min":-22,"x_max":1010,"o":"m 246 0 l 246 39 l 408 39 l 408 467 l 88 1010 l -22 1010 l -22 1047 l 464 1047 l 464 1010 l 329 1010 l 590 560 l 596 560 l 832 1010 l 663 1010 l 663 1047 l 1010 1047 l 1010 1010 l 882 1010 l 611 489 l 611 39 l 776 39 l 776 0 l 246 0 m 300 1172 l 517 1311 q 581 1349 560 1339 q 625 1358 603 1358 q 674 1341 657 1358 q 690 1297 690 1324 q 674 1251 690 1272 q 618 1221 658 1229 l 374 1172 l 300 1172 z "},"Ŷ":{"ha":989,"x_min":-22,"x_max":1010,"o":"m 246 0 l 246 39 l 408 39 l 408 467 l 88 1010 l -22 1010 l -22 1047 l 464 1047 l 464 1010 l 329 1010 l 590 560 l 596 560 l 832 1010 l 663 1010 l 663 1047 l 1010 1047 l 1010 1010 l 882 1010 l 611 489 l 611 39 l 776 39 l 776 0 l 246 0 m 242 1172 l 451 1358 l 538 1358 l 747 1172 l 681 1172 l 494 1243 l 308 1172 l 242 1172 z "},"Ÿ":{"ha":989,"x_min":-22,"x_max":1010,"o":"m 246 0 l 246 39 l 408 39 l 408 467 l 88 1010 l -22 1010 l -22 1047 l 464 1047 l 464 1010 l 329 1010 l 590 560 l 596 560 l 832 1010 l 663 1010 l 663 1047 l 1010 1047 l 1010 1010 l 882 1010 l 611 489 l 611 39 l 776 39 l 776 0 l 246 0 m 636 1153 q 573 1179 600 1153 q 546 1243 546 1206 q 573 1306 546 1279 q 636 1333 600 1333 q 701 1306 674 1333 q 728 1243 728 1279 q 701 1179 728 1206 q 636 1153 674 1153 m 353 1153 q 289 1179 315 1153 q 263 1243 263 1206 q 289 1306 263 1279 q 353 1333 315 1333 q 416 1306 389 1333 q 443 1243 443 1279 q 416 1179 443 1206 q 353 1153 389 1153 z "},"Ỵ":{"ha":989,"x_min":-22,"x_max":1010,"o":"m 246 0 l 246 39 l 408 39 l 408 467 l 88 1010 l -22 1010 l -22 1047 l 464 1047 l 464 1010 l 329 1010 l 590 560 l 596 560 l 832 1010 l 663 1010 l 663 1047 l 1010 1047 l 1010 1010 l 882 1010 l 611 489 l 611 39 l 776 39 l 776 0 l 246 0 m 494 -340 q 424 -310 454 -340 q 393 -239 393 -281 q 424 -167 393 -197 q 494 -137 454 -137 q 567 -167 536 -137 q 597 -239 597 -197 q 567 -310 597 -281 q 494 -340 536 -340 z "},"Ỳ":{"ha":989,"x_min":-22,"x_max":1010,"o":"m 246 0 l 246 39 l 408 39 l 408 467 l 88 1010 l -22 1010 l -22 1047 l 464 1047 l 464 1010 l 329 1010 l 590 560 l 596 560 l 832 1010 l 663 1010 l 663 1047 l 1010 1047 l 1010 1010 l 882 1010 l 611 489 l 611 39 l 776 39 l 776 0 l 246 0 m 617 1172 l 372 1221 q 316 1251 332 1229 q 300 1297 300 1272 q 317 1341 300 1324 q 365 1358 333 1358 q 410 1349 389 1358 q 474 1311 431 1339 l 690 1172 l 617 1172 z "},"Ỷ":{"ha":989,"x_min":-22,"x_max":1010,"o":"m 246 0 l 246 39 l 408 39 l 408 467 l 88 1010 l -22 1010 l -22 1047 l 464 1047 l 464 1010 l 329 1010 l 590 560 l 596 560 l 832 1010 l 663 1010 l 663 1047 l 1010 1047 l 1010 1010 l 882 1010 l 611 489 l 611 39 l 776 39 l 776 0 l 246 0 m 492 1135 q 501 1180 492 1163 q 522 1210 510 1197 q 544 1237 535 1224 q 553 1268 553 1250 q 536 1308 553 1296 q 493 1321 519 1321 q 452 1309 468 1321 q 436 1282 436 1297 q 442 1265 436 1269 q 454 1256 449 1261 q 460 1235 460 1250 q 445 1210 460 1218 q 411 1201 431 1201 q 369 1217 386 1201 q 353 1260 353 1233 q 373 1329 353 1303 q 424 1367 393 1356 q 492 1379 456 1379 q 599 1351 561 1379 q 636 1271 636 1324 q 622 1218 636 1236 q 590 1189 608 1200 q 556 1166 571 1178 q 538 1135 540 1154 l 492 1135 z "},"Ỹ":{"ha":989,"x_min":-22,"x_max":1010,"o":"m 246 0 l 246 39 l 408 39 l 408 467 l 88 1010 l -22 1010 l -22 1047 l 464 1047 l 464 1010 l 329 1010 l 590 560 l 596 560 l 832 1010 l 663 1010 l 663 1047 l 1010 1047 l 1010 1010 l 882 1010 l 611 489 l 611 39 l 776 39 l 776 0 l 246 0 m 236 1172 q 267 1258 243 1217 q 327 1327 290 1300 q 414 1354 364 1354 q 483 1339 451 1354 q 543 1308 514 1324 q 604 1293 572 1293 q 674 1315 651 1293 q 706 1356 697 1336 l 753 1356 q 721 1269 743 1311 q 663 1200 699 1226 q 574 1174 626 1174 q 504 1189 535 1174 q 445 1219 474 1204 q 383 1235 417 1235 q 317 1217 344 1235 q 282 1172 290 1199 l 236 1172 z "},"Z":{"ha":883,"x_min":26,"x_max":850,"o":"m 26 10 l 26 50 l 604 1004 l 604 1013 l 850 1021 l 850 996 l 269 46 l 269 29 l 26 10 m 26 0 l 26 40 l 544 40 q 676 82 622 40 q 760 192 731 124 q 792 340 790 261 l 843 340 l 843 0 l 26 0 m 89 763 l 89 1047 l 850 1047 l 850 1010 l 382 1010 q 253 976 307 1010 q 172 885 200 942 q 142 763 143 829 l 89 763 z "},"Ź":{"ha":883,"x_min":26,"x_max":850,"o":"m 26 10 l 26 50 l 604 1004 l 604 1013 l 850 1021 l 850 996 l 269 46 l 269 29 l 26 10 m 26 0 l 26 40 l 544 40 q 676 82 622 40 q 760 192 731 124 q 792 340 790 261 l 843 340 l 843 0 l 26 0 m 89 763 l 89 1047 l 850 1047 l 850 1010 l 382 1010 q 253 976 307 1010 q 172 885 200 942 q 142 763 143 829 l 89 763 m 247 1172 l 464 1311 q 528 1349 507 1339 q 572 1358 550 1358 q 621 1341 604 1358 q 638 1297 638 1324 q 622 1251 638 1272 q 565 1221 606 1229 l 321 1172 l 247 1172 z "},"Ž":{"ha":883,"x_min":26,"x_max":850,"o":"m 26 10 l 26 50 l 604 1004 l 604 1013 l 850 1021 l 850 996 l 269 46 l 269 29 l 26 10 m 26 0 l 26 40 l 544 40 q 676 82 622 40 q 760 192 731 124 q 792 340 790 261 l 843 340 l 843 0 l 26 0 m 89 763 l 89 1047 l 850 1047 l 850 1010 l 382 1010 q 253 976 307 1010 q 172 885 200 942 q 142 763 143 829 l 89 763 m 400 1172 l 190 1358 l 257 1358 l 443 1286 l 629 1358 l 696 1358 l 486 1172 l 400 1172 z "},"Ż":{"ha":883,"x_min":26,"x_max":850,"o":"m 26 10 l 26 50 l 604 1004 l 604 1013 l 850 1021 l 850 996 l 269 46 l 269 29 l 26 10 m 26 0 l 26 40 l 544 40 q 676 82 622 40 q 760 192 731 124 q 792 340 790 261 l 843 340 l 843 0 l 26 0 m 89 763 l 89 1047 l 850 1047 l 850 1010 l 382 1010 q 253 976 307 1010 q 172 885 200 942 q 142 763 143 829 l 89 763 m 442 1147 q 371 1178 401 1147 q 340 1249 340 1208 q 371 1321 340 1290 q 442 1351 401 1351 q 514 1321 483 1351 q 544 1249 544 1290 q 514 1178 544 1208 q 442 1147 483 1147 z "},"Ẓ":{"ha":883,"x_min":26,"x_max":850,"o":"m 26 10 l 26 50 l 604 1004 l 604 1013 l 850 1021 l 850 996 l 269 46 l 269 29 l 26 10 m 26 0 l 26 40 l 544 40 q 676 82 622 40 q 760 192 731 124 q 792 340 790 261 l 843 340 l 843 0 l 26 0 m 89 763 l 89 1047 l 850 1047 l 850 1010 l 382 1010 q 253 976 307 1010 q 172 885 200 942 q 142 763 143 829 l 89 763 m 442 -340 q 371 -310 401 -340 q 340 -239 340 -281 q 371 -167 340 -197 q 442 -137 401 -137 q 514 -167 483 -137 q 544 -239 544 -197 q 514 -310 544 -281 q 442 -340 483 -340 z "},"a":{"ha":728,"x_min":58,"x_max":731,"o":"m 236 -17 q 108 26 158 -17 q 58 140 58 69 q 105 255 58 207 q 237 328 151 303 q 438 354 322 354 l 438 519 q 410 576 438 556 q 338 597 383 597 q 272 583 299 597 q 246 547 246 569 q 258 519 246 532 q 271 481 271 507 q 246 425 271 449 q 183 401 221 401 q 124 426 147 401 q 101 485 101 450 q 136 565 101 529 q 231 622 171 601 q 367 642 292 642 q 542 602 474 642 q 610 499 610 563 l 610 86 q 619 63 610 72 q 640 54 628 54 q 667 65 653 54 q 707 104 682 76 l 731 76 q 571 -17 660 -17 q 486 10 518 -17 q 443 83 454 38 l 438 83 q 357 13 411 43 q 236 -17 303 -17 m 325 60 q 406 99 374 60 q 438 203 438 139 l 438 314 q 290 276 340 314 q 239 165 239 239 q 261 88 239 117 q 325 60 283 60 z "},"á":{"ha":728,"x_min":58,"x_max":731,"o":"m 236 -17 q 108 26 158 -17 q 58 140 58 69 q 105 255 58 207 q 237 328 151 303 q 438 354 322 354 l 438 519 q 410 576 438 556 q 338 597 383 597 q 272 583 299 597 q 246 547 246 569 q 258 519 246 532 q 271 481 271 507 q 246 425 271 449 q 183 401 221 401 q 124 426 147 401 q 101 485 101 450 q 136 565 101 529 q 231 622 171 601 q 367 642 292 642 q 542 602 474 642 q 610 499 610 563 l 610 86 q 619 63 610 72 q 640 54 628 54 q 667 65 653 54 q 707 104 682 76 l 731 76 q 571 -17 660 -17 q 486 10 518 -17 q 443 83 454 38 l 438 83 q 357 13 411 43 q 236 -17 303 -17 m 325 60 q 406 99 374 60 q 438 203 438 139 l 438 314 q 290 276 340 314 q 239 165 239 239 q 261 88 239 117 q 325 60 283 60 m 313 728 l 479 953 q 527 999 504 988 q 572 1010 550 1010 q 626 992 608 1010 q 643 949 643 974 q 631 910 643 931 q 575 860 618 889 l 386 728 l 313 728 z "},"ă":{"ha":728,"x_min":58,"x_max":731,"o":"m 236 -17 q 108 26 158 -17 q 58 140 58 69 q 105 255 58 207 q 237 328 151 303 q 438 354 322 354 l 438 519 q 410 576 438 556 q 338 597 383 597 q 272 583 299 597 q 246 547 246 569 q 258 519 246 532 q 271 481 271 507 q 246 425 271 449 q 183 401 221 401 q 124 426 147 401 q 101 485 101 450 q 136 565 101 529 q 231 622 171 601 q 367 642 292 642 q 542 602 474 642 q 610 499 610 563 l 610 86 q 619 63 610 72 q 640 54 628 54 q 667 65 653 54 q 707 104 682 76 l 731 76 q 571 -17 660 -17 q 486 10 518 -17 q 443 83 454 38 l 438 83 q 357 13 411 43 q 236 -17 303 -17 m 325 60 q 406 99 374 60 q 438 203 438 139 l 438 314 q 290 276 340 314 q 239 165 239 239 q 261 88 239 117 q 325 60 283 60 m 365 728 q 217 779 265 728 q 168 915 168 831 l 222 915 q 263 858 225 875 q 363 840 300 840 q 465 858 425 840 q 507 915 504 876 l 561 915 q 541 819 561 863 q 478 752 521 776 q 365 728 435 728 z "},"ắ":{"ha":728,"x_min":58,"x_max":731,"o":"m 236 -17 q 108 26 158 -17 q 58 140 58 69 q 105 255 58 207 q 237 328 151 303 q 438 354 322 354 l 438 519 q 410 576 438 556 q 338 597 383 597 q 272 583 299 597 q 246 547 246 569 q 258 519 246 532 q 271 481 271 507 q 246 425 271 449 q 183 401 221 401 q 124 426 147 401 q 101 485 101 450 q 136 565 101 529 q 231 622 171 601 q 367 642 292 642 q 542 602 474 642 q 610 499 610 563 l 610 86 q 619 63 610 72 q 640 54 628 54 q 667 65 653 54 q 707 104 682 76 l 731 76 q 571 -17 660 -17 q 486 10 518 -17 q 443 83 454 38 l 438 83 q 357 13 411 43 q 236 -17 303 -17 m 325 60 q 406 99 374 60 q 438 203 438 139 l 438 314 q 290 276 340 314 q 239 165 239 239 q 261 88 239 117 q 325 60 283 60 m 365 721 q 217 772 265 721 q 168 907 168 822 l 222 907 q 263 849 225 867 q 363 832 300 832 q 465 851 425 832 q 507 907 504 869 l 561 907 q 541 812 561 854 q 478 745 521 769 q 365 721 435 721 m 169 985 l 386 1124 q 451 1162 429 1151 q 494 1172 472 1172 q 543 1154 526 1172 q 560 1110 560 1136 q 544 1064 560 1085 q 488 1035 528 1043 l 243 985 l 169 985 z "},"ặ":{"ha":728,"x_min":58,"x_max":731,"o":"m 236 -17 q 108 26 158 -17 q 58 140 58 69 q 105 255 58 207 q 237 328 151 303 q 438 354 322 354 l 438 519 q 410 576 438 556 q 338 597 383 597 q 272 583 299 597 q 246 547 246 569 q 258 519 246 532 q 271 481 271 507 q 246 425 271 449 q 183 401 221 401 q 124 426 147 401 q 101 485 101 450 q 136 565 101 529 q 231 622 171 601 q 367 642 292 642 q 542 602 474 642 q 610 499 610 563 l 610 86 q 619 63 610 72 q 640 54 628 54 q 667 65 653 54 q 707 104 682 76 l 731 76 q 571 -17 660 -17 q 486 10 518 -17 q 443 83 454 38 l 438 83 q 357 13 411 43 q 236 -17 303 -17 m 325 60 q 406 99 374 60 q 438 203 438 139 l 438 314 q 290 276 340 314 q 239 165 239 239 q 261 88 239 117 q 325 60 283 60 m 364 -340 q 293 -310 324 -340 q 263 -239 263 -281 q 293 -167 263 -197 q 364 -137 324 -137 q 436 -167 406 -137 q 467 -239 467 -197 q 436 -310 467 -281 q 364 -340 406 -340 m 365 728 q 217 779 265 728 q 168 915 168 831 l 222 915 q 263 858 225 875 q 363 840 300 840 q 465 858 425 840 q 507 915 504 876 l 561 915 q 541 819 561 863 q 478 752 521 776 q 365 728 435 728 z "},"ằ":{"ha":728,"x_min":58,"x_max":731,"o":"m 236 -17 q 108 26 158 -17 q 58 140 58 69 q 105 255 58 207 q 237 328 151 303 q 438 354 322 354 l 438 519 q 410 576 438 556 q 338 597 383 597 q 272 583 299 597 q 246 547 246 569 q 258 519 246 532 q 271 481 271 507 q 246 425 271 449 q 183 401 221 401 q 124 426 147 401 q 101 485 101 450 q 136 565 101 529 q 231 622 171 601 q 367 642 292 642 q 542 602 474 642 q 610 499 610 563 l 610 86 q 619 63 610 72 q 640 54 628 54 q 667 65 653 54 q 707 104 682 76 l 731 76 q 571 -17 660 -17 q 486 10 518 -17 q 443 83 454 38 l 438 83 q 357 13 411 43 q 236 -17 303 -17 m 325 60 q 406 99 374 60 q 438 203 438 139 l 438 314 q 290 276 340 314 q 239 165 239 239 q 261 88 239 117 q 325 60 283 60 m 365 721 q 217 772 265 721 q 168 907 168 822 l 222 907 q 263 849 225 867 q 363 832 300 832 q 465 851 425 832 q 507 907 504 869 l 561 907 q 541 812 561 854 q 478 745 521 769 q 365 721 435 721 m 486 986 l 242 1036 q 185 1065 201 1044 q 169 1111 169 1086 q 186 1156 169 1138 q 235 1174 203 1174 q 279 1163 258 1174 q 343 1125 300 1153 l 560 986 l 486 986 z "},"ẳ":{"ha":728,"x_min":58,"x_max":731,"o":"m 236 -17 q 108 26 158 -17 q 58 140 58 69 q 105 255 58 207 q 237 328 151 303 q 438 354 322 354 l 438 519 q 410 576 438 556 q 338 597 383 597 q 272 583 299 597 q 246 547 246 569 q 258 519 246 532 q 271 481 271 507 q 246 425 271 449 q 183 401 221 401 q 124 426 147 401 q 101 485 101 450 q 136 565 101 529 q 231 622 171 601 q 367 642 292 642 q 542 602 474 642 q 610 499 610 563 l 610 86 q 619 63 610 72 q 640 54 628 54 q 667 65 653 54 q 707 104 682 76 l 731 76 q 571 -17 660 -17 q 486 10 518 -17 q 443 83 454 38 l 438 83 q 357 13 411 43 q 236 -17 303 -17 m 325 60 q 406 99 374 60 q 438 203 438 139 l 438 314 q 290 276 340 314 q 239 165 239 239 q 261 88 239 117 q 325 60 283 60 m 365 721 q 217 772 265 721 q 168 907 168 822 l 222 907 q 263 849 225 867 q 363 832 300 832 q 465 851 425 832 q 507 907 504 869 l 561 907 q 541 812 561 854 q 478 745 521 769 q 365 721 435 721 m 342 911 q 351 958 342 939 q 372 990 360 976 q 394 1016 385 1003 q 403 1047 403 1029 q 386 1086 403 1074 q 344 1099 369 1099 q 303 1086 318 1099 q 288 1058 288 1074 q 293 1042 288 1046 q 305 1033 299 1039 q 311 1011 311 1028 q 297 986 311 994 q 261 978 282 978 q 221 994 238 978 q 204 1036 204 1011 q 224 1106 204 1081 q 275 1144 243 1132 q 343 1156 307 1156 q 450 1128 413 1156 q 488 1050 488 1100 q 474 997 488 1015 q 441 966 460 978 q 407 943 422 954 q 388 911 392 932 l 342 911 z "},"ẵ":{"ha":728,"x_min":58,"x_max":731,"o":"m 236 -17 q 108 26 158 -17 q 58 140 58 69 q 105 255 58 207 q 237 328 151 303 q 438 354 322 354 l 438 519 q 410 576 438 556 q 338 597 383 597 q 272 583 299 597 q 246 547 246 569 q 258 519 246 532 q 271 481 271 507 q 246 425 271 449 q 183 401 221 401 q 124 426 147 401 q 101 485 101 450 q 136 565 101 529 q 231 622 171 601 q 367 642 292 642 q 542 602 474 642 q 610 499 610 563 l 610 86 q 619 63 610 72 q 640 54 628 54 q 667 65 653 54 q 707 104 682 76 l 731 76 q 571 -17 660 -17 q 486 10 518 -17 q 443 83 454 38 l 438 83 q 357 13 411 43 q 236 -17 303 -17 m 325 60 q 406 99 374 60 q 438 203 438 139 l 438 314 q 290 276 340 314 q 239 165 239 239 q 261 88 239 117 q 325 60 283 60 m 364 721 q 215 772 264 721 q 167 907 167 822 l 221 907 q 262 849 224 867 q 361 832 300 832 q 464 851 425 832 q 506 907 503 869 l 560 907 q 540 812 560 854 q 476 745 519 769 q 364 721 433 721 m 106 965 q 136 1051 113 1010 q 197 1120 160 1093 q 283 1147 233 1147 q 352 1132 321 1147 q 413 1101 383 1117 q 474 1086 442 1086 q 544 1108 521 1086 q 575 1150 567 1129 l 622 1150 q 590 1063 613 1104 q 532 994 568 1021 q 443 967 496 967 q 374 982 404 967 q 315 1013 343 997 q 253 1028 286 1028 q 187 1010 214 1028 q 151 965 160 993 l 106 965 z "},"â":{"ha":728,"x_min":58,"x_max":731,"o":"m 236 -17 q 108 26 158 -17 q 58 140 58 69 q 105 255 58 207 q 237 328 151 303 q 438 354 322 354 l 438 519 q 410 576 438 556 q 338 597 383 597 q 272 583 299 597 q 246 547 246 569 q 258 519 246 532 q 271 481 271 507 q 246 425 271 449 q 183 401 221 401 q 124 426 147 401 q 101 485 101 450 q 136 565 101 529 q 231 622 171 601 q 367 642 292 642 q 542 602 474 642 q 610 499 610 563 l 610 86 q 619 63 610 72 q 640 54 628 54 q 667 65 653 54 q 707 104 682 76 l 731 76 q 571 -17 660 -17 q 486 10 518 -17 q 443 83 454 38 l 438 83 q 357 13 411 43 q 236 -17 303 -17 m 325 60 q 406 99 374 60 q 438 203 438 139 l 438 314 q 290 276 340 314 q 239 165 239 239 q 261 88 239 117 q 325 60 283 60 m 126 728 l 322 1006 l 408 1006 l 604 728 l 544 728 l 365 861 l 186 728 l 126 728 z "},"ấ":{"ha":728,"x_min":58,"x_max":731,"o":"m 236 -17 q 108 26 158 -17 q 58 140 58 69 q 105 255 58 207 q 237 328 151 303 q 438 354 322 354 l 438 519 q 410 576 438 556 q 338 597 383 597 q 272 583 299 597 q 246 547 246 569 q 258 519 246 532 q 271 481 271 507 q 246 425 271 449 q 183 401 221 401 q 124 426 147 401 q 101 485 101 450 q 136 565 101 529 q 231 622 171 601 q 367 642 292 642 q 542 602 474 642 q 610 499 610 563 l 610 86 q 619 63 610 72 q 640 54 628 54 q 667 65 653 54 q 707 104 682 76 l 731 76 q 571 -17 660 -17 q 486 10 518 -17 q 443 83 454 38 l 438 83 q 357 13 411 43 q 236 -17 303 -17 m 325 60 q 406 99 374 60 q 438 203 438 139 l 438 314 q 290 276 340 314 q 239 165 239 239 q 261 88 239 117 q 325 60 283 60 m 139 728 l 321 886 l 407 886 l 589 728 l 522 728 l 364 792 l 206 728 l 139 728 m 169 924 l 386 1063 q 449 1100 428 1090 q 493 1110 471 1110 q 542 1092 525 1110 q 558 1049 558 1075 q 543 1002 558 1024 q 488 972 528 981 l 243 924 l 169 924 z "},"ậ":{"ha":728,"x_min":58,"x_max":731,"o":"m 236 -17 q 108 26 158 -17 q 58 140 58 69 q 105 255 58 207 q 237 328 151 303 q 438 354 322 354 l 438 519 q 410 576 438 556 q 338 597 383 597 q 272 583 299 597 q 246 547 246 569 q 258 519 246 532 q 271 481 271 507 q 246 425 271 449 q 183 401 221 401 q 124 426 147 401 q 101 485 101 450 q 136 565 101 529 q 231 622 171 601 q 367 642 292 642 q 542 602 474 642 q 610 499 610 563 l 610 86 q 619 63 610 72 q 640 54 628 54 q 667 65 653 54 q 707 104 682 76 l 731 76 q 571 -17 660 -17 q 486 10 518 -17 q 443 83 454 38 l 438 83 q 357 13 411 43 q 236 -17 303 -17 m 325 60 q 406 99 374 60 q 438 203 438 139 l 438 314 q 290 276 340 314 q 239 165 239 239 q 261 88 239 117 q 325 60 283 60 m 364 -340 q 293 -310 324 -340 q 263 -239 263 -281 q 293 -167 263 -197 q 364 -137 324 -137 q 436 -167 406 -137 q 467 -239 467 -197 q 436 -310 467 -281 q 364 -340 406 -340 m 126 728 l 322 1006 l 408 1006 l 604 728 l 544 728 l 365 861 l 186 728 l 126 728 z "},"ầ":{"ha":728,"x_min":58,"x_max":731,"o":"m 236 -17 q 108 26 158 -17 q 58 140 58 69 q 105 255 58 207 q 237 328 151 303 q 438 354 322 354 l 438 519 q 410 576 438 556 q 338 597 383 597 q 272 583 299 597 q 246 547 246 569 q 258 519 246 532 q 271 481 271 507 q 246 425 271 449 q 183 401 221 401 q 124 426 147 401 q 101 485 101 450 q 136 565 101 529 q 231 622 171 601 q 367 642 292 642 q 542 602 474 642 q 610 499 610 563 l 610 86 q 619 63 610 72 q 640 54 628 54 q 667 65 653 54 q 707 104 682 76 l 731 76 q 571 -17 660 -17 q 486 10 518 -17 q 443 83 454 38 l 438 83 q 357 13 411 43 q 236 -17 303 -17 m 325 60 q 406 99 374 60 q 438 203 438 139 l 438 314 q 290 276 340 314 q 239 165 239 239 q 261 88 239 117 q 325 60 283 60 m 139 728 l 321 886 l 407 886 l 589 728 l 522 728 l 364 792 l 206 728 l 139 728 m 485 925 l 240 974 q 185 1003 200 982 q 169 1050 169 1025 q 186 1094 169 1076 q 235 1111 203 1111 q 278 1101 257 1111 q 342 1064 300 1092 l 558 925 l 485 925 z "},"ẩ":{"ha":728,"x_min":58,"x_max":731,"o":"m 236 -17 q 108 26 158 -17 q 58 140 58 69 q 105 255 58 207 q 237 328 151 303 q 438 354 322 354 l 438 519 q 410 576 438 556 q 338 597 383 597 q 272 583 299 597 q 246 547 246 569 q 258 519 246 532 q 271 481 271 507 q 246 425 271 449 q 183 401 221 401 q 124 426 147 401 q 101 485 101 450 q 136 565 101 529 q 231 622 171 601 q 367 642 292 642 q 542 602 474 642 q 610 499 610 563 l 610 86 q 619 63 610 72 q 640 54 628 54 q 667 65 653 54 q 707 104 682 76 l 731 76 q 571 -17 660 -17 q 486 10 518 -17 q 443 83 454 38 l 438 83 q 357 13 411 43 q 236 -17 303 -17 m 325 60 q 406 99 374 60 q 438 203 438 139 l 438 314 q 290 276 340 314 q 239 165 239 239 q 261 88 239 117 q 325 60 283 60 m 139 728 l 321 886 l 407 886 l 589 728 l 522 728 l 364 792 l 206 728 l 139 728 m 538 885 q 547 931 538 913 q 568 961 556 949 q 590 984 581 974 q 599 1007 599 994 q 582 1058 599 1044 q 539 1072 565 1072 q 498 1060 514 1072 q 482 1032 482 1047 q 488 1016 482 1019 q 500 1007 494 1013 q 506 985 506 1001 q 491 960 506 968 q 457 951 476 951 q 415 968 432 951 q 399 1010 399 985 q 418 1080 399 1054 q 469 1117 438 1106 q 538 1129 501 1129 q 644 1099 607 1129 q 682 1003 682 1069 q 668 962 682 976 q 635 938 654 947 q 601 917 617 928 q 583 885 586 906 l 538 885 z "},"ẫ":{"ha":728,"x_min":58,"x_max":731,"o":"m 236 -17 q 108 26 158 -17 q 58 140 58 69 q 105 255 58 207 q 237 328 151 303 q 438 354 322 354 l 438 519 q 410 576 438 556 q 338 597 383 597 q 272 583 299 597 q 246 547 246 569 q 258 519 246 532 q 271 481 271 507 q 246 425 271 449 q 183 401 221 401 q 124 426 147 401 q 101 485 101 450 q 136 565 101 529 q 231 622 171 601 q 367 642 292 642 q 542 602 474 642 q 610 499 610 563 l 610 86 q 619 63 610 72 q 640 54 628 54 q 667 65 653 54 q 707 104 682 76 l 731 76 q 571 -17 660 -17 q 486 10 518 -17 q 443 83 454 38 l 438 83 q 357 13 411 43 q 236 -17 303 -17 m 325 60 q 406 99 374 60 q 438 203 438 139 l 438 314 q 290 276 340 314 q 239 165 239 239 q 261 88 239 117 q 325 60 283 60 m 139 724 l 321 882 l 407 882 l 589 724 l 522 724 l 364 788 l 206 724 l 139 724 m 106 960 q 136 1046 113 1004 q 197 1115 160 1088 q 283 1142 233 1142 q 352 1126 321 1142 q 413 1096 383 1111 q 474 1081 442 1081 q 544 1102 521 1081 q 575 1144 567 1124 l 622 1144 q 590 1057 613 1099 q 532 988 568 1015 q 443 961 496 961 q 374 976 404 961 q 315 1007 343 992 q 253 1022 286 1022 q 187 1005 214 1022 q 151 960 160 988 l 106 960 z "},"ȁ":{"ha":728,"x_min":-17,"x_max":731,"o":"m 236 -17 q 108 26 158 -17 q 58 140 58 69 q 105 255 58 207 q 237 328 151 303 q 438 354 322 354 l 438 519 q 410 576 438 556 q 338 597 383 597 q 272 583 299 597 q 246 547 246 569 q 258 519 246 532 q 271 481 271 507 q 246 425 271 449 q 183 401 221 401 q 124 426 147 401 q 101 485 101 450 q 136 565 101 529 q 231 622 171 601 q 367 642 292 642 q 542 602 474 642 q 610 499 610 563 l 610 86 q 619 63 610 72 q 640 54 628 54 q 667 65 653 54 q 707 104 682 76 l 731 76 q 571 -17 660 -17 q 486 10 518 -17 q 443 83 454 38 l 438 83 q 357 13 411 43 q 236 -17 303 -17 m 325 60 q 406 99 374 60 q 438 203 438 139 l 438 314 q 290 276 340 314 q 239 165 239 239 q 261 88 239 117 q 325 60 283 60 m 503 728 l 314 860 q 260 910 274 889 q 246 949 246 931 q 264 992 246 974 q 317 1010 282 1010 q 363 999 340 1010 q 411 953 386 988 l 576 728 l 503 728 m 240 728 l 51 860 q -3 910 11 889 q -17 949 -17 931 q 1 992 -17 974 q 54 1010 19 1010 q 101 999 78 1010 q 149 953 124 988 l 314 728 l 240 728 z "},"ä":{"ha":728,"x_min":58,"x_max":731,"o":"m 236 -17 q 108 26 158 -17 q 58 140 58 69 q 105 255 58 207 q 237 328 151 303 q 438 354 322 354 l 438 519 q 410 576 438 556 q 338 597 383 597 q 272 583 299 597 q 246 547 246 569 q 258 519 246 532 q 271 481 271 507 q 246 425 271 449 q 183 401 221 401 q 124 426 147 401 q 101 485 101 450 q 136 565 101 529 q 231 622 171 601 q 367 642 292 642 q 542 602 474 642 q 610 499 610 563 l 610 86 q 619 63 610 72 q 640 54 628 54 q 667 65 653 54 q 707 104 682 76 l 731 76 q 571 -17 660 -17 q 486 10 518 -17 q 443 83 454 38 l 438 83 q 357 13 411 43 q 236 -17 303 -17 m 325 60 q 406 99 374 60 q 438 203 438 139 l 438 314 q 290 276 340 314 q 239 165 239 239 q 261 88 239 117 q 325 60 283 60 m 496 788 q 438 813 463 788 q 413 871 413 838 q 438 931 413 906 q 496 956 463 956 q 556 931 532 956 q 581 871 581 906 q 556 813 581 838 q 496 788 532 788 m 232 788 q 174 813 199 788 q 149 871 149 838 q 174 931 149 906 q 232 956 199 956 q 292 931 268 956 q 317 871 317 906 q 292 813 317 838 q 232 788 268 788 z "},"ạ":{"ha":728,"x_min":58,"x_max":731,"o":"m 236 -17 q 108 26 158 -17 q 58 140 58 69 q 105 255 58 207 q 237 328 151 303 q 438 354 322 354 l 438 519 q 410 576 438 556 q 338 597 383 597 q 272 583 299 597 q 246 547 246 569 q 258 519 246 532 q 271 481 271 507 q 246 425 271 449 q 183 401 221 401 q 124 426 147 401 q 101 485 101 450 q 136 565 101 529 q 231 622 171 601 q 367 642 292 642 q 542 602 474 642 q 610 499 610 563 l 610 86 q 619 63 610 72 q 640 54 628 54 q 667 65 653 54 q 707 104 682 76 l 731 76 q 571 -17 660 -17 q 486 10 518 -17 q 443 83 454 38 l 438 83 q 357 13 411 43 q 236 -17 303 -17 m 325 60 q 406 99 374 60 q 438 203 438 139 l 438 314 q 290 276 340 314 q 239 165 239 239 q 261 88 239 117 q 325 60 283 60 m 364 -340 q 293 -310 324 -340 q 263 -239 263 -281 q 293 -167 263 -197 q 364 -137 324 -137 q 436 -167 406 -137 q 467 -239 467 -197 q 436 -310 467 -281 q 364 -340 406 -340 z "},"à":{"ha":728,"x_min":58,"x_max":731,"o":"m 236 -17 q 108 26 158 -17 q 58 140 58 69 q 105 255 58 207 q 237 328 151 303 q 438 354 322 354 l 438 519 q 410 576 438 556 q 338 597 383 597 q 272 583 299 597 q 246 547 246 569 q 258 519 246 532 q 271 481 271 507 q 246 425 271 449 q 183 401 221 401 q 124 426 147 401 q 101 485 101 450 q 136 565 101 529 q 231 622 171 601 q 367 642 292 642 q 542 602 474 642 q 610 499 610 563 l 610 86 q 619 63 610 72 q 640 54 628 54 q 667 65 653 54 q 707 104 682 76 l 731 76 q 571 -17 660 -17 q 486 10 518 -17 q 443 83 454 38 l 438 83 q 357 13 411 43 q 236 -17 303 -17 m 325 60 q 406 99 374 60 q 438 203 438 139 l 438 314 q 290 276 340 314 q 239 165 239 239 q 261 88 239 117 q 325 60 283 60 m 353 728 l 164 860 q 110 910 124 889 q 96 949 96 931 q 114 992 96 974 q 167 1010 132 1010 q 213 999 190 1010 q 261 953 236 988 l 426 728 l 353 728 z "},"ả":{"ha":728,"x_min":58,"x_max":731,"o":"m 236 -17 q 108 26 158 -17 q 58 140 58 69 q 105 255 58 207 q 237 328 151 303 q 438 354 322 354 l 438 519 q 410 576 438 556 q 338 597 383 597 q 272 583 299 597 q 246 547 246 569 q 258 519 246 532 q 271 481 271 507 q 246 425 271 449 q 183 401 221 401 q 124 426 147 401 q 101 485 101 450 q 136 565 101 529 q 231 622 171 601 q 367 642 292 642 q 542 602 474 642 q 610 499 610 563 l 610 86 q 619 63 610 72 q 640 54 628 54 q 667 65 653 54 q 707 104 682 76 l 731 76 q 571 -17 660 -17 q 486 10 518 -17 q 443 83 454 38 l 438 83 q 357 13 411 43 q 236 -17 303 -17 m 325 60 q 406 99 374 60 q 438 203 438 139 l 438 314 q 290 276 340 314 q 239 165 239 239 q 261 88 239 117 q 325 60 283 60 m 361 713 q 370 758 361 740 q 392 788 379 775 q 413 815 404 801 q 422 846 422 828 q 406 886 422 874 q 363 899 389 899 q 322 887 338 899 q 306 860 306 875 q 312 843 306 847 q 324 833 318 839 q 329 813 329 828 q 315 788 329 796 q 281 779 300 779 q 239 795 256 779 q 222 838 222 811 q 242 907 222 881 q 294 945 263 933 q 361 957 325 957 q 468 929 431 957 q 506 849 506 901 q 492 796 506 814 q 459 767 478 778 q 425 744 440 756 q 407 713 410 732 l 361 713 z "},"ȃ":{"ha":728,"x_min":58,"x_max":731,"o":"m 236 -17 q 108 26 158 -17 q 58 140 58 69 q 105 255 58 207 q 237 328 151 303 q 438 354 322 354 l 438 519 q 410 576 438 556 q 338 597 383 597 q 272 583 299 597 q 246 547 246 569 q 258 519 246 532 q 271 481 271 507 q 246 425 271 449 q 183 401 221 401 q 124 426 147 401 q 101 485 101 450 q 136 565 101 529 q 231 622 171 601 q 367 642 292 642 q 542 602 474 642 q 610 499 610 563 l 610 86 q 619 63 610 72 q 640 54 628 54 q 667 65 653 54 q 707 104 682 76 l 731 76 q 571 -17 660 -17 q 486 10 518 -17 q 443 83 454 38 l 438 83 q 357 13 411 43 q 236 -17 303 -17 m 325 60 q 406 99 374 60 q 438 203 438 139 l 438 314 q 290 276 340 314 q 239 165 239 239 q 261 88 239 117 q 325 60 283 60 m 139 728 q 197 896 139 832 q 364 960 254 960 q 533 893 479 960 q 588 728 588 826 l 533 728 q 483 811 531 785 q 361 838 435 838 q 242 812 289 838 q 193 728 196 786 l 139 728 z "},"ā":{"ha":728,"x_min":58,"x_max":731,"o":"m 236 -17 q 108 26 158 -17 q 58 140 58 69 q 105 255 58 207 q 237 328 151 303 q 438 354 322 354 l 438 519 q 410 576 438 556 q 338 597 383 597 q 272 583 299 597 q 246 547 246 569 q 258 519 246 532 q 271 481 271 507 q 246 425 271 449 q 183 401 221 401 q 124 426 147 401 q 101 485 101 450 q 136 565 101 529 q 231 622 171 601 q 367 642 292 642 q 542 602 474 642 q 610 499 610 563 l 610 86 q 619 63 610 72 q 640 54 628 54 q 667 65 653 54 q 707 104 682 76 l 731 76 q 571 -17 660 -17 q 486 10 518 -17 q 443 83 454 38 l 438 83 q 357 13 411 43 q 236 -17 303 -17 m 325 60 q 406 99 374 60 q 438 203 438 139 l 438 314 q 290 276 340 314 q 239 165 239 239 q 261 88 239 117 q 325 60 283 60 m 135 786 l 135 892 l 593 892 l 593 786 l 135 786 z "},"ą":{"ha":728,"x_min":58,"x_max":731,"o":"m 236 -17 q 108 26 158 -17 q 58 140 58 69 q 105 255 58 207 q 237 328 151 303 q 438 354 322 354 l 438 519 q 410 576 438 556 q 338 597 383 597 q 272 583 299 597 q 246 547 246 569 q 258 519 246 532 q 271 481 271 507 q 246 425 271 449 q 183 401 221 401 q 124 426 147 401 q 101 485 101 450 q 136 565 101 529 q 231 622 171 601 q 367 642 292 642 q 542 602 474 642 q 610 499 610 563 l 610 86 q 619 63 610 72 q 640 54 628 54 q 667 65 653 54 q 707 104 682 76 l 731 76 q 571 -17 660 -17 q 486 10 518 -17 q 443 83 454 38 l 438 83 q 357 13 411 43 q 236 -17 303 -17 m 325 60 q 406 99 374 60 q 438 203 438 139 l 438 314 q 290 276 340 314 q 239 165 239 239 q 261 88 239 117 q 325 60 283 60 m 519 -337 q 429 -306 464 -337 q 394 -222 394 -274 q 414 -151 394 -186 q 477 -76 433 -117 q 596 14 521 -36 l 653 14 q 544 -101 582 -43 q 506 -208 506 -158 q 563 -272 506 -272 q 602 -263 582 -272 q 649 -235 622 -254 l 654 -235 l 654 -278 q 596 -321 632 -304 q 519 -337 560 -337 z "},"å":{"ha":728,"x_min":58,"x_max":731,"o":"m 236 -17 q 108 26 158 -17 q 58 140 58 69 q 105 255 58 207 q 237 328 151 303 q 438 354 322 354 l 438 519 q 410 576 438 556 q 338 597 383 597 q 272 583 299 597 q 246 547 246 569 q 258 519 246 532 q 271 481 271 507 q 246 425 271 449 q 183 401 221 401 q 124 426 147 401 q 101 485 101 450 q 136 565 101 529 q 231 622 171 601 q 367 642 292 642 q 542 602 474 642 q 610 499 610 563 l 610 86 q 619 63 610 72 q 640 54 628 54 q 667 65 653 54 q 707 104 682 76 l 731 76 q 571 -17 660 -17 q 486 10 518 -17 q 443 83 454 38 l 438 83 q 357 13 411 43 q 236 -17 303 -17 m 325 60 q 406 99 374 60 q 438 203 438 139 l 438 314 q 290 276 340 314 q 239 165 239 239 q 261 88 239 117 q 325 60 283 60 m 364 744 q 265 786 307 744 q 222 886 222 828 q 265 985 222 943 q 364 1026 307 1026 q 463 985 421 1026 q 506 886 506 944 q 464 786 506 828 q 364 744 422 744 m 364 815 q 413 836 393 815 q 433 885 433 857 q 413 934 433 914 q 364 954 392 954 q 315 933 336 954 q 294 885 294 913 q 315 837 294 858 q 364 815 336 815 z "},"ǻ":{"ha":728,"x_min":58,"x_max":731,"o":"m 236 -17 q 108 26 158 -17 q 58 140 58 69 q 105 255 58 207 q 237 328 151 303 q 438 354 322 354 l 438 519 q 410 576 438 556 q 338 597 383 597 q 272 583 299 597 q 246 547 246 569 q 258 519 246 532 q 271 481 271 507 q 246 425 271 449 q 183 401 221 401 q 124 426 147 401 q 101 485 101 450 q 136 565 101 529 q 231 622 171 601 q 367 642 292 642 q 542 602 474 642 q 610 499 610 563 l 610 86 q 619 63 610 72 q 640 54 628 54 q 667 65 653 54 q 707 104 682 76 l 731 76 q 571 -17 660 -17 q 486 10 518 -17 q 443 83 454 38 l 438 83 q 357 13 411 43 q 236 -17 303 -17 m 325 60 q 406 99 374 60 q 438 203 438 139 l 438 314 q 290 276 340 314 q 239 165 239 239 q 261 88 239 117 q 325 60 283 60 m 364 744 q 265 786 307 744 q 222 886 222 828 q 265 985 222 943 q 364 1026 307 1026 q 463 985 421 1026 q 506 886 506 944 q 464 786 506 828 q 364 744 422 744 m 364 815 q 413 836 393 815 q 433 885 433 857 q 413 934 433 914 q 364 954 392 954 q 315 933 336 954 q 294 885 294 913 q 315 837 294 858 q 364 815 336 815 m 169 1128 l 386 1267 q 451 1304 429 1294 q 494 1314 472 1314 q 543 1297 526 1314 q 560 1253 560 1279 q 544 1206 560 1228 q 488 1176 528 1185 l 243 1128 l 169 1128 z "},"ã":{"ha":728,"x_min":58,"x_max":731,"o":"m 236 -17 q 108 26 158 -17 q 58 140 58 69 q 105 255 58 207 q 237 328 151 303 q 438 354 322 354 l 438 519 q 410 576 438 556 q 338 597 383 597 q 272 583 299 597 q 246 547 246 569 q 258 519 246 532 q 271 481 271 507 q 246 425 271 449 q 183 401 221 401 q 124 426 147 401 q 101 485 101 450 q 136 565 101 529 q 231 622 171 601 q 367 642 292 642 q 542 602 474 642 q 610 499 610 563 l 610 86 q 619 63 610 72 q 640 54 628 54 q 667 65 653 54 q 707 104 682 76 l 731 76 q 571 -17 660 -17 q 486 10 518 -17 q 443 83 454 38 l 438 83 q 357 13 411 43 q 236 -17 303 -17 m 325 60 q 406 99 374 60 q 438 203 438 139 l 438 314 q 290 276 340 314 q 239 165 239 239 q 261 88 239 117 q 325 60 283 60 m 106 756 q 136 842 113 800 q 197 910 160 883 q 283 938 233 938 q 352 922 321 938 q 413 892 383 907 q 474 876 442 876 q 544 898 521 876 q 575 940 567 919 l 622 940 q 590 853 613 894 q 532 784 568 811 q 443 757 496 757 q 374 772 404 757 q 315 803 343 788 q 253 818 286 818 q 187 801 214 818 q 151 756 160 783 l 106 756 z "},"æ":{"ha":1078,"x_min":60,"x_max":1024,"o":"m 754 -17 q 599 30 668 -17 q 490 153 531 76 q 450 317 450 231 q 486 473 450 399 q 589 594 522 547 q 746 642 656 642 q 884 608 822 642 q 983 513 946 575 q 1019 369 1019 451 l 1019 358 l 551 358 l 551 396 l 842 396 l 842 478 q 736 601 842 601 q 664 574 692 601 q 624 484 636 547 q 611 311 611 421 q 624 137 611 199 q 669 51 638 75 q 756 28 701 28 q 886 65 829 28 q 982 193 943 103 l 1024 193 q 966 83 1006 131 q 872 9 926 35 q 754 -17 817 -17 m 326 60 q 407 99 375 60 q 439 203 439 139 l 439 314 q 292 276 343 314 q 242 165 242 239 q 264 88 242 117 q 326 60 286 60 m 242 -17 q 110 26 160 -17 q 60 139 60 69 q 106 254 60 206 q 238 328 153 303 q 439 354 324 354 l 439 519 q 412 576 439 556 q 339 597 385 597 q 274 583 300 597 q 249 547 249 569 q 260 519 249 532 q 272 481 272 507 q 247 425 272 449 q 186 401 222 401 q 126 426 149 401 q 103 485 103 450 q 138 565 103 529 q 233 622 172 601 q 369 642 293 642 q 543 602 475 642 q 611 499 611 563 l 611 86 l 489 156 l 483 156 q 390 28 454 74 q 242 -17 325 -17 z "},"ǽ":{"ha":1078,"x_min":60,"x_max":1024,"o":"m 754 -17 q 599 30 668 -17 q 490 153 531 76 q 450 317 450 231 q 486 473 450 399 q 589 594 522 547 q 746 642 656 642 q 884 608 822 642 q 983 513 946 575 q 1019 369 1019 451 l 1019 358 l 551 358 l 551 396 l 842 396 l 842 478 q 736 601 842 601 q 664 574 692 601 q 624 484 636 547 q 611 311 611 421 q 624 137 611 199 q 669 51 638 75 q 756 28 701 28 q 886 65 829 28 q 982 193 943 103 l 1024 193 q 966 83 1006 131 q 872 9 926 35 q 754 -17 817 -17 m 326 60 q 407 99 375 60 q 439 203 439 139 l 439 314 q 292 276 343 314 q 242 165 242 239 q 264 88 242 117 q 326 60 286 60 m 242 -17 q 110 26 160 -17 q 60 139 60 69 q 106 254 60 206 q 238 328 153 303 q 439 354 324 354 l 439 519 q 412 576 439 556 q 339 597 385 597 q 274 583 300 597 q 249 547 249 569 q 260 519 249 532 q 272 481 272 507 q 247 425 272 449 q 186 401 222 401 q 126 426 149 401 q 103 485 103 450 q 138 565 103 529 q 233 622 172 601 q 369 642 293 642 q 543 602 475 642 q 611 499 611 563 l 611 86 l 489 156 l 483 156 q 390 28 454 74 q 242 -17 325 -17 m 515 728 l 682 953 q 730 999 707 988 q 775 1010 753 1010 q 828 992 811 1010 q 846 949 846 974 q 833 910 846 931 q 778 860 821 889 l 589 728 l 515 728 z "},"b":{"ha":833,"x_min":17,"x_max":771,"o":"m 490 -17 q 378 11 426 -17 q 306 81 329 39 l 272 81 l 300 292 q 348 97 300 158 q 468 35 396 35 q 529 56 506 35 q 563 138 553 78 q 574 311 574 199 q 563 485 574 425 q 528 569 551 546 q 467 592 504 592 q 347 529 394 592 q 300 333 300 467 l 272 544 l 306 544 q 378 614 329 586 q 492 642 428 642 q 628 601 565 642 q 731 485 692 560 q 771 313 771 411 q 731 140 771 214 q 628 24 692 65 q 490 -17 564 -17 m 17 0 l 17 39 l 300 39 l 300 0 l 17 0 m 128 21 l 128 1025 l 300 1025 l 300 21 l 128 21 m 17 1010 l 17 1047 l 300 1047 l 300 1010 l 17 1010 z "},"c":{"ha":713,"x_min":65,"x_max":665,"o":"m 397 -17 q 269 11 329 -17 q 163 86 208 39 q 91 192 117 133 q 65 314 65 251 q 91 433 65 375 q 162 539 117 492 q 269 614 207 586 q 404 642 331 642 q 522 621 468 642 q 606 563 575 600 q 638 478 638 526 q 610 408 638 433 q 540 382 583 382 q 476 404 503 382 q 449 467 449 426 q 458 506 449 493 q 476 530 467 519 q 485 557 485 540 q 465 590 485 579 q 406 601 444 601 q 328 578 360 601 q 280 490 296 554 q 264 301 264 425 q 277 133 264 193 q 322 51 290 74 q 407 28 354 28 q 533 69 482 28 q 622 207 585 111 l 665 207 q 569 45 638 107 q 397 -17 501 -17 z "},"ć":{"ha":713,"x_min":65,"x_max":665,"o":"m 397 -17 q 269 11 329 -17 q 163 86 208 39 q 91 192 117 133 q 65 314 65 251 q 91 433 65 375 q 162 539 117 492 q 269 614 207 586 q 404 642 331 642 q 522 621 468 642 q 606 563 575 600 q 638 478 638 526 q 610 408 638 433 q 540 382 583 382 q 476 404 503 382 q 449 467 449 426 q 458 506 449 493 q 476 530 467 519 q 485 557 485 540 q 465 590 485 579 q 406 601 444 601 q 328 578 360 601 q 280 490 296 554 q 264 301 264 425 q 277 133 264 193 q 322 51 290 74 q 407 28 354 28 q 533 69 482 28 q 622 207 585 111 l 665 207 q 569 45 638 107 q 397 -17 501 -17 m 333 728 l 500 953 q 548 999 525 988 q 593 1010 571 1010 q 647 992 629 1010 q 664 949 664 974 q 651 910 664 931 q 596 860 639 889 l 407 728 l 333 728 z "},"č":{"ha":713,"x_min":65,"x_max":665,"o":"m 397 -17 q 269 11 329 -17 q 163 86 208 39 q 91 192 117 133 q 65 314 65 251 q 91 433 65 375 q 162 539 117 492 q 269 614 207 586 q 404 642 331 642 q 522 621 468 642 q 606 563 575 600 q 638 478 638 526 q 610 408 638 433 q 540 382 583 382 q 476 404 503 382 q 449 467 449 426 q 458 506 449 493 q 476 530 467 519 q 485 557 485 540 q 465 590 485 579 q 406 601 444 601 q 328 578 360 601 q 280 490 296 554 q 264 301 264 425 q 277 133 264 193 q 322 51 290 74 q 407 28 354 28 q 533 69 482 28 q 622 207 585 111 l 665 207 q 569 45 638 107 q 397 -17 501 -17 m 342 728 l 146 1006 l 206 1006 l 385 872 l 564 1006 l 624 1006 l 428 728 l 342 728 z "},"ç":{"ha":713,"x_min":65,"x_max":665,"o":"m 397 -17 q 269 11 329 -17 q 163 86 208 39 q 91 192 117 133 q 65 314 65 251 q 91 433 65 375 q 162 539 117 492 q 269 614 207 586 q 404 642 331 642 q 522 621 468 642 q 606 563 575 600 q 638 478 638 526 q 610 408 638 433 q 540 382 583 382 q 476 404 503 382 q 449 467 449 426 q 458 506 449 493 q 476 530 467 519 q 485 557 485 540 q 465 590 485 579 q 406 601 444 601 q 328 578 360 601 q 280 490 296 554 q 264 301 264 425 q 277 133 264 193 q 322 51 290 74 q 407 28 354 28 q 533 69 482 28 q 622 207 585 111 l 665 207 q 569 45 638 107 q 397 -17 501 -17 m 315 -319 q 244 -311 274 -319 q 204 -296 215 -303 l 219 -256 q 253 -266 231 -261 q 297 -271 276 -271 q 358 -254 336 -271 q 381 -204 381 -237 q 274 -132 381 -133 l 324 14 l 376 14 l 343 -92 l 369 -92 q 470 -117 432 -92 q 508 -192 508 -143 q 455 -285 508 -251 q 315 -319 401 -319 z "},"ĉ":{"ha":713,"x_min":65,"x_max":665,"o":"m 397 -17 q 269 11 329 -17 q 163 86 208 39 q 91 192 117 133 q 65 314 65 251 q 91 433 65 375 q 162 539 117 492 q 269 614 207 586 q 404 642 331 642 q 522 621 468 642 q 606 563 575 600 q 638 478 638 526 q 610 408 638 433 q 540 382 583 382 q 476 404 503 382 q 449 467 449 426 q 458 506 449 493 q 476 530 467 519 q 485 557 485 540 q 465 590 485 579 q 406 601 444 601 q 328 578 360 601 q 280 490 296 554 q 264 301 264 425 q 277 133 264 193 q 322 51 290 74 q 407 28 354 28 q 533 69 482 28 q 622 207 585 111 l 665 207 q 569 45 638 107 q 397 -17 501 -17 m 146 728 l 342 1006 l 428 1006 l 624 728 l 564 728 l 385 861 l 206 728 l 146 728 z "},"ċ":{"ha":713,"x_min":65,"x_max":665,"o":"m 397 -17 q 269 11 329 -17 q 163 86 208 39 q 91 192 117 133 q 65 314 65 251 q 91 433 65 375 q 162 539 117 492 q 269 614 207 586 q 404 642 331 642 q 522 621 468 642 q 606 563 575 600 q 638 478 638 526 q 610 408 638 433 q 540 382 583 382 q 476 404 503 382 q 449 467 449 426 q 458 506 449 493 q 476 530 467 519 q 485 557 485 540 q 465 590 485 579 q 406 601 444 601 q 328 578 360 601 q 280 490 296 554 q 264 301 264 425 q 277 133 264 193 q 322 51 290 74 q 407 28 354 28 q 533 69 482 28 q 622 207 585 111 l 665 207 q 569 45 638 107 q 397 -17 501 -17 m 383 788 q 313 818 343 788 q 282 889 282 849 q 313 961 282 931 q 383 992 343 992 q 456 961 425 992 q 486 889 486 931 q 456 818 486 849 q 383 788 425 788 z "},"d":{"ha":833,"x_min":65,"x_max":811,"o":"m 346 -17 q 210 24 274 -17 q 106 140 146 65 q 65 313 65 214 q 105 485 65 411 q 208 601 144 560 q 344 642 272 642 q 459 614 410 642 q 531 544 508 586 l 564 544 l 536 333 q 488 530 536 468 q 369 592 440 592 q 307 569 331 592 q 272 485 283 546 q 261 311 261 425 q 272 138 261 199 q 306 56 282 78 q 368 35 329 35 q 488 97 439 35 q 536 292 536 158 l 564 81 l 531 81 q 460 11 508 39 q 346 -17 411 -17 m 536 0 l 536 39 l 811 39 l 811 0 l 536 0 m 536 21 l 536 1025 l 708 1025 l 708 21 l 536 21 m 399 1010 l 399 1047 l 708 1047 l 708 1010 l 399 1010 z "},"ð":{"ha":883,"x_min":64,"x_max":810,"o":"m 435 -17 q 296 8 363 -17 q 177 78 229 33 q 94 184 125 124 q 64 315 64 244 q 112 470 64 401 q 239 578 160 539 q 411 618 318 618 q 499 608 460 618 q 571 575 538 597 l 575 576 q 536 775 571 689 q 434 917 501 861 q 268 993 367 972 l 281 1032 q 479 970 385 1021 q 649 837 574 919 q 767 647 724 754 q 810 415 810 540 q 760 184 810 281 q 624 35 710 88 q 435 -17 539 -17 m 443 29 q 533 52 500 29 q 582 133 567 75 q 597 294 597 192 q 595 389 597 336 q 583 489 593 442 q 518 548 558 526 q 426 569 478 569 q 351 548 382 569 q 303 468 319 526 q 286 299 286 410 q 301 135 286 194 q 351 53 317 76 q 443 29 385 29 m 335 753 l 311 806 l 761 979 l 783 926 l 335 753 z "},"ď":{"ha":833,"x_min":65,"x_max":997,"o":"m 346 -17 q 210 24 274 -17 q 106 140 146 65 q 65 313 65 214 q 105 485 65 411 q 208 601 144 560 q 344 642 272 642 q 459 614 410 642 q 531 544 508 586 l 564 544 l 536 333 q 488 530 536 468 q 369 592 440 592 q 307 569 331 592 q 272 485 283 546 q 261 311 261 425 q 272 138 261 199 q 306 56 282 78 q 368 35 329 35 q 488 97 439 35 q 536 292 536 158 l 564 81 l 531 81 q 460 11 508 39 q 346 -17 411 -17 m 536 0 l 536 39 l 811 39 l 811 0 l 536 0 m 536 21 l 536 1025 l 708 1025 l 708 21 l 536 21 m 399 1010 l 399 1047 l 708 1047 l 708 1010 l 399 1010 m 846 683 l 818 714 q 910 802 879 757 q 942 894 942 847 q 938 916 942 911 q 932 921 935 921 q 915 911 925 921 q 891 891 906 901 q 851 881 876 881 q 795 906 814 881 q 776 961 776 932 q 806 1031 776 1001 q 881 1060 835 1060 q 967 1016 936 1060 q 997 911 997 972 q 955 783 997 839 q 846 683 913 726 z "},"đ":{"ha":833,"x_min":65,"x_max":847,"o":"m 346 -17 q 210 24 274 -17 q 106 140 146 65 q 65 313 65 214 q 105 485 65 411 q 208 601 144 560 q 344 642 272 642 q 459 614 410 642 q 531 544 508 586 l 564 544 l 536 333 q 488 530 536 468 q 369 592 440 592 q 307 569 331 592 q 272 485 283 546 q 261 311 261 425 q 272 138 261 199 q 306 56 282 78 q 368 35 329 35 q 488 97 439 35 q 536 292 536 158 l 564 81 l 531 81 q 460 11 508 39 q 346 -17 411 -17 m 536 0 l 536 39 l 811 39 l 811 0 l 536 0 m 536 21 l 536 1025 l 708 1025 l 708 21 l 536 21 m 399 1010 l 399 1047 l 708 1047 l 708 1010 l 399 1010 m 319 793 l 319 850 l 847 850 l 847 793 l 319 793 z "},"ḍ":{"ha":833,"x_min":65,"x_max":811,"o":"m 346 -17 q 210 24 274 -17 q 106 140 146 65 q 65 313 65 214 q 105 485 65 411 q 208 601 144 560 q 344 642 272 642 q 459 614 410 642 q 531 544 508 586 l 564 544 l 536 333 q 488 530 536 468 q 369 592 440 592 q 307 569 331 592 q 272 485 283 546 q 261 311 261 425 q 272 138 261 199 q 306 56 282 78 q 368 35 329 35 q 488 97 439 35 q 536 292 536 158 l 564 81 l 531 81 q 460 11 508 39 q 346 -17 411 -17 m 536 0 l 536 39 l 811 39 l 811 0 l 536 0 m 536 21 l 536 1025 l 708 1025 l 708 21 l 536 21 m 399 1010 l 399 1047 l 708 1047 l 708 1010 l 399 1010 m 417 -340 q 346 -310 376 -340 q 315 -239 315 -281 q 346 -167 315 -197 q 417 -137 376 -137 q 489 -167 458 -137 q 519 -239 519 -197 q 489 -310 519 -281 q 417 -340 458 -340 z "},"ǳ":{"ha":1497,"x_min":65,"x_max":1438,"o":"m 346 -17 q 210 24 274 -17 q 106 140 146 65 q 65 313 65 214 q 105 485 65 411 q 208 601 144 560 q 344 642 272 642 q 459 614 410 642 q 531 544 508 586 l 564 544 l 536 333 q 488 530 536 468 q 369 592 440 592 q 307 569 331 592 q 272 485 283 546 q 261 311 261 425 q 272 138 261 199 q 306 56 282 78 q 368 35 329 35 q 488 97 439 35 q 536 292 536 158 l 564 81 l 531 81 q 460 11 508 39 q 346 -17 411 -17 m 536 0 l 536 39 l 811 39 l 811 0 l 536 0 m 536 21 l 536 1025 l 708 1025 l 708 21 l 536 21 m 399 1010 l 399 1047 l 708 1047 l 708 1010 l 399 1010 m 888 21 l 883 49 l 1263 613 l 1417 613 l 1436 576 l 1067 21 l 888 21 m 883 0 l 883 49 l 894 39 l 1208 39 q 1340 88 1286 39 q 1399 235 1394 136 l 1400 257 l 1439 257 l 1439 0 l 883 0 m 921 382 l 921 625 l 1436 625 l 1436 578 l 1425 588 l 1150 588 q 1048 559 1090 588 q 983 484 1006 531 q 958 382 960 438 l 921 382 z "},"ǆ":{"ha":1497,"x_min":65,"x_max":1438,"o":"m 346 -17 q 210 24 274 -17 q 106 140 146 65 q 65 313 65 214 q 105 485 65 411 q 208 601 144 560 q 344 642 272 642 q 459 614 410 642 q 531 544 508 586 l 564 544 l 536 333 q 488 530 536 468 q 369 592 440 592 q 307 569 331 592 q 272 485 283 546 q 261 311 261 425 q 272 138 261 199 q 306 56 282 78 q 368 35 329 35 q 488 97 439 35 q 536 292 536 158 l 564 81 l 531 81 q 460 11 508 39 q 346 -17 411 -17 m 536 0 l 536 39 l 811 39 l 811 0 l 536 0 m 536 21 l 536 1025 l 708 1025 l 708 21 l 536 21 m 399 1010 l 399 1047 l 708 1047 l 708 1010 l 399 1010 m 888 21 l 883 49 l 1263 613 l 1417 613 l 1436 576 l 1067 21 l 888 21 m 883 0 l 883 49 l 894 39 l 1208 39 q 1340 88 1286 39 q 1399 235 1394 136 l 1400 257 l 1439 257 l 1439 0 l 883 0 m 921 382 l 921 625 l 1436 625 l 1436 578 l 1425 588 l 1150 588 q 1048 559 1090 588 q 983 484 1006 531 q 958 382 960 438 l 921 382 m 1122 728 l 926 1006 l 986 1006 l 1165 872 l 1344 1006 l 1404 1006 l 1208 728 l 1122 728 z "},"e":{"ha":724,"x_min":60,"x_max":671,"o":"m 396 -17 q 265 10 326 -17 q 158 85 204 38 q 85 191 111 132 q 60 315 60 250 q 101 472 60 397 q 215 594 142 547 q 388 642 289 642 q 530 608 467 642 q 630 513 593 575 q 667 369 667 451 l 667 358 l 199 358 l 199 396 l 488 396 l 488 478 q 382 601 488 601 q 310 574 338 601 q 271 484 283 547 q 258 311 258 421 q 272 137 258 199 q 316 51 285 75 q 401 28 347 28 q 532 65 475 28 q 628 193 589 101 l 671 193 q 568 40 642 96 q 396 -17 494 -17 z "},"é":{"ha":724,"x_min":60,"x_max":671,"o":"m 396 -17 q 265 10 326 -17 q 158 85 204 38 q 85 191 111 132 q 60 315 60 250 q 101 472 60 397 q 215 594 142 547 q 388 642 289 642 q 530 608 467 642 q 630 513 593 575 q 667 369 667 451 l 667 358 l 199 358 l 199 396 l 488 396 l 488 478 q 382 601 488 601 q 310 574 338 601 q 271 484 283 547 q 258 311 258 421 q 272 137 258 199 q 316 51 285 75 q 401 28 347 28 q 532 65 475 28 q 628 193 589 101 l 671 193 q 568 40 642 96 q 396 -17 494 -17 m 325 728 l 492 953 q 540 999 517 988 q 585 1010 563 1010 q 638 992 621 1010 q 656 949 656 974 q 643 910 656 931 q 588 860 631 889 l 399 728 l 325 728 z "},"ĕ":{"ha":724,"x_min":60,"x_max":671,"o":"m 396 -17 q 265 10 326 -17 q 158 85 204 38 q 85 191 111 132 q 60 315 60 250 q 101 472 60 397 q 215 594 142 547 q 388 642 289 642 q 530 608 467 642 q 630 513 593 575 q 667 369 667 451 l 667 358 l 199 358 l 199 396 l 488 396 l 488 478 q 382 601 488 601 q 310 574 338 601 q 271 484 283 547 q 258 311 258 421 q 272 137 258 199 q 316 51 285 75 q 401 28 347 28 q 532 65 475 28 q 628 193 589 101 l 671 193 q 568 40 642 96 q 396 -17 494 -17 m 378 728 q 229 779 278 728 q 181 915 181 831 l 235 915 q 275 858 238 875 q 375 840 313 840 q 477 858 438 840 q 519 915 517 876 l 574 915 q 553 819 574 863 q 490 752 533 776 q 378 728 447 728 z "},"ě":{"ha":724,"x_min":60,"x_max":671,"o":"m 396 -17 q 265 10 326 -17 q 158 85 204 38 q 85 191 111 132 q 60 315 60 250 q 101 472 60 397 q 215 594 142 547 q 388 642 289 642 q 530 608 467 642 q 630 513 593 575 q 667 369 667 451 l 667 358 l 199 358 l 199 396 l 488 396 l 488 478 q 382 601 488 601 q 310 574 338 601 q 271 484 283 547 q 258 311 258 421 q 272 137 258 199 q 316 51 285 75 q 401 28 347 28 q 532 65 475 28 q 628 193 589 101 l 671 193 q 568 40 642 96 q 396 -17 494 -17 m 333 728 l 138 1006 l 197 1006 l 376 872 l 556 1006 l 615 1006 l 419 728 l 333 728 z "},"ê":{"ha":724,"x_min":60,"x_max":671,"o":"m 396 -17 q 265 10 326 -17 q 158 85 204 38 q 85 191 111 132 q 60 315 60 250 q 101 472 60 397 q 215 594 142 547 q 388 642 289 642 q 530 608 467 642 q 630 513 593 575 q 667 369 667 451 l 667 358 l 199 358 l 199 396 l 488 396 l 488 478 q 382 601 488 601 q 310 574 338 601 q 271 484 283 547 q 258 311 258 421 q 272 137 258 199 q 316 51 285 75 q 401 28 347 28 q 532 65 475 28 q 628 193 589 101 l 671 193 q 568 40 642 96 q 396 -17 494 -17 m 139 728 l 335 1006 l 421 1006 l 617 728 l 557 728 l 378 861 l 199 728 l 139 728 z "},"ế":{"ha":724,"x_min":60,"x_max":671,"o":"m 396 -17 q 265 10 326 -17 q 158 85 204 38 q 85 191 111 132 q 60 315 60 250 q 101 472 60 397 q 215 594 142 547 q 388 642 289 642 q 530 608 467 642 q 630 513 593 575 q 667 369 667 451 l 667 358 l 199 358 l 199 396 l 488 396 l 488 478 q 382 601 488 601 q 310 574 338 601 q 271 484 283 547 q 258 311 258 421 q 272 137 258 199 q 316 51 285 75 q 401 28 347 28 q 532 65 475 28 q 628 193 589 101 l 671 193 q 568 40 642 96 q 396 -17 494 -17 m 151 728 l 333 886 l 419 886 l 601 728 l 535 728 l 376 792 l 218 728 l 151 728 m 182 924 l 399 1063 q 462 1100 440 1090 q 506 1110 483 1110 q 554 1092 538 1110 q 571 1049 571 1075 q 556 1002 571 1024 q 500 972 540 981 l 256 924 l 182 924 z "},"ệ":{"ha":724,"x_min":60,"x_max":671,"o":"m 396 -17 q 265 10 326 -17 q 158 85 204 38 q 85 191 111 132 q 60 315 60 250 q 101 472 60 397 q 215 594 142 547 q 388 642 289 642 q 530 608 467 642 q 630 513 593 575 q 667 369 667 451 l 667 358 l 199 358 l 199 396 l 488 396 l 488 478 q 382 601 488 601 q 310 574 338 601 q 271 484 283 547 q 258 311 258 421 q 272 137 258 199 q 316 51 285 75 q 401 28 347 28 q 532 65 475 28 q 628 193 589 101 l 671 193 q 568 40 642 96 q 396 -17 494 -17 m 363 -340 q 292 -310 322 -340 q 261 -239 261 -281 q 292 -167 261 -197 q 363 -137 322 -137 q 435 -167 404 -137 q 465 -239 465 -197 q 435 -310 465 -281 q 363 -340 404 -340 m 139 728 l 335 1006 l 421 1006 l 617 728 l 557 728 l 378 861 l 199 728 l 139 728 z "},"ề":{"ha":724,"x_min":60,"x_max":671,"o":"m 396 -17 q 265 10 326 -17 q 158 85 204 38 q 85 191 111 132 q 60 315 60 250 q 101 472 60 397 q 215 594 142 547 q 388 642 289 642 q 530 608 467 642 q 630 513 593 575 q 667 369 667 451 l 667 358 l 199 358 l 199 396 l 488 396 l 488 478 q 382 601 488 601 q 310 574 338 601 q 271 484 283 547 q 258 311 258 421 q 272 137 258 199 q 316 51 285 75 q 401 28 347 28 q 532 65 475 28 q 628 193 589 101 l 671 193 q 568 40 642 96 q 396 -17 494 -17 m 151 728 l 333 886 l 419 886 l 601 728 l 535 728 l 376 792 l 218 728 l 151 728 m 497 925 l 253 974 q 197 1003 213 982 q 182 1050 182 1025 q 199 1094 182 1076 q 247 1111 215 1111 q 291 1101 269 1111 q 354 1064 313 1092 l 571 925 l 497 925 z "},"ể":{"ha":724,"x_min":60,"x_max":694,"o":"m 396 -17 q 265 10 326 -17 q 158 85 204 38 q 85 191 111 132 q 60 315 60 250 q 101 472 60 397 q 215 594 142 547 q 388 642 289 642 q 530 608 467 642 q 630 513 593 575 q 667 369 667 451 l 667 358 l 199 358 l 199 396 l 488 396 l 488 478 q 382 601 488 601 q 310 574 338 601 q 271 484 283 547 q 258 311 258 421 q 272 137 258 199 q 316 51 285 75 q 401 28 347 28 q 532 65 475 28 q 628 193 589 101 l 671 193 q 568 40 642 96 q 396 -17 494 -17 m 151 728 l 333 886 l 419 886 l 601 728 l 535 728 l 376 792 l 218 728 l 151 728 m 550 885 q 559 931 550 913 q 581 961 568 949 q 602 984 593 974 q 611 1007 611 994 q 594 1058 611 1044 q 551 1072 578 1072 q 510 1060 526 1072 q 494 1032 494 1047 q 501 1016 494 1019 q 513 1007 507 1013 q 518 985 518 1001 q 503 960 518 968 q 469 951 489 951 q 428 968 444 951 q 411 1010 411 985 q 431 1080 411 1054 q 482 1117 450 1106 q 550 1129 514 1129 q 657 1099 619 1129 q 694 1003 694 1069 q 681 962 694 976 q 648 938 667 947 q 614 917 629 928 q 596 885 599 906 l 550 885 z "},"ễ":{"ha":724,"x_min":60,"x_max":671,"o":"m 396 -17 q 265 10 326 -17 q 158 85 204 38 q 85 191 111 132 q 60 315 60 250 q 101 472 60 397 q 215 594 142 547 q 388 642 289 642 q 530 608 467 642 q 630 513 593 575 q 667 369 667 451 l 667 358 l 199 358 l 199 396 l 488 396 l 488 478 q 382 601 488 601 q 310 574 338 601 q 271 484 283 547 q 258 311 258 421 q 272 137 258 199 q 316 51 285 75 q 401 28 347 28 q 532 65 475 28 q 628 193 589 101 l 671 193 q 568 40 642 96 q 396 -17 494 -17 m 151 724 l 333 882 l 419 882 l 601 724 l 535 724 l 376 788 l 218 724 l 151 724 m 118 960 q 149 1046 125 1004 q 209 1115 172 1088 q 296 1142 246 1142 q 365 1126 333 1142 q 425 1096 396 1111 q 486 1081 454 1081 q 556 1102 533 1081 q 588 1144 579 1124 l 635 1144 q 603 1057 625 1099 q 544 988 581 1015 q 456 961 508 961 q 386 976 417 961 q 327 1007 356 992 q 265 1022 299 1022 q 199 1005 226 1022 q 164 960 172 988 l 118 960 z "},"ȅ":{"ha":724,"x_min":-4,"x_max":671,"o":"m 396 -17 q 265 10 326 -17 q 158 85 204 38 q 85 191 111 132 q 60 315 60 250 q 101 472 60 397 q 215 594 142 547 q 388 642 289 642 q 530 608 467 642 q 630 513 593 575 q 667 369 667 451 l 667 358 l 199 358 l 199 396 l 488 396 l 488 478 q 382 601 488 601 q 310 574 338 601 q 271 484 283 547 q 258 311 258 421 q 272 137 258 199 q 316 51 285 75 q 401 28 347 28 q 532 65 475 28 q 628 193 589 101 l 671 193 q 568 40 642 96 q 396 -17 494 -17 m 515 728 l 326 860 q 272 910 286 889 q 258 949 258 931 q 276 992 258 974 q 329 1010 294 1010 q 376 999 353 1010 q 424 953 399 988 l 589 728 l 515 728 m 253 728 l 64 860 q 10 910 24 889 q -4 949 -4 931 q 14 992 -4 974 q 67 1010 32 1010 q 113 999 90 1010 q 161 953 136 988 l 326 728 l 253 728 z "},"ë":{"ha":724,"x_min":60,"x_max":671,"o":"m 396 -17 q 265 10 326 -17 q 158 85 204 38 q 85 191 111 132 q 60 315 60 250 q 101 472 60 397 q 215 594 142 547 q 388 642 289 642 q 530 608 467 642 q 630 513 593 575 q 667 369 667 451 l 667 358 l 199 358 l 199 396 l 488 396 l 488 478 q 382 601 488 601 q 310 574 338 601 q 271 484 283 547 q 258 311 258 421 q 272 137 258 199 q 316 51 285 75 q 401 28 347 28 q 532 65 475 28 q 628 193 589 101 l 671 193 q 568 40 642 96 q 396 -17 494 -17 m 508 788 q 450 813 475 788 q 425 871 425 838 q 450 931 425 906 q 508 956 475 956 q 569 931 544 956 q 593 871 593 906 q 569 813 593 838 q 508 788 544 788 m 244 788 q 186 813 211 788 q 161 871 161 838 q 186 931 161 906 q 244 956 211 956 q 305 931 281 956 q 329 871 329 906 q 305 813 329 838 q 244 788 281 788 z "},"ė":{"ha":724,"x_min":60,"x_max":671,"o":"m 396 -17 q 265 10 326 -17 q 158 85 204 38 q 85 191 111 132 q 60 315 60 250 q 101 472 60 397 q 215 594 142 547 q 388 642 289 642 q 530 608 467 642 q 630 513 593 575 q 667 369 667 451 l 667 358 l 199 358 l 199 396 l 488 396 l 488 478 q 382 601 488 601 q 310 574 338 601 q 271 484 283 547 q 258 311 258 421 q 272 137 258 199 q 316 51 285 75 q 401 28 347 28 q 532 65 475 28 q 628 193 589 101 l 671 193 q 568 40 642 96 q 396 -17 494 -17 m 376 788 q 306 818 336 788 q 275 889 275 849 q 306 961 275 931 q 376 992 336 992 q 449 961 418 992 q 479 889 479 931 q 449 818 479 849 q 376 788 418 788 z "},"ẹ":{"ha":724,"x_min":60,"x_max":671,"o":"m 396 -17 q 265 10 326 -17 q 158 85 204 38 q 85 191 111 132 q 60 315 60 250 q 101 472 60 397 q 215 594 142 547 q 388 642 289 642 q 530 608 467 642 q 630 513 593 575 q 667 369 667 451 l 667 358 l 199 358 l 199 396 l 488 396 l 488 478 q 382 601 488 601 q 310 574 338 601 q 271 484 283 547 q 258 311 258 421 q 272 137 258 199 q 316 51 285 75 q 401 28 347 28 q 532 65 475 28 q 628 193 589 101 l 671 193 q 568 40 642 96 q 396 -17 494 -17 m 363 -340 q 292 -310 322 -340 q 261 -239 261 -281 q 292 -167 261 -197 q 363 -137 322 -137 q 435 -167 404 -137 q 465 -239 465 -197 q 435 -310 465 -281 q 363 -340 404 -340 z "},"è":{"ha":724,"x_min":60,"x_max":671,"o":"m 396 -17 q 265 10 326 -17 q 158 85 204 38 q 85 191 111 132 q 60 315 60 250 q 101 472 60 397 q 215 594 142 547 q 388 642 289 642 q 530 608 467 642 q 630 513 593 575 q 667 369 667 451 l 667 358 l 199 358 l 199 396 l 488 396 l 488 478 q 382 601 488 601 q 310 574 338 601 q 271 484 283 547 q 258 311 258 421 q 272 137 258 199 q 316 51 285 75 q 401 28 347 28 q 532 65 475 28 q 628 193 589 101 l 671 193 q 568 40 642 96 q 396 -17 494 -17 m 365 728 l 176 860 q 122 910 136 889 q 108 949 108 931 q 126 992 108 974 q 179 1010 144 1010 q 226 999 203 1010 q 274 953 249 988 l 439 728 l 365 728 z "},"ẻ":{"ha":724,"x_min":60,"x_max":671,"o":"m 396 -17 q 265 10 326 -17 q 158 85 204 38 q 85 191 111 132 q 60 315 60 250 q 101 472 60 397 q 215 594 142 547 q 388 642 289 642 q 530 608 467 642 q 630 513 593 575 q 667 369 667 451 l 667 358 l 199 358 l 199 396 l 488 396 l 488 478 q 382 601 488 601 q 310 574 338 601 q 271 484 283 547 q 258 311 258 421 q 272 137 258 199 q 316 51 285 75 q 401 28 347 28 q 532 65 475 28 q 628 193 589 101 l 671 193 q 568 40 642 96 q 396 -17 494 -17 m 374 713 q 383 758 374 740 q 404 788 392 775 q 426 815 417 801 q 435 846 435 828 q 418 886 435 874 q 375 899 401 899 q 334 887 350 899 q 318 860 318 875 q 324 843 318 847 q 336 833 331 839 q 342 813 342 828 q 327 788 342 796 q 293 779 313 779 q 251 795 268 779 q 235 838 235 811 q 255 907 235 881 q 306 945 275 933 q 374 957 338 957 q 481 929 443 957 q 518 849 518 901 q 504 796 518 814 q 472 767 490 778 q 438 744 453 756 q 419 713 422 732 l 374 713 z "},"ȇ":{"ha":724,"x_min":60,"x_max":671,"o":"m 396 -17 q 265 10 326 -17 q 158 85 204 38 q 85 191 111 132 q 60 315 60 250 q 101 472 60 397 q 215 594 142 547 q 388 642 289 642 q 530 608 467 642 q 630 513 593 575 q 667 369 667 451 l 667 358 l 199 358 l 199 396 l 488 396 l 488 478 q 382 601 488 601 q 310 574 338 601 q 271 484 283 547 q 258 311 258 421 q 272 137 258 199 q 316 51 285 75 q 401 28 347 28 q 532 65 475 28 q 628 193 589 101 l 671 193 q 568 40 642 96 q 396 -17 494 -17 m 151 728 q 209 896 151 832 q 376 960 267 960 q 546 893 492 960 q 600 728 600 826 l 546 728 q 495 811 543 785 q 374 838 447 838 q 255 812 301 838 q 206 728 208 786 l 151 728 z "},"ē":{"ha":724,"x_min":60,"x_max":671,"o":"m 396 -17 q 265 10 326 -17 q 158 85 204 38 q 85 191 111 132 q 60 315 60 250 q 101 472 60 397 q 215 594 142 547 q 388 642 289 642 q 530 608 467 642 q 630 513 593 575 q 667 369 667 451 l 667 358 l 199 358 l 199 396 l 488 396 l 488 478 q 382 601 488 601 q 310 574 338 601 q 271 484 283 547 q 258 311 258 421 q 272 137 258 199 q 316 51 285 75 q 401 28 347 28 q 532 65 475 28 q 628 193 589 101 l 671 193 q 568 40 642 96 q 396 -17 494 -17 m 147 786 l 147 892 l 606 892 l 606 786 l 147 786 z "},"ę":{"ha":724,"x_min":60,"x_max":671,"o":"m 396 -17 q 265 10 326 -17 q 158 85 204 38 q 85 191 111 132 q 60 315 60 250 q 101 472 60 397 q 215 594 142 547 q 388 642 289 642 q 530 608 467 642 q 630 513 593 575 q 667 369 667 451 l 667 358 l 199 358 l 199 396 l 488 396 l 488 478 q 382 601 488 601 q 310 574 338 601 q 271 484 283 547 q 258 311 258 421 q 272 137 258 199 q 316 51 285 75 q 401 28 347 28 q 532 65 475 28 q 628 193 589 101 l 671 193 q 568 40 642 96 q 396 -17 494 -17 m 394 -337 q 304 -306 339 -337 q 269 -222 269 -274 q 289 -151 269 -186 q 352 -76 308 -117 q 471 14 396 -36 l 528 14 q 419 -101 457 -43 q 381 -208 381 -158 q 438 -272 381 -272 q 477 -263 457 -272 q 524 -235 497 -254 l 529 -235 l 529 -278 q 471 -321 507 -304 q 394 -337 435 -337 z "},"ẽ":{"ha":724,"x_min":60,"x_max":671,"o":"m 396 -17 q 265 10 326 -17 q 158 85 204 38 q 85 191 111 132 q 60 315 60 250 q 101 472 60 397 q 215 594 142 547 q 388 642 289 642 q 530 608 467 642 q 630 513 593 575 q 667 369 667 451 l 667 358 l 199 358 l 199 396 l 488 396 l 488 478 q 382 601 488 601 q 310 574 338 601 q 271 484 283 547 q 258 311 258 421 q 272 137 258 199 q 316 51 285 75 q 401 28 347 28 q 532 65 475 28 q 628 193 589 101 l 671 193 q 568 40 642 96 q 396 -17 494 -17 m 118 756 q 149 842 125 800 q 209 910 172 883 q 296 938 246 938 q 365 922 333 938 q 425 892 396 907 q 486 876 454 876 q 556 898 533 876 q 588 940 579 919 l 635 940 q 603 853 625 894 q 544 784 581 811 q 456 757 508 757 q 386 772 417 757 q 327 803 356 788 q 265 818 299 818 q 199 801 226 818 q 164 756 172 783 l 118 756 z "},"ə":{"ha":726,"x_min":54,"x_max":664,"o":"m 336 -17 q 195 17 258 -17 q 95 113 132 51 q 58 256 58 174 l 58 267 l 526 267 l 526 229 l 236 229 l 236 147 q 342 24 236 24 q 415 51 388 24 q 454 141 442 78 q 467 314 467 204 q 453 488 467 426 q 409 574 440 550 q 324 597 378 597 q 193 560 251 597 q 96 432 135 524 l 54 432 q 156 585 82 529 q 329 642 229 642 q 460 615 399 642 q 567 540 521 588 q 638 434 613 493 q 664 310 664 375 q 624 153 664 228 q 510 31 583 78 q 336 -17 436 -17 z "},"f":{"ha":492,"x_min":28,"x_max":593,"o":"m 153 0 l 153 665 q 184 881 153 792 q 276 1017 215 969 q 424 1064 338 1064 q 548 1028 503 1064 q 593 942 593 993 q 569 878 593 903 q 506 854 544 854 q 451 873 474 854 q 429 926 429 892 q 435 957 429 946 q 449 977 442 968 q 456 997 456 986 q 417 1022 456 1022 q 349 988 374 1022 q 325 867 325 954 l 325 0 l 153 0 m 29 0 l 29 39 l 474 39 l 474 0 l 29 0 m 28 581 l 28 618 l 485 618 l 485 581 l 28 581 z "},"g":{"ha":753,"x_min":58,"x_max":757,"o":"m 350 -451 l 350 -451 q 200 -424 267 -451 q 96 -352 133 -397 q 58 -251 58 -307 q 92 -156 58 -197 q 178 -90 125 -114 l 178 -85 q 92 -26 122 -62 q 63 69 63 11 q 101 176 63 135 q 215 228 140 218 q 130 306 163 257 q 97 417 97 356 q 133 533 97 482 q 228 613 168 583 q 357 642 288 642 q 475 619 421 642 q 565 556 529 596 q 608 619 581 594 q 675 643 636 643 q 733 624 708 643 q 757 569 757 604 q 742 528 757 544 q 699 511 726 511 q 663 524 672 511 q 646 548 653 536 q 621 560 639 560 q 603 550 610 560 q 594 514 597 540 q 613 467 607 492 q 619 417 619 443 q 583 302 619 353 q 488 222 547 251 q 357 193 428 193 l 271 193 q 170 172 208 193 q 132 117 132 151 q 151 78 132 94 q 207 63 171 63 l 499 63 q 608 45 564 63 q 676 -14 653 28 q 699 -126 699 -56 q 652 -303 699 -231 q 527 -413 606 -375 q 350 -451 449 -451 m 369 -406 l 369 -406 q 496 -376 436 -406 q 593 -295 556 -347 q 631 -178 631 -243 q 610 -111 631 -133 q 544 -89 589 -89 l 235 -89 q 198 -152 213 -108 q 183 -236 183 -196 q 234 -358 183 -310 q 369 -406 285 -406 m 357 238 q 415 252 394 238 q 443 306 435 267 q 451 417 451 346 q 442 529 451 490 q 413 583 433 568 q 357 599 393 599 q 302 584 322 599 q 274 531 282 569 q 267 418 267 492 q 274 306 267 344 q 302 252 282 267 q 357 238 322 238 z "},"ǵ":{"ha":753,"x_min":58,"x_max":757,"o":"m 350 -451 l 350 -451 q 200 -424 267 -451 q 96 -352 133 -397 q 58 -251 58 -307 q 92 -156 58 -197 q 178 -90 125 -114 l 178 -85 q 92 -26 122 -62 q 63 69 63 11 q 101 176 63 135 q 215 228 140 218 q 130 306 163 257 q 97 417 97 356 q 133 533 97 482 q 228 613 168 583 q 357 642 288 642 q 475 619 421 642 q 565 556 529 596 q 608 619 581 594 q 675 643 636 643 q 733 624 708 643 q 757 569 757 604 q 742 528 757 544 q 699 511 726 511 q 663 524 672 511 q 646 548 653 536 q 621 560 639 560 q 603 550 610 560 q 594 514 597 540 q 613 467 607 492 q 619 417 619 443 q 583 302 619 353 q 488 222 547 251 q 357 193 428 193 l 271 193 q 170 172 208 193 q 132 117 132 151 q 151 78 132 94 q 207 63 171 63 l 499 63 q 608 45 564 63 q 676 -14 653 28 q 699 -126 699 -56 q 652 -303 699 -231 q 527 -413 606 -375 q 350 -451 449 -451 m 369 -406 l 369 -406 q 496 -376 436 -406 q 593 -295 556 -347 q 631 -178 631 -243 q 610 -111 631 -133 q 544 -89 589 -89 l 235 -89 q 198 -152 213 -108 q 183 -236 183 -196 q 234 -358 183 -310 q 369 -406 285 -406 m 357 238 q 415 252 394 238 q 443 306 435 267 q 451 417 451 346 q 442 529 451 490 q 413 583 433 568 q 357 599 393 599 q 302 584 322 599 q 274 531 282 569 q 267 418 267 492 q 274 306 267 344 q 302 252 282 267 q 357 238 322 238 m 319 728 l 486 953 q 534 999 511 988 q 579 1010 557 1010 q 633 992 615 1010 q 650 949 650 974 q 638 910 650 931 q 582 860 625 889 l 393 728 l 319 728 z "},"ğ":{"ha":753,"x_min":58,"x_max":757,"o":"m 350 -451 l 350 -451 q 200 -424 267 -451 q 96 -352 133 -397 q 58 -251 58 -307 q 92 -156 58 -197 q 178 -90 125 -114 l 178 -85 q 92 -26 122 -62 q 63 69 63 11 q 101 176 63 135 q 215 228 140 218 q 130 306 163 257 q 97 417 97 356 q 133 533 97 482 q 228 613 168 583 q 357 642 288 642 q 475 619 421 642 q 565 556 529 596 q 608 619 581 594 q 675 643 636 643 q 733 624 708 643 q 757 569 757 604 q 742 528 757 544 q 699 511 726 511 q 663 524 672 511 q 646 548 653 536 q 621 560 639 560 q 603 550 610 560 q 594 514 597 540 q 613 467 607 492 q 619 417 619 443 q 583 302 619 353 q 488 222 547 251 q 357 193 428 193 l 271 193 q 170 172 208 193 q 132 117 132 151 q 151 78 132 94 q 207 63 171 63 l 499 63 q 608 45 564 63 q 676 -14 653 28 q 699 -126 699 -56 q 652 -303 699 -231 q 527 -413 606 -375 q 350 -451 449 -451 m 369 -406 l 369 -406 q 496 -376 436 -406 q 593 -295 556 -347 q 631 -178 631 -243 q 610 -111 631 -133 q 544 -89 589 -89 l 235 -89 q 198 -152 213 -108 q 183 -236 183 -196 q 234 -358 183 -310 q 369 -406 285 -406 m 357 238 q 415 252 394 238 q 443 306 435 267 q 451 417 451 346 q 442 529 451 490 q 413 583 433 568 q 357 599 393 599 q 302 584 322 599 q 274 531 282 569 q 267 418 267 492 q 274 306 267 344 q 302 252 282 267 q 357 238 322 238 m 371 728 q 222 779 271 728 q 174 915 174 831 l 228 915 q 268 858 231 875 q 368 840 306 840 q 470 858 431 840 q 513 915 510 876 l 567 915 q 547 819 567 863 q 483 752 526 776 q 371 728 440 728 z "},"ĝ":{"ha":753,"x_min":58,"x_max":757,"o":"m 350 -451 l 350 -451 q 200 -424 267 -451 q 96 -352 133 -397 q 58 -251 58 -307 q 92 -156 58 -197 q 178 -90 125 -114 l 178 -85 q 92 -26 122 -62 q 63 69 63 11 q 101 176 63 135 q 215 228 140 218 q 130 306 163 257 q 97 417 97 356 q 133 533 97 482 q 228 613 168 583 q 357 642 288 642 q 475 619 421 642 q 565 556 529 596 q 608 619 581 594 q 675 643 636 643 q 733 624 708 643 q 757 569 757 604 q 742 528 757 544 q 699 511 726 511 q 663 524 672 511 q 646 548 653 536 q 621 560 639 560 q 603 550 610 560 q 594 514 597 540 q 613 467 607 492 q 619 417 619 443 q 583 302 619 353 q 488 222 547 251 q 357 193 428 193 l 271 193 q 170 172 208 193 q 132 117 132 151 q 151 78 132 94 q 207 63 171 63 l 499 63 q 608 45 564 63 q 676 -14 653 28 q 699 -126 699 -56 q 652 -303 699 -231 q 527 -413 606 -375 q 350 -451 449 -451 m 369 -406 l 369 -406 q 496 -376 436 -406 q 593 -295 556 -347 q 631 -178 631 -243 q 610 -111 631 -133 q 544 -89 589 -89 l 235 -89 q 198 -152 213 -108 q 183 -236 183 -196 q 234 -358 183 -310 q 369 -406 285 -406 m 357 238 q 415 252 394 238 q 443 306 435 267 q 451 417 451 346 q 442 529 451 490 q 413 583 433 568 q 357 599 393 599 q 302 584 322 599 q 274 531 282 569 q 267 418 267 492 q 274 306 267 344 q 302 252 282 267 q 357 238 322 238 m 132 728 l 328 1006 l 414 1006 l 610 728 l 550 728 l 371 861 l 192 728 l 132 728 z "},"ģ":{"ha":753,"x_min":58,"x_max":757,"o":"m 350 -451 l 350 -451 q 200 -424 267 -451 q 96 -352 133 -397 q 58 -251 58 -307 q 92 -156 58 -197 q 178 -90 125 -114 l 178 -85 q 92 -26 122 -62 q 63 69 63 11 q 101 176 63 135 q 215 228 140 218 q 130 306 163 257 q 97 417 97 356 q 133 533 97 482 q 228 613 168 583 q 357 642 288 642 q 475 619 421 642 q 565 556 529 596 q 608 619 581 594 q 675 643 636 643 q 733 624 708 643 q 757 569 757 604 q 742 528 757 544 q 699 511 726 511 q 663 524 672 511 q 646 548 653 536 q 621 560 639 560 q 603 550 610 560 q 594 514 597 540 q 613 467 607 492 q 619 417 619 443 q 583 302 619 353 q 488 222 547 251 q 357 193 428 193 l 271 193 q 170 172 208 193 q 132 117 132 151 q 151 78 132 94 q 207 63 171 63 l 499 63 q 608 45 564 63 q 676 -14 653 28 q 699 -126 699 -56 q 652 -303 699 -231 q 527 -413 606 -375 q 350 -451 449 -451 m 369 -406 l 369 -406 q 496 -376 436 -406 q 593 -295 556 -347 q 631 -178 631 -243 q 610 -111 631 -133 q 544 -89 589 -89 l 235 -89 q 198 -152 213 -108 q 183 -236 183 -196 q 234 -358 183 -310 q 369 -406 285 -406 m 357 238 q 415 252 394 238 q 443 306 435 267 q 451 417 451 346 q 442 529 451 490 q 413 583 433 568 q 357 599 393 599 q 302 584 322 599 q 274 531 282 569 q 267 418 267 492 q 274 306 267 344 q 302 252 282 267 q 357 238 322 238 m 426 1058 l 454 1026 q 351 955 382 989 q 319 881 319 921 q 324 862 319 867 q 332 857 328 857 q 350 867 340 857 q 375 888 360 878 q 414 899 390 899 q 468 876 449 899 q 488 819 488 853 q 460 753 488 779 q 388 728 433 728 q 299 768 331 728 q 267 865 267 808 q 308 974 267 929 q 426 1058 349 1019 z "}}}
